<?xml version="1.0" encoding="UTF-8" standalone="no"?><svg xmlns="http://www.w3.org/2000/svg" xmlns:xlink="http://www.w3.org/1999/xlink" contentScriptType="application/ecmascript" contentStyleType="text/css" height="432px" preserveAspectRatio="none" style="width:699px;height:432px;" version="1.1" viewBox="0 0 699 432" width="699px" zoomAndPan="magnify"><defs><filter height="300%" id="fyvzzj2f64uq7" width="300%" x="-1" y="-1"><feGaussianBlur result="blurOut" stdDeviation="2.0"/><feColorMatrix in="blurOut" result="blurOut2" type="matrix" values="0 0 0 0 0 0 0 0 0 0 0 0 0 0 0 0 0 0 .4 0"/><feOffset dx="4.0" dy="4.0" in="blurOut2" result="blurOut3"/><feBlend in="SourceGraphic" in2="blurOut3" mode="normal"/></filter></defs><g><text fill="#000000" font-family="sans-serif" font-size="18" lengthAdjust="spacingAndGlyphs" textLength="176" x="260.5" y="28.6855">Testing Power Supply</text><rect fill="#FEFECE" filter="url(#fyvzzj2f64uq7)" height="65.2813" rx="12.5" ry="12.5" style="stroke: #A80036; stroke-width: 1.5;" width="653" x="10" y="84.3115"/><text fill="#000000" font-family="sans-serif" font-size="12" lengthAdjust="spacingAndGlyphs" textLength="346" x="20" y="106.7686">Unplug the barrel connector of the AC adaptor from the receiver.</text><text fill="#000000" font-family="sans-serif" font-size="12" lengthAdjust="spacingAndGlyphs" textLength="243" x="20" y="121.8623">Plug the AC adaptor into a working AC outlet.</text><text fill="#000000" font-family="sans-serif" font-size="12" lengthAdjust="spacingAndGlyphs" textLength="633" x="20" y="136.9561">Using a voltage meter, measure the DC voltage between the center contact and outer contact of the barrel connector.</text><rect fill="#FEFECE" filter="url(#fyvzzj2f64uq7)" height="35.0938" rx="12.5" ry="12.5" style="stroke: #A80036; stroke-width: 1.5;" width="153" x="260" y="218.5107"/><a target="_top" xlink:actuate="onRequest" xlink:href="http://rfhero.com/request-rma.php" xlink:show="new" xlink:title="Click here to go to the RMA page." xlink:type="simple"><text fill="#0000FF" font-family="sans-serif" font-size="12" lengthAdjust="spacingAndGlyphs" text-decoration="underline" textLength="133" x="270" y="240.9678">Please RMA the receiver</text><line style="stroke: #0000FF; stroke-width: 1.0;" x1="270" x2="403" y1="242.9678" y2="242.9678"/></a><ellipse cx="336.5" cy="290.5576" fill="none" filter="url(#fyvzzj2f64uq7)" rx="10" ry="10" style="stroke: #000000; stroke-width: 1.0;"/><ellipse cx="337" cy="291.0576" fill="#000000" filter="url(#fyvzzj2f64uq7)" rx="6" ry="6" style="stroke: none; stroke-width: 1.0;"/><polygon fill="#FEFECE" filter="url(#fyvzzj2f64uq7)" points="258.5,169.5928,414.5,169.5928,426.5,181.5928,414.5,193.5928,258.5,193.5928,246.5,181.5928,258.5,169.5928" style="stroke: #A80036; stroke-width: 1.5;"/><text fill="#000000" font-family="sans-serif" font-size="11" lengthAdjust="spacingAndGlyphs" textLength="20" x="340.5" y="205.0117">Yes</text><text fill="#000000" font-family="sans-serif" font-size="11" lengthAdjust="spacingAndGlyphs" textLength="156" x="258.5" y="186.0938">Is the voltage read at least 12V?</text><text fill="#000000" font-family="sans-serif" font-size="11" lengthAdjust="spacingAndGlyphs" textLength="13" x="426.5" y="179.1758">No</text><polygon fill="#FEFECE" filter="url(#fyvzzj2f64uq7)" points="149.5,35.3936,523.5,35.3936,535.5,47.3936,523.5,59.3936,149.5,59.3936,137.5,47.3936,149.5,35.3936" style="stroke: #A80036; stroke-width: 1.5;"/><text fill="#000000" font-family="sans-serif" font-size="11" lengthAdjust="spacingAndGlyphs" textLength="13" x="340.5" y="70.8125">No</text><text fill="#000000" font-family="sans-serif" font-size="11" lengthAdjust="spacingAndGlyphs" textLength="374" x="149.5" y="51.8945">Visually inspect the power supply and cables.  Is there any obvious damage?</text><text fill="#000000" font-family="sans-serif" font-size="11" lengthAdjust="spacingAndGlyphs" textLength="20" x="535.5" y="44.9766">Yes</text><polygon fill="#FEFECE" filter="url(#fyvzzj2f64uq7)" points="336.5,342.5576,348.5,354.5576,336.5,366.5576,324.5,354.5576,336.5,342.5576" style="stroke: #A80036; stroke-width: 1.5;"/><rect fill="#FEFECE" filter="url(#fyvzzj2f64uq7)" height="35.0938" rx="12.5" ry="12.5" style="stroke: #A80036; stroke-width: 1.5;" width="130" x="271.5" y="386.5576"/><a target="_top" xlink:actuate="onRequest" xlink:href="https://www.rfhero.com/store/index.php?route=product/search&amp;search=power%20supply" xlink:show="new" xlink:title="https://www.rfhero.com/store/index.php?route=product/search&amp;search=power%20supply" xlink:type="simple"><text fill="#0000FF" font-family="sans-serif" font-size="12" lengthAdjust="spacingAndGlyphs" text-decoration="underline" textLength="110" x="281.5" y="409.0146">Replace AC Adaptor</text><line style="stroke: #0000FF; stroke-width: 1.0;" x1="281.5" x2="391.5" y1="411.0146" y2="411.0146"/></a><line style="stroke: #A80036; stroke-width: 1.5;" x1="336.5" x2="336.5" y1="253.6045" y2="280.5576"/><polygon fill="#A80036" points="332.5,270.5576,336.5,280.5576,340.5,270.5576,336.5,274.5576" style="stroke: #A80036; stroke-width: 1.0;"/><line style="stroke: #A80036; stroke-width: 1.5;" x1="336.5" x2="336.5" y1="193.5928" y2="218.5107"/><polygon fill="#A80036" points="332.5,208.5107,336.5,218.5107,340.5,208.5107,336.5,212.5107" style="stroke: #A80036; stroke-width: 1.0;"/><line style="stroke: #A80036; stroke-width: 1.5;" x1="426.5" x2="438.5" y1="181.5928" y2="181.5928"/><polygon fill="#A80036" points="434.5,250.5576,438.5,260.5576,442.5,250.5576,438.5,254.5576" style="stroke: #A80036; stroke-width: 1.5;"/><line style="stroke: #A80036; stroke-width: 1.5;" x1="438.5" x2="438.5" y1="181.5928" y2="322.5576"/><line style="stroke: #A80036; stroke-width: 1.5;" x1="438.5" x2="336.5" y1="322.5576" y2="322.5576"/><line style="stroke: #A80036; stroke-width: 1.5;" x1="336.5" x2="336.5" y1="322.5576" y2="342.5576"/><polygon fill="#A80036" points="332.5,332.5576,336.5,342.5576,340.5,332.5576,336.5,336.5576" style="stroke: #A80036; stroke-width: 1.0;"/><line style="stroke: #A80036; stroke-width: 1.5;" x1="336.5" x2="336.5" y1="149.5928" y2="169.5928"/><polygon fill="#A80036" points="332.5,159.5928,336.5,169.5928,340.5,159.5928,336.5,163.5928" style="stroke: #A80036; stroke-width: 1.0;"/><line style="stroke: #A80036; stroke-width: 1.5;" x1="336.5" x2="336.5" y1="59.3936" y2="84.3115"/><polygon fill="#A80036" points="332.5,74.3115,336.5,84.3115,340.5,74.3115,336.5,78.3115" style="stroke: #A80036; stroke-width: 1.0;"/><line style="stroke: #A80036; stroke-width: 1.5;" x1="535.5" x2="673" y1="47.3936" y2="47.3936"/><polygon fill="#A80036" points="669,194.417,673,204.417,677,194.417,673,198.417" style="stroke: #A80036; stroke-width: 1.5;"/><line style="stroke: #A80036; stroke-width: 1.5;" x1="673" x2="673" y1="47.3936" y2="354.5576"/><line style="stroke: #A80036; stroke-width: 1.5;" x1="673" x2="348.5" y1="354.5576" y2="354.5576"/><polygon fill="#A80036" points="358.5,350.5576,348.5,354.5576,358.5,358.5576,354.5,354.5576" style="stroke: #A80036; stroke-width: 1.0;"/><line style="stroke: #A80036; stroke-width: 1.5;" x1="336.5" x2="336.5" y1="366.5576" y2="386.5576"/><polygon fill="#A80036" points="332.5,376.5576,336.5,386.5576,340.5,376.5576,336.5,380.5576" style="stroke: #A80036; stroke-width: 1.0;"/><!--
@startuml
title Testing Power Supply
if (Visually inspect the power supply and cables.  Is there any obvious damage?) then (Yes)
else (No)
    :Unplug the barrel connector of the AC adaptor from the receiver.\nPlug the AC adaptor into a working AC outlet.\nUsing a voltage meter, measure the DC voltage between the center contact and outer contact of the barrel connector.;
    if (Is the voltage read at least 12V?) then (Yes)
        :[[http://rfhero.com/request-rma.php{Click here to go to the RMA page.}Please RMA the receiver]];
        stop
    else (No)
    endif
endif
:[[https://www.rfhero.com/store/index.php?route=product/search&search=power%20supply Replace AC Adaptor]];
@enduml

PlantUML version 1.2019.00(Sun Jan 13 10:46:42 EST 2019)
(GPL source distribution)
Java Runtime: Java(TM) SE Runtime Environment
JVM: Java HotSpot(TM) Client VM
Java Version: 1.8.0_191-b12
Operating System: Windows 10
OS Version: 10.0
Default Encoding: Cp1252
Language: en
Country: US
--></g></svg>