<?xml version="1.0" encoding="UTF-8" standalone="no"?><svg xmlns="http://www.w3.org/2000/svg" xmlns:xlink="http://www.w3.org/1999/xlink" contentScriptType="application/ecmascript" contentStyleType="text/css" height="1265px" preserveAspectRatio="none" style="width:638px;height:1265px;" version="1.1" viewBox="0 0 638 1265" width="638px" zoomAndPan="magnify"><defs><filter height="300%" id="f34z1zv0427dr" width="300%" x="-1" y="-1"><feGaussianBlur result="blurOut" stdDeviation="2.0"/><feColorMatrix in="blurOut" result="blurOut2" type="matrix" values="0 0 0 0 0 0 0 0 0 0 0 0 0 0 0 0 0 0 .4 0"/><feOffset dx="4.0" dy="4.0" in="blurOut2" result="blurOut3"/><feBlend in="SourceGraphic" in2="blurOut3" mode="normal"/></filter></defs><g><text fill="#000000" font-family="sans-serif" font-size="18" lengthAdjust="spacingAndGlyphs" textLength="252" x="192" y="28.6855">Receiver Verification Procedure</text><rect fill="#FEFECE" filter="url(#f34z1zv0427dr)" height="35.0938" rx="12.5" ry="12.5" style="stroke: #A80036; stroke-width: 1.5;" width="325" x="77" y="32.6406"/><text fill="#000000" font-family="sans-serif" font-size="12" lengthAdjust="spacingAndGlyphs" textLength="305" x="87" y="55.0977">Power off the receiver by disconnecting the power cable.</text><rect fill="#FEFECE" filter="url(#f34z1zv0427dr)" height="35.0938" rx="12.5" ry="12.5" style="stroke: #A80036; stroke-width: 1.5;" width="339" x="70" y="87.7344"/><text fill="#000000" font-family="sans-serif" font-size="12" lengthAdjust="spacingAndGlyphs" textLength="319" x="80" y="110.1914">Power the receiver back on by plugging in the power cable.</text><rect fill="#FEFECE" filter="url(#f34z1zv0427dr)" height="35.0938" rx="12.5" ry="12.5" style="stroke: #A80036; stroke-width: 1.5;" width="131" x="174" y="191.7461"/><a target="_top" xlink:actuate="onRequest" xlink:href="powersupply.html" xlink:show="new" xlink:title="powersupply.html" xlink:type="simple"><text fill="#0000FF" font-family="sans-serif" font-size="12" lengthAdjust="spacingAndGlyphs" text-decoration="underline" textLength="111" x="184" y="214.2031">Check power supply</text><line style="stroke: #0000FF; stroke-width: 1.0;" x1="184" x2="295" y1="216.2031" y2="216.2031"/></a><polygon fill="#FEFECE" filter="url(#f34z1zv0427dr)" points="188.5,246.8398,290.5,246.8398,302.5,258.8398,290.5,270.8398,188.5,270.8398,176.5,258.8398,188.5,246.8398" style="stroke: #A80036; stroke-width: 1.5;"/><text fill="#000000" font-family="sans-serif" font-size="11" lengthAdjust="spacingAndGlyphs" textLength="102" x="188.5" y="263.3408">Is power supply OK?</text><text fill="#000000" font-family="sans-serif" font-size="11" lengthAdjust="spacingAndGlyphs" textLength="20" x="156.5" y="256.4229">Yes</text><rect fill="#FEFECE" filter="url(#f34z1zv0427dr)" height="35.0938" rx="12.5" ry="12.5" style="stroke: #A80036; stroke-width: 1.5;" width="45" x="144" y="280.8398"/><a target="_top" xlink:actuate="onRequest" xlink:href="http://rfhero.com/request-rma.php" xlink:show="new" xlink:title="http://rfhero.com/request-rma.php" xlink:type="simple"><text fill="#0000FF" font-family="sans-serif" font-size="12" lengthAdjust="spacingAndGlyphs" text-decoration="underline" textLength="25" x="154" y="303.2969">RMA</text><line style="stroke: #0000FF; stroke-width: 1.0;" x1="154" x2="179" y1="305.2969" y2="305.2969"/></a><rect fill="#FEFECE" filter="url(#f34z1zv0427dr)" height="35.0938" rx="12.5" ry="12.5" style="stroke: #A80036; stroke-width: 1.5;" width="50" x="141.5" y="335.9336"/><text fill="#000000" font-family="sans-serif" font-size="12" lengthAdjust="spacingAndGlyphs" textLength="30" x="151.5" y="358.3906">Done</text><ellipse cx="166.5" cy="401.0273" fill="none" filter="url(#f34z1zv0427dr)" rx="10" ry="10" style="stroke: #000000; stroke-width: 1.0;"/><ellipse cx="167" cy="401.5273" fill="#000000" filter="url(#f34z1zv0427dr)" rx="6" ry="6" style="stroke: none; stroke-width: 1.0;"/><rect fill="#FEFECE" filter="url(#f34z1zv0427dr)" height="35.0938" rx="12.5" ry="12.5" style="stroke: #A80036; stroke-width: 1.5;" width="130" x="247.5" y="280.8398"/><a target="_top" xlink:actuate="onRequest" xlink:href="https://www.rfhero.com/store/index.php?route=product/search&amp;search=power%20supply" xlink:show="new" xlink:title="https://www.rfhero.com/store/index.php?route=product/search&amp;search=power%20supply" xlink:type="simple"><text fill="#0000FF" font-family="sans-serif" font-size="12" lengthAdjust="spacingAndGlyphs" text-decoration="underline" textLength="110" x="257.5" y="303.2969">Replace AC Adaptor</text><line style="stroke: #0000FF; stroke-width: 1.0;" x1="257.5" x2="367.5" y1="305.2969" y2="305.2969"/></a><polygon fill="#FEFECE" filter="url(#f34z1zv0427dr)" points="130,142.8281,349,142.8281,361,154.8281,349,166.8281,130,166.8281,118,154.8281,130,142.8281" style="stroke: #A80036; stroke-width: 1.5;"/><text fill="#000000" font-family="sans-serif" font-size="11" lengthAdjust="spacingAndGlyphs" textLength="13" x="243.5" y="178.2471">No</text><text fill="#000000" font-family="sans-serif" font-size="11" lengthAdjust="spacingAndGlyphs" textLength="219" x="130" y="159.3291">Does the power light on the receiver turn on?</text><text fill="#000000" font-family="sans-serif" font-size="11" lengthAdjust="spacingAndGlyphs" textLength="20" x="361" y="152.4111">Yes</text><polygon fill="#FEFECE" filter="url(#f34z1zv0427dr)" points="239.5,431.0273,251.5,443.0273,239.5,455.0273,227.5,443.0273,239.5,431.0273" style="stroke: #A80036; stroke-width: 1.5;"/><polygon fill="#FEFECE" filter="url(#f34z1zv0427dr)" points="153,535.6182,326,535.6182,338,549.4541,326,563.29,153,563.29,141,549.4541,153,535.6182" style="stroke: #A80036; stroke-width: 1.5;"/><text fill="#000000" font-family="sans-serif" font-size="11" lengthAdjust="spacingAndGlyphs" textLength="150" x="153" y="547.0371">Does the status light flash at all</text><text fill="#000000" font-family="sans-serif" font-size="11" lengthAdjust="spacingAndGlyphs" textLength="170" x="156" y="560.873">a few seconds after powering up?</text><text fill="#000000" font-family="sans-serif" font-size="11" lengthAdjust="spacingAndGlyphs" textLength="20" x="121" y="547.0371">Yes</text><text fill="#000000" font-family="sans-serif" font-size="11" lengthAdjust="spacingAndGlyphs" textLength="13" x="338" y="547.0371">No</text><rect fill="#FEFECE" filter="url(#f34z1zv0427dr)" height="35.0938" rx="12.5" ry="12.5" style="stroke: #A80036; stroke-width: 1.5;" width="170" x="46" y="573.29"/><a target="_top" xlink:actuate="onRequest" xlink:href="mode.html" xlink:show="new" xlink:title="mode.html" xlink:type="simple"><text fill="#0000FF" font-family="sans-serif" font-size="12" lengthAdjust="spacingAndGlyphs" text-decoration="underline" textLength="150" x="56" y="595.7471">Follow Set Mode Procedure</text><line style="stroke: #0000FF; stroke-width: 1.0;" x1="56" x2="206" y1="597.7471" y2="597.7471"/></a><rect fill="#FEFECE" filter="url(#f34z1zv0427dr)" height="35.0938" rx="12.5" ry="12.5" style="stroke: #A80036; stroke-width: 1.5;" width="45" x="325.5" y="573.29"/><a target="_top" xlink:actuate="onRequest" xlink:href="http://rfhero.com/request-rma.php" xlink:show="new" xlink:title="http://rfhero.com/request-rma.php" xlink:type="simple"><text fill="#0000FF" font-family="sans-serif" font-size="12" lengthAdjust="spacingAndGlyphs" text-decoration="underline" textLength="25" x="335.5" y="595.7471">RMA</text><line style="stroke: #0000FF; stroke-width: 1.0;" x1="335.5" x2="360.5" y1="597.7471" y2="597.7471"/></a><rect fill="#FEFECE" filter="url(#f34z1zv0427dr)" height="35.0938" rx="12.5" ry="12.5" style="stroke: #A80036; stroke-width: 1.5;" width="50" x="323" y="643.3838"/><text fill="#000000" font-family="sans-serif" font-size="12" lengthAdjust="spacingAndGlyphs" textLength="30" x="333" y="665.8408">Done</text><ellipse cx="348" cy="708.4775" fill="none" filter="url(#f34z1zv0427dr)" rx="10" ry="10" style="stroke: #000000; stroke-width: 1.0;"/><ellipse cx="348.5" cy="708.9775" fill="#000000" filter="url(#f34z1zv0427dr)" rx="6" ry="6" style="stroke: none; stroke-width: 1.0;"/><polygon fill="#FEFECE" filter="url(#f34z1zv0427dr)" points="101.5,475.0273,377.5,475.0273,389.5,488.8633,377.5,502.6992,101.5,502.6992,89.5,488.8633,101.5,475.0273" style="stroke: #A80036; stroke-width: 1.5;"/><text fill="#000000" font-family="sans-serif" font-size="11" lengthAdjust="spacingAndGlyphs" textLength="13" x="243.5" y="514.1182">No</text><text fill="#000000" font-family="sans-serif" font-size="11" lengthAdjust="spacingAndGlyphs" textLength="276" x="101.5" y="486.4463">Does the status light on the receiver flash exactly 3 times</text><text fill="#000000" font-family="sans-serif" font-size="11" lengthAdjust="spacingAndGlyphs" textLength="170" x="104.5" y="500.2822">a few seconds after powering up?</text><text fill="#000000" font-family="sans-serif" font-size="11" lengthAdjust="spacingAndGlyphs" textLength="20" x="69.5" y="486.4463">Yes</text><rect fill="#FEFECE" filter="url(#f34z1zv0427dr)" height="35.0938" rx="12.5" ry="12.5" style="stroke: #A80036; stroke-width: 1.5;" width="198" x="140.5" y="760.4775"/><text fill="#000000" font-family="sans-serif" font-size="12" lengthAdjust="spacingAndGlyphs" textLength="178" x="150.5" y="782.9346">Press OFF button on transmitter.</text><rect fill="#FEFECE" filter="url(#f34z1zv0427dr)" height="35.0938" rx="12.5" ry="12.5" style="stroke: #A80036; stroke-width: 1.5;" width="158" x="160.5" y="864.4893"/><a target="_top" xlink:actuate="onRequest" xlink:href="learn.html" xlink:show="new" xlink:title="learn.html" xlink:type="simple"><text fill="#0000FF" font-family="sans-serif" font-size="12" lengthAdjust="spacingAndGlyphs" text-decoration="underline" textLength="138" x="170.5" y="886.9463">Follow Pairing Procedure</text><line style="stroke: #0000FF; stroke-width: 1.0;" x1="170.5" x2="308.5" y1="888.9463" y2="888.9463"/></a><polygon fill="#FEFECE" filter="url(#f34z1zv0427dr)" points="137,815.5713,342,815.5713,354,827.5713,342,839.5713,137,839.5713,125,827.5713,137,815.5713" style="stroke: #A80036; stroke-width: 1.5;"/><text fill="#000000" font-family="sans-serif" font-size="11" lengthAdjust="spacingAndGlyphs" textLength="13" x="243.5" y="850.9902">No</text><text fill="#000000" font-family="sans-serif" font-size="11" lengthAdjust="spacingAndGlyphs" textLength="162" x="137" y="832.0723">Does status light on receiver blink</text><text fill="#008000" font-family="sans-serif" font-size="11" lengthAdjust="spacingAndGlyphs" textLength="34" x="302" y="832.0723">GREEN</text><text fill="#000000" font-family="sans-serif" font-size="11" lengthAdjust="spacingAndGlyphs" textLength="6" x="336" y="832.0723">?</text><text fill="#000000" font-family="sans-serif" font-size="11" lengthAdjust="spacingAndGlyphs" textLength="20" x="354" y="825.1543">Yes</text><polygon fill="#FEFECE" filter="url(#f34z1zv0427dr)" points="239.5,919.583,251.5,931.583,239.5,943.583,227.5,931.583,239.5,919.583" style="stroke: #A80036; stroke-width: 1.5;"/><polygon fill="#FEFECE" filter="url(#f34z1zv0427dr)" points="83.5,963.583,395.5,963.583,407.5,975.583,395.5,987.583,83.5,987.583,71.5,975.583,83.5,963.583" style="stroke: #A80036; stroke-width: 1.5;"/><text fill="#000000" font-family="sans-serif" font-size="11" lengthAdjust="spacingAndGlyphs" textLength="312" x="83.5" y="980.084">Does system respond properly to button presses on transmitter?</text><text fill="#000000" font-family="sans-serif" font-size="11" lengthAdjust="spacingAndGlyphs" textLength="20" x="51.5" y="973.166">Yes</text><text fill="#000000" font-family="sans-serif" font-size="11" lengthAdjust="spacingAndGlyphs" textLength="13" x="407.5" y="973.166">No</text><rect fill="#FEFECE" filter="url(#f34z1zv0427dr)" height="35.0938" rx="12.5" ry="12.5" style="stroke: #A80036; stroke-width: 1.5;" width="50" x="36.5" y="997.583"/><text fill="#000000" font-family="sans-serif" font-size="12" lengthAdjust="spacingAndGlyphs" textLength="30" x="46.5" y="1020.04">Done</text><ellipse cx="61.5" cy="1062.6768" fill="none" filter="url(#f34z1zv0427dr)" rx="10" ry="10" style="stroke: #000000; stroke-width: 1.0;"/><ellipse cx="62" cy="1063.1768" fill="#000000" filter="url(#f34z1zv0427dr)" rx="6" ry="6" style="stroke: none; stroke-width: 1.0;"/><rect fill="#FEFECE" filter="url(#f34z1zv0427dr)" height="35.0938" rx="12.5" ry="12.5" style="stroke: #A80036; stroke-width: 1.5;" width="359" x="238" y="997.583"/><text fill="#000000" font-family="sans-serif" font-size="12" lengthAdjust="spacingAndGlyphs" textLength="339" x="248" y="1020.04">Using a #1 Phillips screwdriver, remove the lid on the receiver.</text><polygon fill="#FEFECE" filter="url(#f34z1zv0427dr)" points="252.5,1052.6768,582.5,1052.6768,594.5,1066.5127,582.5,1080.3486,252.5,1080.3486,240.5,1066.5127,252.5,1052.6768" style="stroke: #A80036; stroke-width: 1.5;"/><text fill="#000000" font-family="sans-serif" font-size="11" lengthAdjust="spacingAndGlyphs" textLength="330" x="252.5" y="1064.0957">Do the LED's for both relays light when pressing the material button?</text><a target="_top" xlink:actuate="onRequest" xlink:href="rx_components.png" xlink:show="new" xlink:title="rx_components.png" xlink:type="simple"><text fill="#0000FF" font-family="sans-serif" font-size="11" lengthAdjust="spacingAndGlyphs" text-decoration="underline" textLength="176" x="252.5" y="1077.9316">Click here for help locating the LEDs.</text><line style="stroke: #0000FF; stroke-width: 1.0;" x1="252.5" x2="428.5" y1="1079.9316" y2="1079.9316"/></a><text fill="#000000" font-family="sans-serif" font-size="11" lengthAdjust="spacingAndGlyphs" textLength="20" x="220.5" y="1064.0957">Yes</text><text fill="#000000" font-family="sans-serif" font-size="11" lengthAdjust="spacingAndGlyphs" textLength="13" x="594.5" y="1064.0957">No</text><rect fill="#FEFECE" filter="url(#f34z1zv0427dr)" height="35.0938" rx="12.5" ry="12.5" style="stroke: #A80036; stroke-width: 1.5;" width="102" x="179.5" y="1090.3486"/><a target="_top" xlink:actuate="onRequest" xlink:href="fusetest.html" xlink:show="new" xlink:title="fusetest.html" xlink:type="simple"><text fill="#0000FF" font-family="sans-serif" font-size="12" lengthAdjust="spacingAndGlyphs" text-decoration="underline" textLength="82" x="189.5" y="1112.8057">Test the Fuses</text><line style="stroke: #0000FF; stroke-width: 1.0;" x1="189.5" x2="271.5" y1="1114.8057" y2="1114.8057"/></a><polygon fill="#FEFECE" filter="url(#f34z1zv0427dr)" points="185,1145.4424,276,1145.4424,288,1157.4424,276,1169.4424,185,1169.4424,173,1157.4424,185,1145.4424" style="stroke: #A80036; stroke-width: 1.5;"/><text fill="#000000" font-family="sans-serif" font-size="11" lengthAdjust="spacingAndGlyphs" textLength="91" x="185" y="1161.9434">Are the fuses OK?</text><text fill="#000000" font-family="sans-serif" font-size="11" lengthAdjust="spacingAndGlyphs" textLength="20" x="153" y="1155.0254">Yes</text><text fill="#000000" font-family="sans-serif" font-size="11" lengthAdjust="spacingAndGlyphs" textLength="13" x="288" y="1155.0254">No</text><rect fill="#FEFECE" filter="url(#f34z1zv0427dr)" height="35.0938" rx="12.5" ry="12.5" style="stroke: #A80036; stroke-width: 1.5;" width="45" x="133.25" y="1179.4424"/><a target="_top" xlink:actuate="onRequest" xlink:href="http://rfhero.com/request-rma.php" xlink:show="new" xlink:title="http://rfhero.com/request-rma.php" xlink:type="simple"><text fill="#0000FF" font-family="sans-serif" font-size="12" lengthAdjust="spacingAndGlyphs" text-decoration="underline" textLength="25" x="143.25" y="1201.8994">RMA</text><line style="stroke: #0000FF; stroke-width: 1.0;" x1="143.25" x2="168.25" y1="1203.8994" y2="1203.8994"/></a><ellipse cx="155.75" cy="1244.5361" fill="none" filter="url(#f34z1zv0427dr)" rx="10" ry="10" style="stroke: #000000; stroke-width: 1.0;"/><ellipse cx="156.25" cy="1245.0361" fill="#000000" filter="url(#f34z1zv0427dr)" rx="6" ry="6" style="stroke: none; stroke-width: 1.0;"/><rect fill="#FEFECE" filter="url(#f34z1zv0427dr)" height="35.0938" rx="12.5" ry="12.5" style="stroke: #A80036; stroke-width: 1.5;" width="214" x="198.25" y="1179.4424"/><text fill="#000000" font-family="sans-serif" font-size="12" lengthAdjust="spacingAndGlyphs" textLength="83" x="208.25" y="1201.8994">Replace fuses.</text><a target="_top" xlink:actuate="onRequest" xlink:href="https://www.rfhero.com/store/index.php?route=product/search&amp;search=fuse" xlink:show="new" xlink:title="https://www.rfhero.com/store/index.php?route=product/search&amp;search=fuse" xlink:type="simple"><text fill="#0000FF" font-family="sans-serif" font-size="12" lengthAdjust="spacingAndGlyphs" text-decoration="underline" textLength="108" x="294.25" y="1201.8994">(Order spare fuses)</text><line style="stroke: #0000FF; stroke-width: 1.0;" x1="294.25" x2="402.25" y1="1203.8994" y2="1203.8994"/></a><ellipse cx="305.25" cy="1244.5361" fill="none" filter="url(#f34z1zv0427dr)" rx="10" ry="10" style="stroke: #000000; stroke-width: 1.0;"/><ellipse cx="305.75" cy="1245.0361" fill="#000000" filter="url(#f34z1zv0427dr)" rx="6" ry="6" style="stroke: none; stroke-width: 1.0;"/><rect fill="#FEFECE" filter="url(#f34z1zv0427dr)" height="35.0938" rx="12.5" ry="12.5" style="stroke: #A80036; stroke-width: 1.5;" width="45" x="582" y="1090.3486"/><a target="_top" xlink:actuate="onRequest" xlink:href="http://rfhero.com/request-rma.php" xlink:show="new" xlink:title="http://rfhero.com/request-rma.php" xlink:type="simple"><text fill="#0000FF" font-family="sans-serif" font-size="12" lengthAdjust="spacingAndGlyphs" text-decoration="underline" textLength="25" x="592" y="1112.8057">RMA</text><line style="stroke: #0000FF; stroke-width: 1.0;" x1="592" x2="617" y1="1114.8057" y2="1114.8057"/></a><ellipse cx="604.5" cy="1155.4424" fill="none" filter="url(#f34z1zv0427dr)" rx="10" ry="10" style="stroke: #000000; stroke-width: 1.0;"/><ellipse cx="605" cy="1155.9424" fill="#000000" filter="url(#f34z1zv0427dr)" rx="6" ry="6" style="stroke: none; stroke-width: 1.0;"/><line style="stroke: #A80036; stroke-width: 1.5;" x1="239.5" x2="239.5" y1="67.7344" y2="87.7344"/><polygon fill="#A80036" points="235.5,77.7344,239.5,87.7344,243.5,77.7344,239.5,81.7344" style="stroke: #A80036; stroke-width: 1.0;"/><line style="stroke: #A80036; stroke-width: 1.5;" x1="166.5" x2="166.5" y1="315.9336" y2="335.9336"/><polygon fill="#A80036" points="162.5,325.9336,166.5,335.9336,170.5,325.9336,166.5,329.9336" style="stroke: #A80036; stroke-width: 1.0;"/><line style="stroke: #A80036; stroke-width: 1.5;" x1="166.5" x2="166.5" y1="371.0273" y2="391.0273"/><polygon fill="#A80036" points="162.5,381.0273,166.5,391.0273,170.5,381.0273,166.5,385.0273" style="stroke: #A80036; stroke-width: 1.0;"/><line style="stroke: #A80036; stroke-width: 1.5;" x1="176.5" x2="166.5" y1="258.8398" y2="258.8398"/><line style="stroke: #A80036; stroke-width: 1.5;" x1="166.5" x2="166.5" y1="258.8398" y2="280.8398"/><polygon fill="#A80036" points="162.5,270.8398,166.5,280.8398,170.5,270.8398,166.5,274.8398" style="stroke: #A80036; stroke-width: 1.0;"/><line style="stroke: #A80036; stroke-width: 1.5;" x1="302.5" x2="312.5" y1="258.8398" y2="258.8398"/><line style="stroke: #A80036; stroke-width: 1.5;" x1="312.5" x2="312.5" y1="258.8398" y2="280.8398"/><polygon fill="#A80036" points="308.5,270.8398,312.5,280.8398,316.5,270.8398,312.5,274.8398" style="stroke: #A80036; stroke-width: 1.0;"/><line style="stroke: #A80036; stroke-width: 1.5;" x1="312.5" x2="312.5" y1="315.9336" y2="416.0273"/><line style="stroke: #A80036; stroke-width: 1.5;" x1="312.5" x2="239.5" y1="416.0273" y2="416.0273"/><line style="stroke: #A80036; stroke-width: 1.5;" x1="239.5" x2="239.5" y1="416.0273" y2="431.0273"/><polygon fill="#A80036" points="235.5,421.0273,239.5,431.0273,243.5,421.0273,239.5,425.0273" style="stroke: #A80036; stroke-width: 1.0;"/><line style="stroke: #A80036; stroke-width: 1.5;" x1="239.5" x2="239.5" y1="226.8398" y2="246.8398"/><polygon fill="#A80036" points="235.5,236.8398,239.5,246.8398,243.5,236.8398,239.5,240.8398" style="stroke: #A80036; stroke-width: 1.0;"/><line style="stroke: #A80036; stroke-width: 1.5;" x1="239.5" x2="239.5" y1="166.8281" y2="191.7461"/><polygon fill="#A80036" points="235.5,181.7461,239.5,191.7461,243.5,181.7461,239.5,185.7461" style="stroke: #A80036; stroke-width: 1.0;"/><line style="stroke: #A80036; stroke-width: 1.5;" x1="361" x2="397.5" y1="154.8281" y2="154.8281"/><polygon fill="#A80036" points="393.5,301.8867,397.5,311.8867,401.5,301.8867,397.5,305.8867" style="stroke: #A80036; stroke-width: 1.5;"/><line style="stroke: #A80036; stroke-width: 1.5;" x1="397.5" x2="397.5" y1="154.8281" y2="443.0273"/><line style="stroke: #A80036; stroke-width: 1.5;" x1="397.5" x2="251.5" y1="443.0273" y2="443.0273"/><polygon fill="#A80036" points="261.5,439.0273,251.5,443.0273,261.5,447.0273,257.5,443.0273" style="stroke: #A80036; stroke-width: 1.0;"/><line style="stroke: #A80036; stroke-width: 1.5;" x1="239.5" x2="239.5" y1="122.8281" y2="142.8281"/><polygon fill="#A80036" points="235.5,132.8281,239.5,142.8281,243.5,132.8281,239.5,136.8281" style="stroke: #A80036; stroke-width: 1.0;"/><line style="stroke: #A80036; stroke-width: 1.5;" x1="348" x2="348" y1="608.3838" y2="643.3838"/><polygon fill="#A80036" points="344,633.3838,348,643.3838,352,633.3838,348,637.3838" style="stroke: #A80036; stroke-width: 1.0;"/><line style="stroke: #A80036; stroke-width: 1.5;" x1="348" x2="348" y1="678.4775" y2="698.4775"/><polygon fill="#A80036" points="344,688.4775,348,698.4775,352,688.4775,348,692.4775" style="stroke: #A80036; stroke-width: 1.0;"/><line style="stroke: #A80036; stroke-width: 1.5;" x1="141" x2="131" y1="549.4541" y2="549.4541"/><line style="stroke: #A80036; stroke-width: 1.5;" x1="131" x2="131" y1="549.4541" y2="573.29"/><polygon fill="#A80036" points="127,563.29,131,573.29,135,563.29,131,567.29" style="stroke: #A80036; stroke-width: 1.0;"/><line style="stroke: #A80036; stroke-width: 1.5;" x1="338" x2="348" y1="549.4541" y2="549.4541"/><line style="stroke: #A80036; stroke-width: 1.5;" x1="348" x2="348" y1="549.4541" y2="573.29"/><polygon fill="#A80036" points="344,563.29,348,573.29,352,563.29,348,567.29" style="stroke: #A80036; stroke-width: 1.0;"/><line style="stroke: #A80036; stroke-width: 1.5;" x1="131" x2="131" y1="608.3838" y2="723.4775"/><line style="stroke: #A80036; stroke-width: 1.5;" x1="131" x2="401.5" y1="723.4775" y2="723.4775"/><polygon fill="#A80036" points="397.5,621.7119,401.5,611.7119,405.5,621.7119,401.5,617.7119" style="stroke: #A80036; stroke-width: 1.5;"/><line style="stroke: #A80036; stroke-width: 1.5;" x1="401.5" x2="401.5" y1="488.8633" y2="723.4775"/><line style="stroke: #A80036; stroke-width: 1.5;" x1="401.5" x2="389.5" y1="488.8633" y2="488.8633"/><polygon fill="#A80036" points="399.5,484.8633,389.5,488.8633,399.5,492.8633,395.5,488.8633" style="stroke: #A80036; stroke-width: 1.0;"/><line style="stroke: #A80036; stroke-width: 1.5;" x1="239.5" x2="239.5" y1="502.6992" y2="535.6182"/><polygon fill="#A80036" points="235.5,525.6182,239.5,535.6182,243.5,525.6182,239.5,529.6182" style="stroke: #A80036; stroke-width: 1.0;"/><line style="stroke: #A80036; stroke-width: 1.5;" x1="89.5" x2="24" y1="488.8633" y2="488.8633"/><polygon fill="#A80036" points="20,613.7119,24,623.7119,28,613.7119,24,617.7119" style="stroke: #A80036; stroke-width: 1.5;"/><line style="stroke: #A80036; stroke-width: 1.5;" x1="24" x2="24" y1="488.8633" y2="740.4775"/><line style="stroke: #A80036; stroke-width: 1.5;" x1="24" x2="239.5" y1="740.4775" y2="740.4775"/><line style="stroke: #A80036; stroke-width: 1.5;" x1="239.5" x2="239.5" y1="740.4775" y2="760.4775"/><polygon fill="#A80036" points="235.5,750.4775,239.5,760.4775,243.5,750.4775,239.5,754.4775" style="stroke: #A80036; stroke-width: 1.0;"/><line style="stroke: #A80036; stroke-width: 1.5;" x1="239.5" x2="239.5" y1="455.0273" y2="475.0273"/><polygon fill="#A80036" points="235.5,465.0273,239.5,475.0273,243.5,465.0273,239.5,469.0273" style="stroke: #A80036; stroke-width: 1.0;"/><line style="stroke: #A80036; stroke-width: 1.5;" x1="239.5" x2="239.5" y1="839.5713" y2="864.4893"/><polygon fill="#A80036" points="235.5,854.4893,239.5,864.4893,243.5,854.4893,239.5,858.4893" style="stroke: #A80036; stroke-width: 1.0;"/><line style="stroke: #A80036; stroke-width: 1.5;" x1="354" x2="366" y1="827.5713" y2="827.5713"/><polygon fill="#A80036" points="362,872.0361,366,882.0361,370,872.0361,366,876.0361" style="stroke: #A80036; stroke-width: 1.5;"/><line style="stroke: #A80036; stroke-width: 1.5;" x1="366" x2="366" y1="827.5713" y2="931.583"/><line style="stroke: #A80036; stroke-width: 1.5;" x1="366" x2="251.5" y1="931.583" y2="931.583"/><polygon fill="#A80036" points="261.5,927.583,251.5,931.583,261.5,935.583,257.5,931.583" style="stroke: #A80036; stroke-width: 1.0;"/><line style="stroke: #A80036; stroke-width: 1.5;" x1="239.5" x2="239.5" y1="899.583" y2="919.583"/><polygon fill="#A80036" points="235.5,909.583,239.5,919.583,243.5,909.583,239.5,913.583" style="stroke: #A80036; stroke-width: 1.0;"/><line style="stroke: #A80036; stroke-width: 1.5;" x1="239.5" x2="239.5" y1="795.5713" y2="815.5713"/><polygon fill="#A80036" points="235.5,805.5713,239.5,815.5713,243.5,805.5713,239.5,809.5713" style="stroke: #A80036; stroke-width: 1.0;"/><line style="stroke: #A80036; stroke-width: 1.5;" x1="61.5" x2="61.5" y1="1032.6768" y2="1052.6768"/><polygon fill="#A80036" points="57.5,1042.6768,61.5,1052.6768,65.5,1042.6768,61.5,1046.6768" style="stroke: #A80036; stroke-width: 1.0;"/><line style="stroke: #A80036; stroke-width: 1.5;" x1="155.75" x2="155.75" y1="1214.5361" y2="1234.5361"/><polygon fill="#A80036" points="151.75,1224.5361,155.75,1234.5361,159.75,1224.5361,155.75,1228.5361" style="stroke: #A80036; stroke-width: 1.0;"/><line style="stroke: #A80036; stroke-width: 1.5;" x1="305.25" x2="305.25" y1="1214.5361" y2="1234.5361"/><polygon fill="#A80036" points="301.25,1224.5361,305.25,1234.5361,309.25,1224.5361,305.25,1228.5361" style="stroke: #A80036; stroke-width: 1.0;"/><line style="stroke: #A80036; stroke-width: 1.5;" x1="173" x2="155.75" y1="1157.4424" y2="1157.4424"/><line style="stroke: #A80036; stroke-width: 1.5;" x1="155.75" x2="155.75" y1="1157.4424" y2="1179.4424"/><polygon fill="#A80036" points="151.75,1169.4424,155.75,1179.4424,159.75,1169.4424,155.75,1173.4424" style="stroke: #A80036; stroke-width: 1.0;"/><line style="stroke: #A80036; stroke-width: 1.5;" x1="288" x2="305.25" y1="1157.4424" y2="1157.4424"/><line style="stroke: #A80036; stroke-width: 1.5;" x1="305.25" x2="305.25" y1="1157.4424" y2="1179.4424"/><polygon fill="#A80036" points="301.25,1169.4424,305.25,1179.4424,309.25,1169.4424,305.25,1173.4424" style="stroke: #A80036; stroke-width: 1.0;"/><line style="stroke: #A80036; stroke-width: 1.5;" x1="230.5" x2="230.5" y1="1125.4424" y2="1145.4424"/><polygon fill="#A80036" points="226.5,1135.4424,230.5,1145.4424,234.5,1135.4424,230.5,1139.4424" style="stroke: #A80036; stroke-width: 1.0;"/><line style="stroke: #A80036; stroke-width: 1.5;" x1="604.5" x2="604.5" y1="1125.4424" y2="1145.4424"/><polygon fill="#A80036" points="600.5,1135.4424,604.5,1145.4424,608.5,1135.4424,604.5,1139.4424" style="stroke: #A80036; stroke-width: 1.0;"/><line style="stroke: #A80036; stroke-width: 1.5;" x1="240.5" x2="230.5" y1="1066.5127" y2="1066.5127"/><line style="stroke: #A80036; stroke-width: 1.5;" x1="230.5" x2="230.5" y1="1066.5127" y2="1090.3486"/><polygon fill="#A80036" points="226.5,1080.3486,230.5,1090.3486,234.5,1080.3486,230.5,1084.3486" style="stroke: #A80036; stroke-width: 1.0;"/><line style="stroke: #A80036; stroke-width: 1.5;" x1="594.5" x2="604.5" y1="1066.5127" y2="1066.5127"/><line style="stroke: #A80036; stroke-width: 1.5;" x1="604.5" x2="604.5" y1="1066.5127" y2="1090.3486"/><polygon fill="#A80036" points="600.5,1080.3486,604.5,1090.3486,608.5,1080.3486,604.5,1084.3486" style="stroke: #A80036; stroke-width: 1.0;"/><line style="stroke: #A80036; stroke-width: 1.5;" x1="417.5" x2="417.5" y1="1032.6768" y2="1052.6768"/><polygon fill="#A80036" points="413.5,1042.6768,417.5,1052.6768,421.5,1042.6768,417.5,1046.6768" style="stroke: #A80036; stroke-width: 1.0;"/><line style="stroke: #A80036; stroke-width: 1.5;" x1="71.5" x2="61.5" y1="975.583" y2="975.583"/><line style="stroke: #A80036; stroke-width: 1.5;" x1="61.5" x2="61.5" y1="975.583" y2="997.583"/><polygon fill="#A80036" points="57.5,987.583,61.5,997.583,65.5,987.583,61.5,991.583" style="stroke: #A80036; stroke-width: 1.0;"/><line style="stroke: #A80036; stroke-width: 1.5;" x1="407.5" x2="417.5" y1="975.583" y2="975.583"/><line style="stroke: #A80036; stroke-width: 1.5;" x1="417.5" x2="417.5" y1="975.583" y2="997.583"/><polygon fill="#A80036" points="413.5,987.583,417.5,997.583,421.5,987.583,417.5,991.583" style="stroke: #A80036; stroke-width: 1.0;"/><line style="stroke: #A80036; stroke-width: 1.5;" x1="239.5" x2="239.5" y1="943.583" y2="963.583"/><polygon fill="#A80036" points="235.5,953.583,239.5,963.583,243.5,953.583,239.5,957.583" style="stroke: #A80036; stroke-width: 1.0;"/><!--
@startuml
title Receiver Verification Procedure
:Power off the receiver by disconnecting the power cable.;
:Power the receiver back on by plugging in the power cable.;
if (Does the power light on the receiver turn on?) then (Yes)
else (No)
    :[[powersupply.html Check power supply]];
    if (Is power supply OK?) then (Yes)
        :[[http://rfhero.com/request-rma.php RMA]];
        :Done;
        stop
    else
        :[[https://www.rfhero.com/store/index.php?route=product/search&search=power%20supply Replace AC Adaptor]];
    endif

endif
while (Does the status light on the receiver flash exactly 3 times\n a few seconds after powering up?) is (No)
    if (Does the status light flash at all\n a few seconds after powering up?) then (Yes)
        :[[mode.html Follow Set Mode Procedure]];
    else (No)
        :[[http://rfhero.com/request-rma.php RMA]];
        :Done;
        stop
    endif
endwhile (Yes)
:Press OFF button on transmitter.;
if (Does status light on receiver blink <color:green>GREEN</color>?) then (Yes)
else (No)
    :[[learn.html Follow Pairing Procedure]];
endif
if (Does system respond properly to button presses on transmitter?) then (Yes)
    :Done;
    stop
else (No)
    :Using a #1 Phillips screwdriver, remove the lid on the receiver.;
    if (Do the LED's for both relays light when pressing the material button?\n[[rx_components.png Click here for help locating the LEDs.]]) then (Yes)
        :[[fusetest.html Test the Fuses]];
        if (Are the fuses OK?) then (Yes)
            :[[http://rfhero.com/request-rma.php RMA]];
            stop
        else (No)
            :Replace fuses. [[https://www.rfhero.com/store/index.php?route=product/search&search=fuse (Order spare fuses)]];
            stop
        endif
    else (No)
        :[[http://rfhero.com/request-rma.php RMA]];
        stop
    endif
endif

@enduml

PlantUML version 1.2019.00(Sun Jan 13 10:46:42 EST 2019)
(GPL source distribution)
Java Runtime: Java(TM) SE Runtime Environment
JVM: Java HotSpot(TM) Client VM
Java Version: 1.8.0_191-b12
Operating System: Windows 10
OS Version: 10.0
Default Encoding: Cp1252
Language: en
Country: US
--></g></svg>