<?xml version="1.0" encoding="UTF-8" standalone="no"?><svg xmlns="http://www.w3.org/2000/svg" xmlns:xlink="http://www.w3.org/1999/xlink" contentScriptType="application/ecmascript" contentStyleType="text/css" height="704px" preserveAspectRatio="none" style="width:485px;height:704px;" version="1.1" viewBox="0 0 485 704" width="485px" zoomAndPan="magnify"><defs><filter height="300%" id="fzxeddb4bjyew" width="300%" x="-1" y="-1"><feGaussianBlur result="blurOut" stdDeviation="2.0"/><feColorMatrix in="blurOut" result="blurOut2" type="matrix" values="0 0 0 0 0 0 0 0 0 0 0 0 0 0 0 0 0 0 .4 0"/><feOffset dx="4.0" dy="4.0" in="blurOut2" result="blurOut3"/><feBlend in="SourceGraphic" in2="blurOut3" mode="normal"/></filter></defs><g><text fill="#000000" font-family="sans-serif" font-size="18" lengthAdjust="spacingAndGlyphs" textLength="173" x="155" y="26.708">Antenna Cable Test</text><rect fill="#FEFECE" filter="url(#fzxeddb4bjyew)" height="33.9688" rx="12.5" ry="12.5" style="stroke: #A80036; stroke-width: 1.5;" width="401" x="28" y="30.9531"/><text fill="#000000" font-family="sans-serif" font-size="12" lengthAdjust="spacingAndGlyphs" textLength="381" x="38" y="52.0918">Visually inspect the antenna and antenna cable for damage.</text><rect fill="#FEFECE" filter="url(#fzxeddb4bjyew)" height="47.9375" rx="12.5" ry="12.5" style="stroke: #A80036; stroke-width: 1.5;" width="372" x="42.5" y="133.3242"/><text fill="#000000" font-family="sans-serif" font-size="12" lengthAdjust="spacingAndGlyphs" textLength="348" x="52.5" y="154.4629">Remove the antenna mast from the magnetic base and</text><text fill="#000000" font-family="sans-serif" font-size="12" lengthAdjust="spacingAndGlyphs" textLength="247" x="56.5" y="168.4316">disconnect the cable from the receiver.</text><rect fill="#FEFECE" filter="url(#fzxeddb4bjyew)" height="61.9063" rx="12.5" ry="12.5" style="stroke: #A80036; stroke-width: 1.5;" width="437" x="10" y="201.2617"/><text fill="#000000" font-family="sans-serif" font-size="12" lengthAdjust="spacingAndGlyphs" textLength="337" x="20" y="222.4004">Using a continuity meter or equivalent, test continuity</text><text fill="#000000" font-family="sans-serif" font-size="12" lengthAdjust="spacingAndGlyphs" textLength="409" x="24" y="236.3691">between the mast stud on the magnetic base and the center pin</text><text fill="#000000" font-family="sans-serif" font-size="12" lengthAdjust="spacingAndGlyphs" textLength="262" x="24" y="250.3379">on the connector at the end of the cable.</text><rect fill="#FEFECE" filter="url(#fzxeddb4bjyew)" height="47.9375" rx="12.5" ry="12.5" style="stroke: #A80036; stroke-width: 1.5;" width="397" x="30" y="331.5703"/><text fill="#000000" font-family="sans-serif" font-size="12" lengthAdjust="spacingAndGlyphs" textLength="373" x="40" y="352.709">Test for continuity between the center pin of the connector</text><text fill="#000000" font-family="sans-serif" font-size="12" lengthAdjust="spacingAndGlyphs" textLength="131" x="44" y="366.6777">and the outside cuff.</text><rect fill="#FEFECE" filter="url(#fzxeddb4bjyew)" height="33.9688" rx="12.5" ry="12.5" style="stroke: #A80036; stroke-width: 1.5;" width="154" x="151.5" y="447.9102"/><a target="_top" xlink:actuate="onRequest" xlink:href="http://rfhero.com/request-rma.php" xlink:show="new" xlink:title="http://rfhero.com/request-rma.php" xlink:type="simple"><text fill="#0000FF" font-family="sans-serif" font-size="12" lengthAdjust="spacingAndGlyphs" text-decoration="underline" textLength="134" x="161.5" y="469.0488">Send for repair (RMA)</text><line style="stroke: #0000FF; stroke-width: 1.0;" x1="161.5" x2="295.5" y1="471.0488" y2="471.0488"/></a><ellipse cx="228.5" cy="519.3945" fill="none" filter="url(#fzxeddb4bjyew)" rx="10" ry="10" style="stroke: #000000; stroke-width: 1.0;"/><ellipse cx="229" cy="519.8945" fill="#000000" filter="url(#fzxeddb4bjyew)" rx="6" ry="6" style="stroke: none; stroke-width: 1.0;"/><polygon fill="#FEFECE" filter="url(#fzxeddb4bjyew)" points="174.5,399.5078,282.5,399.5078,294.5,411.5078,282.5,423.5078,174.5,423.5078,162.5,411.5078,174.5,399.5078" style="stroke: #A80036; stroke-width: 1.5;"/><text fill="#000000" font-family="sans-serif" font-size="11" lengthAdjust="spacingAndGlyphs" textLength="15" x="232.5" y="433.7183">No</text><text fill="#000000" font-family="sans-serif" font-size="11" lengthAdjust="spacingAndGlyphs" textLength="108" x="174.5" y="415.3159">Is there continuity?</text><text fill="#000000" font-family="sans-serif" font-size="11" lengthAdjust="spacingAndGlyphs" textLength="21" x="294.5" y="408.9136">Yes</text><polygon fill="#FEFECE" filter="url(#fzxeddb4bjyew)" points="175.5,283.168,281.5,283.168,293.5,295.168,281.5,307.168,175.5,307.168,163.5,295.168,175.5,283.168" style="stroke: #A80036; stroke-width: 1.5;"/><text fill="#000000" font-family="sans-serif" font-size="11" lengthAdjust="spacingAndGlyphs" textLength="21" x="232.5" y="317.3784">Yes</text><text fill="#000000" font-family="sans-serif" font-size="11" lengthAdjust="spacingAndGlyphs" textLength="106" x="175.5" y="298.9761">Is continuity good?</text><text fill="#000000" font-family="sans-serif" font-size="11" lengthAdjust="spacingAndGlyphs" textLength="15" x="293.5" y="292.5737">No</text><polygon fill="#FEFECE" filter="url(#fzxeddb4bjyew)" points="228.5,571.3945,240.5,583.3945,228.5,595.3945,216.5,583.3945,228.5,571.3945" style="stroke: #A80036; stroke-width: 1.5;"/><polygon fill="#FEFECE" filter="url(#fzxeddb4bjyew)" points="142.5,84.9219,314.5,84.9219,326.5,96.9219,314.5,108.9219,142.5,108.9219,130.5,96.9219,142.5,84.9219" style="stroke: #A80036; stroke-width: 1.5;"/><text fill="#000000" font-family="sans-serif" font-size="11" lengthAdjust="spacingAndGlyphs" textLength="15" x="232.5" y="119.1323">No</text><text fill="#000000" font-family="sans-serif" font-size="11" lengthAdjust="spacingAndGlyphs" textLength="172" x="142.5" y="100.73">Is there any obvious damage?</text><text fill="#000000" font-family="sans-serif" font-size="11" lengthAdjust="spacingAndGlyphs" textLength="21" x="326.5" y="94.3276">Yes</text><polygon fill="#FEFECE" filter="url(#fzxeddb4bjyew)" points="228.5,615.3945,240.5,627.3945,228.5,639.3945,216.5,627.3945,228.5,615.3945" style="stroke: #A80036; stroke-width: 1.5;"/><rect fill="#FEFECE" filter="url(#fzxeddb4bjyew)" height="33.9688" rx="12.5" ry="12.5" style="stroke: #A80036; stroke-width: 1.5;" width="127" x="165" y="659.3945"/><a target="_top" xlink:actuate="onRequest" xlink:href="https://www.rfhero.net/accessories" xlink:show="new" xlink:title="https://www.rfhero.net/accessories" xlink:type="simple"><text fill="#0000FF" font-family="sans-serif" font-size="12" lengthAdjust="spacingAndGlyphs" text-decoration="underline" textLength="107" x="175" y="680.5332">Replace antenna</text><line style="stroke: #0000FF; stroke-width: 1.0;" x1="175" x2="282" y1="682.5332" y2="682.5332"/></a><line style="stroke: #A80036; stroke-width: 1.5;" x1="228.5" x2="228.5" y1="181.2617" y2="201.2617"/><polygon fill="#A80036" points="224.5,191.2617,228.5,201.2617,232.5,191.2617,228.5,195.2617" style="stroke: #A80036; stroke-width: 1.0;"/><line style="stroke: #A80036; stroke-width: 1.5;" x1="228.5" x2="228.5" y1="481.8789" y2="509.3945"/><polygon fill="#A80036" points="224.5,499.3945,228.5,509.3945,232.5,499.3945,228.5,503.3945" style="stroke: #A80036; stroke-width: 1.0;"/><line style="stroke: #A80036; stroke-width: 1.5;" x1="228.5" x2="228.5" y1="423.5078" y2="447.9102"/><polygon fill="#A80036" points="224.5,437.9102,228.5,447.9102,232.5,437.9102,228.5,441.9102" style="stroke: #A80036; stroke-width: 1.0;"/><line style="stroke: #A80036; stroke-width: 1.5;" x1="294.5" x2="315.5" y1="411.5078" y2="411.5078"/><polygon fill="#A80036" points="311.5,479.3945,315.5,489.3945,319.5,479.3945,315.5,483.3945" style="stroke: #A80036; stroke-width: 1.5;"/><line style="stroke: #A80036; stroke-width: 1.5;" x1="315.5" x2="315.5" y1="411.5078" y2="551.3945"/><line style="stroke: #A80036; stroke-width: 1.5;" x1="315.5" x2="228.5" y1="551.3945" y2="551.3945"/><line style="stroke: #A80036; stroke-width: 1.5;" x1="228.5" x2="228.5" y1="551.3945" y2="571.3945"/><polygon fill="#A80036" points="224.5,561.3945,228.5,571.3945,232.5,561.3945,228.5,565.3945" style="stroke: #A80036; stroke-width: 1.0;"/><line style="stroke: #A80036; stroke-width: 1.5;" x1="228.5" x2="228.5" y1="379.5078" y2="399.5078"/><polygon fill="#A80036" points="224.5,389.5078,228.5,399.5078,232.5,389.5078,228.5,393.5078" style="stroke: #A80036; stroke-width: 1.0;"/><line style="stroke: #A80036; stroke-width: 1.5;" x1="228.5" x2="228.5" y1="307.168" y2="331.5703"/><polygon fill="#A80036" points="224.5,321.5703,228.5,331.5703,232.5,321.5703,228.5,325.5703" style="stroke: #A80036; stroke-width: 1.0;"/><line style="stroke: #A80036; stroke-width: 1.5;" x1="293.5" x2="437" y1="295.168" y2="295.168"/><polygon fill="#A80036" points="433,431.9258,437,441.9258,441,431.9258,437,435.9258" style="stroke: #A80036; stroke-width: 1.5;"/><line style="stroke: #A80036; stroke-width: 1.5;" x1="437" x2="437" y1="295.168" y2="583.3945"/><line style="stroke: #A80036; stroke-width: 1.5;" x1="437" x2="240.5" y1="583.3945" y2="583.3945"/><polygon fill="#A80036" points="250.5,579.3945,240.5,583.3945,250.5,587.3945,246.5,583.3945" style="stroke: #A80036; stroke-width: 1.0;"/><line style="stroke: #A80036; stroke-width: 1.5;" x1="228.5" x2="228.5" y1="263.168" y2="283.168"/><polygon fill="#A80036" points="224.5,273.168,228.5,283.168,232.5,273.168,228.5,277.168" style="stroke: #A80036; stroke-width: 1.0;"/><line style="stroke: #A80036; stroke-width: 1.5;" x1="228.5" x2="228.5" y1="108.9219" y2="133.3242"/><polygon fill="#A80036" points="224.5,123.3242,228.5,133.3242,232.5,123.3242,228.5,127.3242" style="stroke: #A80036; stroke-width: 1.0;"/><line style="stroke: #A80036; stroke-width: 1.5;" x1="326.5" x2="459" y1="96.9219" y2="96.9219"/><polygon fill="#A80036" points="455,357.0039,459,367.0039,463,357.0039,459,361.0039" style="stroke: #A80036; stroke-width: 1.5;"/><line style="stroke: #A80036; stroke-width: 1.5;" x1="459" x2="459" y1="96.9219" y2="627.3945"/><line style="stroke: #A80036; stroke-width: 1.5;" x1="459" x2="240.5" y1="627.3945" y2="627.3945"/><polygon fill="#A80036" points="250.5,623.3945,240.5,627.3945,250.5,631.3945,246.5,627.3945" style="stroke: #A80036; stroke-width: 1.0;"/><line style="stroke: #A80036; stroke-width: 1.5;" x1="228.5" x2="228.5" y1="595.3945" y2="615.3945"/><polygon fill="#A80036" points="224.5,605.3945,228.5,615.3945,232.5,605.3945,228.5,609.3945" style="stroke: #A80036; stroke-width: 1.0;"/><line style="stroke: #A80036; stroke-width: 1.5;" x1="228.5" x2="228.5" y1="64.9219" y2="84.9219"/><polygon fill="#A80036" points="224.5,74.9219,228.5,84.9219,232.5,74.9219,228.5,78.9219" style="stroke: #A80036; stroke-width: 1.0;"/><line style="stroke: #A80036; stroke-width: 1.5;" x1="228.5" x2="228.5" y1="639.3945" y2="659.3945"/><polygon fill="#A80036" points="224.5,649.3945,228.5,659.3945,232.5,649.3945,228.5,653.3945" style="stroke: #A80036; stroke-width: 1.0;"/><!--
@startuml
title Antenna Cable Test
:Visually inspect the antenna and antenna cable for damage.;
if (Is there any obvious damage?) then (Yes)
else (No)
    :Remove the antenna mast from the magnetic base and \n disconnect the cable from the receiver.;
    :Using a continuity meter or equivalent, test continuity \n between the mast stud on the magnetic base and the center pin \n on the connector at the end of the cable.;
    if (Is continuity good?) then (Yes)
        :Test for continuity between the center pin of the connector \n and the outside cuff.;
        if (Is there continuity?) then (Yes)
        else (No)
            :[[http://rfhero.com/request-rma.php Send for repair (RMA)]];
            stop
        endif
    else (No)
    endif
endif 
:[[https://www.rfhero.net/accessories Replace antenna]];
@enduml

PlantUML version 1.2019.00(Sun Jan 13 10:46:42 EST 2019)
(GPL source distribution)
Java Runtime: OpenJDK Runtime Environment
JVM: OpenJDK 64-Bit Server VM
Java Version: 10.0.2+13-Ubuntu-1ubuntu0.18.04.4
Operating System: Linux
OS Version: 4.15.0-46-generic
Default Encoding: UTF-8
Language: en
Country: US
--></g></svg>