<?xml version="1.0" encoding="UTF-8" standalone="no"?><svg xmlns="http://www.w3.org/2000/svg" xmlns:xlink="http://www.w3.org/1999/xlink" contentScriptType="application/ecmascript" contentStyleType="text/css" height="718px" preserveAspectRatio="none" style="width:422px;height:718px;" version="1.1" viewBox="0 0 422 718" width="422px" zoomAndPan="magnify"><defs><filter height="300%" id="f1pv1gt68afuh5" width="300%" x="-1" y="-1"><feGaussianBlur result="blurOut" stdDeviation="2.0"/><feColorMatrix in="blurOut" result="blurOut2" type="matrix" values="0 0 0 0 0 0 0 0 0 0 0 0 0 0 0 0 0 0 .4 0"/><feOffset dx="4.0" dy="4.0" in="blurOut2" result="blurOut3"/><feBlend in="SourceGraphic" in2="blurOut3" mode="normal"/></filter></defs><g><text fill="#000000" font-family="sans-serif" font-size="18" lengthAdjust="spacingAndGlyphs" textLength="159" x="130.75" y="28.6855">Antenna Cable Test</text><rect fill="#FEFECE" filter="url(#f1pv1gt68afuh5)" height="35.0938" rx="12.5" ry="12.5" style="stroke: #A80036; stroke-width: 1.5;" width="347" x="23.5" y="32.6406"/><text fill="#000000" font-family="sans-serif" font-size="12" lengthAdjust="spacingAndGlyphs" textLength="327" x="33.5" y="55.0977">Visually inspect the antenna and antenna cable for damage.</text><rect fill="#FEFECE" filter="url(#f1pv1gt68afuh5)" height="50.1875" rx="12.5" ry="12.5" style="stroke: #A80036; stroke-width: 1.5;" width="325" x="34.5" y="136.6523"/><text fill="#000000" font-family="sans-serif" font-size="12" lengthAdjust="spacingAndGlyphs" textLength="302" x="44.5" y="159.1094">Remove the antenna mast from the magnetic base and</text><text fill="#000000" font-family="sans-serif" font-size="12" lengthAdjust="spacingAndGlyphs" textLength="210" x="47.5" y="174.2031">disconnect the cable from the receiver.</text><rect fill="#FEFECE" filter="url(#f1pv1gt68afuh5)" height="65.2813" rx="12.5" ry="12.5" style="stroke: #A80036; stroke-width: 1.5;" width="374" x="10" y="206.8398"/><text fill="#000000" font-family="sans-serif" font-size="12" lengthAdjust="spacingAndGlyphs" textLength="285" x="20" y="229.2969">Using a continuity meter or equivalent, test continuity</text><text fill="#000000" font-family="sans-serif" font-size="12" lengthAdjust="spacingAndGlyphs" textLength="348" x="23" y="244.3906">between the mast stud on the magnetic base and the center pin</text><text fill="#000000" font-family="sans-serif" font-size="12" lengthAdjust="spacingAndGlyphs" textLength="217" x="23" y="259.4844">on the connector at the end of the cable.</text><rect fill="#FEFECE" filter="url(#f1pv1gt68afuh5)" height="50.1875" rx="12.5" ry="12.5" style="stroke: #A80036; stroke-width: 1.5;" width="335" x="29.5" y="341.0391"/><text fill="#000000" font-family="sans-serif" font-size="12" lengthAdjust="spacingAndGlyphs" textLength="312" x="39.5" y="363.4961">Test for continuity between the center pin of the connector</text><text fill="#000000" font-family="sans-serif" font-size="12" lengthAdjust="spacingAndGlyphs" textLength="110" x="42.5" y="378.5898">and the outside cuff.</text><rect fill="#FEFECE" filter="url(#f1pv1gt68afuh5)" height="35.0938" rx="12.5" ry="12.5" style="stroke: #A80036; stroke-width: 1.5;" width="45" x="174.5" y="460.1445"/><a target="_top" xlink:actuate="onRequest" xlink:href="http://rfhero.com/request-rma.php" xlink:show="new" xlink:title="http://rfhero.com/request-rma.php" xlink:type="simple"><text fill="#0000FF" font-family="sans-serif" font-size="12" lengthAdjust="spacingAndGlyphs" text-decoration="underline" textLength="25" x="184.5" y="482.6016">RMA</text><line style="stroke: #0000FF; stroke-width: 1.0;" x1="184.5" x2="209.5" y1="484.6016" y2="484.6016"/></a><ellipse cx="197" cy="532.1914" fill="none" filter="url(#f1pv1gt68afuh5)" rx="10" ry="10" style="stroke: #000000; stroke-width: 1.0;"/><ellipse cx="197.5" cy="532.6914" fill="#000000" filter="url(#f1pv1gt68afuh5)" rx="6" ry="6" style="stroke: none; stroke-width: 1.0;"/><polygon fill="#FEFECE" filter="url(#f1pv1gt68afuh5)" points="151.5,411.2266,242.5,411.2266,254.5,423.2266,242.5,435.2266,151.5,435.2266,139.5,423.2266,151.5,411.2266" style="stroke: #A80036; stroke-width: 1.5;"/><text fill="#000000" font-family="sans-serif" font-size="11" lengthAdjust="spacingAndGlyphs" textLength="13" x="201" y="446.6455">No</text><text fill="#000000" font-family="sans-serif" font-size="11" lengthAdjust="spacingAndGlyphs" textLength="91" x="151.5" y="427.7275">Is there continuity?</text><text fill="#000000" font-family="sans-serif" font-size="11" lengthAdjust="spacingAndGlyphs" textLength="20" x="254.5" y="420.8096">Yes</text><polygon fill="#FEFECE" filter="url(#f1pv1gt68afuh5)" points="152,292.1211,242,292.1211,254,304.1211,242,316.1211,152,316.1211,140,304.1211,152,292.1211" style="stroke: #A80036; stroke-width: 1.5;"/><text fill="#000000" font-family="sans-serif" font-size="11" lengthAdjust="spacingAndGlyphs" textLength="20" x="201" y="327.54">Yes</text><text fill="#000000" font-family="sans-serif" font-size="11" lengthAdjust="spacingAndGlyphs" textLength="90" x="152" y="308.6221">Is continuity good?</text><text fill="#000000" font-family="sans-serif" font-size="11" lengthAdjust="spacingAndGlyphs" textLength="13" x="254" y="301.7041">No</text><polygon fill="#FEFECE" filter="url(#f1pv1gt68afuh5)" points="197,584.1914,209,596.1914,197,608.1914,185,596.1914,197,584.1914" style="stroke: #A80036; stroke-width: 1.5;"/><polygon fill="#FEFECE" filter="url(#f1pv1gt68afuh5)" points="124.5,87.7344,269.5,87.7344,281.5,99.7344,269.5,111.7344,124.5,111.7344,112.5,99.7344,124.5,87.7344" style="stroke: #A80036; stroke-width: 1.5;"/><text fill="#000000" font-family="sans-serif" font-size="11" lengthAdjust="spacingAndGlyphs" textLength="13" x="201" y="123.1533">No</text><text fill="#000000" font-family="sans-serif" font-size="11" lengthAdjust="spacingAndGlyphs" textLength="145" x="124.5" y="104.2354">Is there any obvious damage?</text><text fill="#000000" font-family="sans-serif" font-size="11" lengthAdjust="spacingAndGlyphs" textLength="20" x="281.5" y="97.3174">Yes</text><polygon fill="#FEFECE" filter="url(#f1pv1gt68afuh5)" points="197,628.1914,209,640.1914,197,652.1914,185,640.1914,197,628.1914" style="stroke: #A80036; stroke-width: 1.5;"/><rect fill="#FEFECE" filter="url(#f1pv1gt68afuh5)" height="35.0938" rx="12.5" ry="12.5" style="stroke: #A80036; stroke-width: 1.5;" width="114" x="140" y="672.1914"/><a target="_top" xlink:actuate="onRequest" xlink:href="https://www.rfhero.net/accessories" xlink:show="new" xlink:title="https://www.rfhero.net/accessories" xlink:type="simple"><text fill="#0000FF" font-family="sans-serif" font-size="12" lengthAdjust="spacingAndGlyphs" text-decoration="underline" textLength="94" x="150" y="694.6484">Replace antenna</text><line style="stroke: #0000FF; stroke-width: 1.0;" x1="150" x2="244" y1="696.6484" y2="696.6484"/></a><line style="stroke: #A80036; stroke-width: 1.5;" x1="197" x2="197" y1="186.8398" y2="206.8398"/><polygon fill="#A80036" points="193,196.8398,197,206.8398,201,196.8398,197,200.8398" style="stroke: #A80036; stroke-width: 1.0;"/><line style="stroke: #A80036; stroke-width: 1.5;" x1="197" x2="197" y1="495.2383" y2="522.1914"/><polygon fill="#A80036" points="193,512.1914,197,522.1914,201,512.1914,197,516.1914" style="stroke: #A80036; stroke-width: 1.0;"/><line style="stroke: #A80036; stroke-width: 1.5;" x1="197" x2="197" y1="435.2266" y2="460.1445"/><polygon fill="#A80036" points="193,450.1445,197,460.1445,201,450.1445,197,454.1445" style="stroke: #A80036; stroke-width: 1.0;"/><line style="stroke: #A80036; stroke-width: 1.5;" x1="254.5" x2="266.5" y1="423.2266" y2="423.2266"/><polygon fill="#A80036" points="262.5,492.1914,266.5,502.1914,270.5,492.1914,266.5,496.1914" style="stroke: #A80036; stroke-width: 1.5;"/><line style="stroke: #A80036; stroke-width: 1.5;" x1="266.5" x2="266.5" y1="423.2266" y2="564.1914"/><line style="stroke: #A80036; stroke-width: 1.5;" x1="266.5" x2="197" y1="564.1914" y2="564.1914"/><line style="stroke: #A80036; stroke-width: 1.5;" x1="197" x2="197" y1="564.1914" y2="584.1914"/><polygon fill="#A80036" points="193,574.1914,197,584.1914,201,574.1914,197,578.1914" style="stroke: #A80036; stroke-width: 1.0;"/><line style="stroke: #A80036; stroke-width: 1.5;" x1="197" x2="197" y1="391.2266" y2="411.2266"/><polygon fill="#A80036" points="193,401.2266,197,411.2266,201,401.2266,197,405.2266" style="stroke: #A80036; stroke-width: 1.0;"/><line style="stroke: #A80036; stroke-width: 1.5;" x1="197" x2="197" y1="316.1211" y2="341.0391"/><polygon fill="#A80036" points="193,331.0391,197,341.0391,201,331.0391,197,335.0391" style="stroke: #A80036; stroke-width: 1.0;"/><line style="stroke: #A80036; stroke-width: 1.5;" x1="254" x2="374.5" y1="304.1211" y2="304.1211"/><polygon fill="#A80036" points="370.5,443.5977,374.5,453.5977,378.5,443.5977,374.5,447.5977" style="stroke: #A80036; stroke-width: 1.5;"/><line style="stroke: #A80036; stroke-width: 1.5;" x1="374.5" x2="374.5" y1="304.1211" y2="596.1914"/><line style="stroke: #A80036; stroke-width: 1.5;" x1="374.5" x2="209" y1="596.1914" y2="596.1914"/><polygon fill="#A80036" points="219,592.1914,209,596.1914,219,600.1914,215,596.1914" style="stroke: #A80036; stroke-width: 1.0;"/><line style="stroke: #A80036; stroke-width: 1.5;" x1="197" x2="197" y1="272.1211" y2="292.1211"/><polygon fill="#A80036" points="193,282.1211,197,292.1211,201,282.1211,197,286.1211" style="stroke: #A80036; stroke-width: 1.0;"/><line style="stroke: #A80036; stroke-width: 1.5;" x1="197" x2="197" y1="111.7344" y2="136.6523"/><polygon fill="#A80036" points="193,126.6523,197,136.6523,201,126.6523,197,130.6523" style="stroke: #A80036; stroke-width: 1.0;"/><line style="stroke: #A80036; stroke-width: 1.5;" x1="281.5" x2="396.5" y1="99.7344" y2="99.7344"/><polygon fill="#A80036" points="392.5,365.8633,396.5,375.8633,400.5,365.8633,396.5,369.8633" style="stroke: #A80036; stroke-width: 1.5;"/><line style="stroke: #A80036; stroke-width: 1.5;" x1="396.5" x2="396.5" y1="99.7344" y2="640.1914"/><line style="stroke: #A80036; stroke-width: 1.5;" x1="396.5" x2="209" y1="640.1914" y2="640.1914"/><polygon fill="#A80036" points="219,636.1914,209,640.1914,219,644.1914,215,640.1914" style="stroke: #A80036; stroke-width: 1.0;"/><line style="stroke: #A80036; stroke-width: 1.5;" x1="197" x2="197" y1="608.1914" y2="628.1914"/><polygon fill="#A80036" points="193,618.1914,197,628.1914,201,618.1914,197,622.1914" style="stroke: #A80036; stroke-width: 1.0;"/><line style="stroke: #A80036; stroke-width: 1.5;" x1="197" x2="197" y1="67.7344" y2="87.7344"/><polygon fill="#A80036" points="193,77.7344,197,87.7344,201,77.7344,197,81.7344" style="stroke: #A80036; stroke-width: 1.0;"/><line style="stroke: #A80036; stroke-width: 1.5;" x1="197" x2="197" y1="652.1914" y2="672.1914"/><polygon fill="#A80036" points="193,662.1914,197,672.1914,201,662.1914,197,666.1914" style="stroke: #A80036; stroke-width: 1.0;"/><!--
@startuml
title Antenna Cable Test
:Visually inspect the antenna and antenna cable for damage.;
if (Is there any obvious damage?) then (Yes)
else (No)
    :Remove the antenna mast from the magnetic base and \n disconnect the cable from the receiver.;
    :Using a continuity meter or equivalent, test continuity \n between the mast stud on the magnetic base and the center pin \n on the connector at the end of the cable.;
    if (Is continuity good?) then (Yes)
        :Test for continuity between the center pin of the connector \n and the outside cuff.;
        if (Is there continuity?) then (Yes)
        else (No)
            :[[http://rfhero.com/request-rma.php RMA]];
            stop
        endif
    else (No)
    endif
endif 
:[[https://www.rfhero.net/accessories Replace antenna]];
@enduml

PlantUML version 1.2019.00(Sun Jan 13 10:46:42 EST 2019)
(GPL source distribution)
Java Runtime: Java(TM) SE Runtime Environment
JVM: Java HotSpot(TM) Client VM
Java Version: 1.8.0_191-b12
Operating System: Windows 10
OS Version: 10.0
Default Encoding: Cp1252
Language: en
Country: US
--></g></svg>