<?xml version="1.0" encoding="UTF-8" standalone="no"?><svg xmlns="http://www.w3.org/2000/svg" xmlns:xlink="http://www.w3.org/1999/xlink" contentScriptType="application/ecmascript" contentStyleType="text/css" height="503px" preserveAspectRatio="none" style="width:809px;height:503px;" version="1.1" viewBox="0 0 809 503" width="809px" zoomAndPan="magnify"><defs><filter height="300%" id="fz9zkctafjh7t" width="300%" x="-1" y="-1"><feGaussianBlur result="blurOut" stdDeviation="2.0"/><feColorMatrix in="blurOut" result="blurOut2" type="matrix" values="0 0 0 0 0 0 0 0 0 0 0 0 0 0 0 0 0 0 .4 0"/><feOffset dx="4.0" dy="4.0" in="blurOut2" result="blurOut3"/><feBlend in="SourceGraphic" in2="blurOut3" mode="normal"/></filter></defs><g><text fill="#000000" font-family="sans-serif" font-size="18" lengthAdjust="spacingAndGlyphs" textLength="139" x="334" y="26.708">Check Batteries</text><polygon fill="#FEFECE" filter="url(#fz9zkctafjh7t)" points="223.25,32.8521,553.25,32.8521,565.25,44.8521,553.25,56.8521,223.25,56.8521,211.25,44.8521,223.25,32.8521" style="stroke: #A80036; stroke-width: 1.5;"/><text fill="#000000" font-family="sans-serif" font-size="11" lengthAdjust="spacingAndGlyphs" textLength="330" x="223.25" y="48.6602">Does light on transmitter flash when pushing ANY button?</text><text fill="#000000" font-family="sans-serif" font-size="11" lengthAdjust="spacingAndGlyphs" textLength="21" x="190.25" y="42.2578">Yes</text><text fill="#000000" font-family="sans-serif" font-size="11" lengthAdjust="spacingAndGlyphs" textLength="15" x="565.25" y="42.2578">No</text><rect fill="#FEFECE" filter="url(#fz9zkctafjh7t)" height="33.9688" rx="12.5" ry="12.5" style="stroke: #A80036; stroke-width: 1.5;" width="131" x="127" y="115.2544"/><text fill="#000000" font-family="sans-serif" font-size="12" lengthAdjust="spacingAndGlyphs" textLength="111" x="137" y="136.3931">Replace Batteries</text><polygon fill="#FEFECE" filter="url(#fz9zkctafjh7t)" points="32,66.8521,353,66.8521,365,78.8521,353,90.8521,32,90.8521,20,78.8521,32,66.8521" style="stroke: #A80036; stroke-width: 1.5;"/><text fill="#000000" font-family="sans-serif" font-size="11" lengthAdjust="spacingAndGlyphs" textLength="36" x="196.5" y="101.0625">Slowly</text><text fill="#000000" font-family="sans-serif" font-size="11" lengthAdjust="spacingAndGlyphs" textLength="321" x="32" y="82.6602">Does light flash rapidly several times or slowly 3 times?</text><text fill="#000000" font-family="sans-serif" font-size="11" lengthAdjust="spacingAndGlyphs" textLength="40" x="365" y="76.2578">Rapidly</text><polygon fill="#FEFECE" filter="url(#fz9zkctafjh7t)" points="192.5,173.6255,204.5,185.6255,192.5,197.6255,180.5,185.6255,192.5,173.6255" style="stroke: #A80036; stroke-width: 1.5;"/><rect fill="#FEFECE" filter="url(#fz9zkctafjh7t)" height="33.9688" rx="12.5" ry="12.5" style="stroke: #A80036; stroke-width: 1.5;" width="131" x="518.5" y="66.8521"/><text fill="#000000" font-family="sans-serif" font-size="12" lengthAdjust="spacingAndGlyphs" textLength="111" x="528.5" y="87.9907">Replace batteries</text><rect fill="#FEFECE" filter="url(#fz9zkctafjh7t)" height="33.9688" rx="12.5" ry="12.5" style="stroke: #A80036; stroke-width: 1.5;" width="176" x="496" y="184.2231"/><text fill="#000000" font-family="sans-serif" font-size="12" lengthAdjust="spacingAndGlyphs" textLength="156" x="506" y="205.3618">Verify battery orientation</text><rect fill="#FEFECE" filter="url(#fz9zkctafjh7t)" height="33.9688" rx="12.5" ry="12.5" style="stroke: #A80036; stroke-width: 1.5;" width="154" x="507" y="286.5942"/><a target="_top" xlink:actuate="onRequest" xlink:href="http://rfhero.com/request-rma.php" xlink:show="new" xlink:title="http://rfhero.com/request-rma.php" xlink:type="simple"><text fill="#0000FF" font-family="sans-serif" font-size="12" lengthAdjust="spacingAndGlyphs" text-decoration="underline" textLength="134" x="517" y="307.7329">Send for repair (RMA)</text><line style="stroke: #0000FF; stroke-width: 1.0;" x1="517" x2="651" y1="309.7329" y2="309.7329"/></a><polygon fill="#FEFECE" filter="url(#fz9zkctafjh7t)" points="419,238.1919,749,238.1919,761,250.1919,749,262.1919,419,262.1919,407,250.1919,419,238.1919" style="stroke: #A80036; stroke-width: 1.5;"/><text fill="#000000" font-family="sans-serif" font-size="11" lengthAdjust="spacingAndGlyphs" textLength="15" x="588" y="272.4023">No</text><text fill="#000000" font-family="sans-serif" font-size="11" lengthAdjust="spacingAndGlyphs" textLength="330" x="419" y="254">Does light on transmitter flash when pushing ANY button?</text><text fill="#000000" font-family="sans-serif" font-size="11" lengthAdjust="spacingAndGlyphs" textLength="21" x="761" y="247.5977">Yes</text><polygon fill="#FEFECE" filter="url(#fz9zkctafjh7t)" points="584,340.563,596,352.563,584,364.563,572,352.563,584,340.563" style="stroke: #A80036; stroke-width: 1.5;"/><polygon fill="#FEFECE" filter="url(#fz9zkctafjh7t)" points="419,135.8208,749,135.8208,761,147.8208,749,159.8208,419,159.8208,407,147.8208,419,135.8208" style="stroke: #A80036; stroke-width: 1.5;"/><text fill="#000000" font-family="sans-serif" font-size="11" lengthAdjust="spacingAndGlyphs" textLength="15" x="588" y="170.0313">No</text><text fill="#000000" font-family="sans-serif" font-size="11" lengthAdjust="spacingAndGlyphs" textLength="330" x="419" y="151.6289">Does light on transmitter flash when pushing ANY button?</text><text fill="#000000" font-family="sans-serif" font-size="11" lengthAdjust="spacingAndGlyphs" textLength="21" x="761" y="145.2266">Yes</text><polygon fill="#FEFECE" filter="url(#fz9zkctafjh7t)" points="584,384.563,596,396.563,584,408.563,572,396.563,584,384.563" style="stroke: #A80036; stroke-width: 1.5;"/><polygon fill="#FEFECE" filter="url(#fz9zkctafjh7t)" points="388.25,414.563,400.25,426.563,388.25,438.563,376.25,426.563,388.25,414.563" style="stroke: #A80036; stroke-width: 1.5;"/><rect fill="#FEFECE" filter="url(#fz9zkctafjh7t)" height="33.9688" rx="12.5" ry="12.5" style="stroke: #A80036; stroke-width: 1.5;" width="53" x="361.75" y="458.563"/><text fill="#000000" font-family="sans-serif" font-size="12" lengthAdjust="spacingAndGlyphs" textLength="33" x="371.75" y="479.7017">Done</text><line style="stroke: #A80036; stroke-width: 1.5;" x1="192.5" x2="192.5" y1="90.8521" y2="115.2544"/><polygon fill="#A80036" points="188.5,105.2544,192.5,115.2544,196.5,105.2544,192.5,109.2544" style="stroke: #A80036; stroke-width: 1.0;"/><line style="stroke: #A80036; stroke-width: 1.5;" x1="365" x2="377" y1="78.8521" y2="78.8521"/><polygon fill="#A80036" points="373,122.2388,377,132.2388,381,122.2388,377,126.2388" style="stroke: #A80036; stroke-width: 1.5;"/><line style="stroke: #A80036; stroke-width: 1.5;" x1="377" x2="377" y1="78.8521" y2="185.6255"/><line style="stroke: #A80036; stroke-width: 1.5;" x1="377" x2="204.5" y1="185.6255" y2="185.6255"/><polygon fill="#A80036" points="214.5,181.6255,204.5,185.6255,214.5,189.6255,210.5,185.6255" style="stroke: #A80036; stroke-width: 1.0;"/><line style="stroke: #A80036; stroke-width: 1.5;" x1="192.5" x2="192.5" y1="149.2231" y2="173.6255"/><polygon fill="#A80036" points="188.5,163.6255,192.5,173.6255,196.5,163.6255,192.5,167.6255" style="stroke: #A80036; stroke-width: 1.0;"/><line style="stroke: #A80036; stroke-width: 1.5;" x1="584" x2="584" y1="262.1919" y2="286.5942"/><polygon fill="#A80036" points="580,276.5942,584,286.5942,588,276.5942,584,280.5942" style="stroke: #A80036; stroke-width: 1.0;"/><line style="stroke: #A80036; stroke-width: 1.5;" x1="761" x2="773" y1="250.1919" y2="250.1919"/><polygon fill="#A80036" points="769,293.5786,773,303.5786,777,293.5786,773,297.5786" style="stroke: #A80036; stroke-width: 1.5;"/><line style="stroke: #A80036; stroke-width: 1.5;" x1="773" x2="773" y1="250.1919" y2="352.563"/><line style="stroke: #A80036; stroke-width: 1.5;" x1="773" x2="596" y1="352.563" y2="352.563"/><polygon fill="#A80036" points="606,348.563,596,352.563,606,356.563,602,352.563" style="stroke: #A80036; stroke-width: 1.0;"/><line style="stroke: #A80036; stroke-width: 1.5;" x1="584" x2="584" y1="320.563" y2="340.563"/><polygon fill="#A80036" points="580,330.563,584,340.563,588,330.563,584,334.563" style="stroke: #A80036; stroke-width: 1.0;"/><line style="stroke: #A80036; stroke-width: 1.5;" x1="584" x2="584" y1="218.1919" y2="238.1919"/><polygon fill="#A80036" points="580,228.1919,584,238.1919,588,228.1919,584,232.1919" style="stroke: #A80036; stroke-width: 1.0;"/><line style="stroke: #A80036; stroke-width: 1.5;" x1="584" x2="584" y1="159.8208" y2="184.2231"/><polygon fill="#A80036" points="580,174.2231,584,184.2231,588,174.2231,584,178.2231" style="stroke: #A80036; stroke-width: 1.0;"/><line style="stroke: #A80036; stroke-width: 1.5;" x1="761" x2="783" y1="147.8208" y2="147.8208"/><polygon fill="#A80036" points="779,259.0942,783,269.0942,787,259.0942,783,263.0942" style="stroke: #A80036; stroke-width: 1.5;"/><line style="stroke: #A80036; stroke-width: 1.5;" x1="783" x2="783" y1="147.8208" y2="396.563"/><line style="stroke: #A80036; stroke-width: 1.5;" x1="783" x2="596" y1="396.563" y2="396.563"/><polygon fill="#A80036" points="606,392.563,596,396.563,606,400.563,602,396.563" style="stroke: #A80036; stroke-width: 1.0;"/><line style="stroke: #A80036; stroke-width: 1.5;" x1="584" x2="584" y1="364.563" y2="384.563"/><polygon fill="#A80036" points="580,374.563,584,384.563,588,374.563,584,378.563" style="stroke: #A80036; stroke-width: 1.0;"/><line style="stroke: #A80036; stroke-width: 1.5;" x1="584" x2="584" y1="100.8208" y2="135.8208"/><polygon fill="#A80036" points="580,125.8208,584,135.8208,588,125.8208,584,129.8208" style="stroke: #A80036; stroke-width: 1.0;"/><line style="stroke: #A80036; stroke-width: 1.5;" x1="211.25" x2="192.5" y1="44.8521" y2="44.8521"/><line style="stroke: #A80036; stroke-width: 1.5;" x1="192.5" x2="192.5" y1="44.8521" y2="66.8521"/><polygon fill="#A80036" points="188.5,56.8521,192.5,66.8521,196.5,56.8521,192.5,60.8521" style="stroke: #A80036; stroke-width: 1.0;"/><line style="stroke: #A80036; stroke-width: 1.5;" x1="565.25" x2="584" y1="44.8521" y2="44.8521"/><line style="stroke: #A80036; stroke-width: 1.5;" x1="584" x2="584" y1="44.8521" y2="66.8521"/><polygon fill="#A80036" points="580,56.8521,584,66.8521,588,56.8521,584,60.8521" style="stroke: #A80036; stroke-width: 1.0;"/><line style="stroke: #A80036; stroke-width: 1.5;" x1="192.5" x2="192.5" y1="197.6255" y2="426.563"/><line style="stroke: #A80036; stroke-width: 1.5;" x1="192.5" x2="376.25" y1="426.563" y2="426.563"/><polygon fill="#A80036" points="366.25,422.563,376.25,426.563,366.25,430.563,370.25,426.563" style="stroke: #A80036; stroke-width: 1.0;"/><line style="stroke: #A80036; stroke-width: 1.5;" x1="584" x2="584" y1="408.563" y2="426.563"/><line style="stroke: #A80036; stroke-width: 1.5;" x1="584" x2="400.25" y1="426.563" y2="426.563"/><polygon fill="#A80036" points="410.25,422.563,400.25,426.563,410.25,430.563,406.25,426.563" style="stroke: #A80036; stroke-width: 1.0;"/><line style="stroke: #A80036; stroke-width: 1.5;" x1="388.25" x2="388.25" y1="438.563" y2="458.563"/><polygon fill="#A80036" points="384.25,448.563,388.25,458.563,392.25,448.563,388.25,452.563" style="stroke: #A80036; stroke-width: 1.0;"/><!--
@startuml
title Check Batteries
if (Does light on transmitter flash when pushing ANY button?) then (Yes)
    if (Does light flash rapidly several times or slowly 3 times?) then (Rapidly)
    else (Slowly)
        :Replace Batteries;
    endif
else (No)
    :Replace batteries;
    if (Does light on transmitter flash when pushing ANY button?) then (Yes)
    else (No)
        :Verify battery orientation;
        if (Does light on transmitter flash when pushing ANY button?) then (Yes)
        else (No)
            :[[http://rfhero.com/request-rma.php Send for repair (RMA)]];
        endif
    endif
endif
:Done;
@enduml

PlantUML version 1.2019.00(Sun Jan 13 10:46:42 EST 2019)
(GPL source distribution)
Java Runtime: OpenJDK Runtime Environment
JVM: OpenJDK 64-Bit Server VM
Java Version: 10.0.2+13-Ubuntu-1ubuntu0.18.04.4
Operating System: Linux
OS Version: 4.15.0-46-generic
Default Encoding: UTF-8
Language: en
Country: US
--></g></svg>