<?xml version="1.0" encoding="UTF-8" standalone="no"?><svg xmlns="http://www.w3.org/2000/svg" xmlns:xlink="http://www.w3.org/1999/xlink" contentScriptType="application/ecmascript" contentStyleType="text/css" height="511px" preserveAspectRatio="none" style="width:705px;height:511px;" version="1.1" viewBox="0 0 705 511" width="705px" zoomAndPan="magnify"><defs><filter height="300%" id="f18qb3kv2zpqnc" width="300%" x="-1" y="-1"><feGaussianBlur result="blurOut" stdDeviation="2.0"/><feColorMatrix in="blurOut" result="blurOut2" type="matrix" values="0 0 0 0 0 0 0 0 0 0 0 0 0 0 0 0 0 0 .4 0"/><feOffset dx="4.0" dy="4.0" in="blurOut2" result="blurOut3"/><feBlend in="SourceGraphic" in2="blurOut3" mode="normal"/></filter></defs><g><text fill="#000000" font-family="sans-serif" font-size="18" lengthAdjust="spacingAndGlyphs" textLength="127" x="288" y="28.6855">Check Batteries</text><polygon fill="#FEFECE" filter="url(#f18qb3kv2zpqnc)" points="195.25,35.3936,475.25,35.3936,487.25,47.3936,475.25,59.3936,195.25,59.3936,183.25,47.3936,195.25,35.3936" style="stroke: #A80036; stroke-width: 1.5;"/><text fill="#000000" font-family="sans-serif" font-size="11" lengthAdjust="spacingAndGlyphs" textLength="280" x="195.25" y="51.8945">Does light on transmitter flash when pushing ANY button?</text><text fill="#000000" font-family="sans-serif" font-size="11" lengthAdjust="spacingAndGlyphs" textLength="20" x="163.25" y="44.9766">Yes</text><text fill="#000000" font-family="sans-serif" font-size="11" lengthAdjust="spacingAndGlyphs" textLength="13" x="487.25" y="44.9766">No</text><rect fill="#FEFECE" filter="url(#f18qb3kv2zpqnc)" height="35.0938" rx="12.5" ry="12.5" style="stroke: #A80036; stroke-width: 1.5;" width="118" x="106.5" y="118.3115"/><text fill="#000000" font-family="sans-serif" font-size="12" lengthAdjust="spacingAndGlyphs" textLength="98" x="116.5" y="140.7686">Replace Batteries</text><polygon fill="#FEFECE" filter="url(#f18qb3kv2zpqnc)" points="32,69.3936,299,69.3936,311,81.3936,299,93.3936,32,93.3936,20,81.3936,32,69.3936" style="stroke: #A80036; stroke-width: 1.5;"/><text fill="#000000" font-family="sans-serif" font-size="11" lengthAdjust="spacingAndGlyphs" textLength="33" x="169.5" y="104.8125">Slowly</text><text fill="#000000" font-family="sans-serif" font-size="11" lengthAdjust="spacingAndGlyphs" textLength="267" x="32" y="85.8945">Does light flash rapidly several times or slowly 3 times?</text><text fill="#000000" font-family="sans-serif" font-size="11" lengthAdjust="spacingAndGlyphs" textLength="35" x="311" y="78.9766">Rapidly</text><polygon fill="#FEFECE" filter="url(#f18qb3kv2zpqnc)" points="165.5,178.3232,177.5,190.3232,165.5,202.3232,153.5,190.3232,165.5,178.3232" style="stroke: #A80036; stroke-width: 1.5;"/><rect fill="#FEFECE" filter="url(#f18qb3kv2zpqnc)" height="35.0938" rx="12.5" ry="12.5" style="stroke: #A80036; stroke-width: 1.5;" width="117" x="446.5" y="69.3936"/><text fill="#000000" font-family="sans-serif" font-size="12" lengthAdjust="spacingAndGlyphs" textLength="97" x="456.5" y="91.8506">Replace batteries</text><rect fill="#FEFECE" filter="url(#f18qb3kv2zpqnc)" height="35.0938" rx="12.5" ry="12.5" style="stroke: #A80036; stroke-width: 1.5;" width="149" x="430.5" y="188.4053"/><text fill="#000000" font-family="sans-serif" font-size="12" lengthAdjust="spacingAndGlyphs" textLength="129" x="440.5" y="210.8623">Verify battery orientation</text><rect fill="#FEFECE" filter="url(#f18qb3kv2zpqnc)" height="35.0938" rx="12.5" ry="12.5" style="stroke: #A80036; stroke-width: 1.5;" width="45" x="482.5" y="292.417"/><a target="_top" xlink:actuate="onRequest" xlink:href="http://rfhero.com/request-rma.php" xlink:show="new" xlink:title="http://rfhero.com/request-rma.php" xlink:type="simple"><text fill="#0000FF" font-family="sans-serif" font-size="12" lengthAdjust="spacingAndGlyphs" text-decoration="underline" textLength="25" x="492.5" y="314.874">RMA</text><line style="stroke: #0000FF; stroke-width: 1.0;" x1="492.5" x2="517.5" y1="316.874" y2="316.874"/></a><polygon fill="#FEFECE" filter="url(#f18qb3kv2zpqnc)" points="365,243.499,645,243.499,657,255.499,645,267.499,365,267.499,353,255.499,365,243.499" style="stroke: #A80036; stroke-width: 1.5;"/><text fill="#000000" font-family="sans-serif" font-size="11" lengthAdjust="spacingAndGlyphs" textLength="13" x="509" y="278.918">No</text><text fill="#000000" font-family="sans-serif" font-size="11" lengthAdjust="spacingAndGlyphs" textLength="280" x="365" y="260">Does light on transmitter flash when pushing ANY button?</text><text fill="#000000" font-family="sans-serif" font-size="11" lengthAdjust="spacingAndGlyphs" textLength="20" x="657" y="253.082">Yes</text><polygon fill="#FEFECE" filter="url(#f18qb3kv2zpqnc)" points="505,347.5107,517,359.5107,505,371.5107,493,359.5107,505,347.5107" style="stroke: #A80036; stroke-width: 1.5;"/><polygon fill="#FEFECE" filter="url(#f18qb3kv2zpqnc)" points="365,139.4873,645,139.4873,657,151.4873,645,163.4873,365,163.4873,353,151.4873,365,139.4873" style="stroke: #A80036; stroke-width: 1.5;"/><text fill="#000000" font-family="sans-serif" font-size="11" lengthAdjust="spacingAndGlyphs" textLength="13" x="509" y="174.9063">No</text><text fill="#000000" font-family="sans-serif" font-size="11" lengthAdjust="spacingAndGlyphs" textLength="280" x="365" y="155.9883">Does light on transmitter flash when pushing ANY button?</text><text fill="#000000" font-family="sans-serif" font-size="11" lengthAdjust="spacingAndGlyphs" textLength="20" x="657" y="149.0703">Yes</text><polygon fill="#FEFECE" filter="url(#f18qb3kv2zpqnc)" points="505,391.5107,517,403.5107,505,415.5107,493,403.5107,505,391.5107" style="stroke: #A80036; stroke-width: 1.5;"/><polygon fill="#FEFECE" filter="url(#f18qb3kv2zpqnc)" points="335.25,421.5107,347.25,433.5107,335.25,445.5107,323.25,433.5107,335.25,421.5107" style="stroke: #A80036; stroke-width: 1.5;"/><rect fill="#FEFECE" filter="url(#f18qb3kv2zpqnc)" height="35.0938" rx="12.5" ry="12.5" style="stroke: #A80036; stroke-width: 1.5;" width="50" x="310.25" y="465.5107"/><text fill="#000000" font-family="sans-serif" font-size="12" lengthAdjust="spacingAndGlyphs" textLength="30" x="320.25" y="487.9678">Done</text><line style="stroke: #A80036; stroke-width: 1.5;" x1="165.5" x2="165.5" y1="93.3936" y2="118.3115"/><polygon fill="#A80036" points="161.5,108.3115,165.5,118.3115,169.5,108.3115,165.5,112.3115" style="stroke: #A80036; stroke-width: 1.0;"/><line style="stroke: #A80036; stroke-width: 1.5;" x1="311" x2="323" y1="81.3936" y2="81.3936"/><polygon fill="#A80036" points="319,125.8584,323,135.8584,327,125.8584,323,129.8584" style="stroke: #A80036; stroke-width: 1.5;"/><line style="stroke: #A80036; stroke-width: 1.5;" x1="323" x2="323" y1="81.3936" y2="190.3232"/><line style="stroke: #A80036; stroke-width: 1.5;" x1="323" x2="177.5" y1="190.3232" y2="190.3232"/><polygon fill="#A80036" points="187.5,186.3232,177.5,190.3232,187.5,194.3232,183.5,190.3232" style="stroke: #A80036; stroke-width: 1.0;"/><line style="stroke: #A80036; stroke-width: 1.5;" x1="165.5" x2="165.5" y1="153.4053" y2="178.3232"/><polygon fill="#A80036" points="161.5,168.3232,165.5,178.3232,169.5,168.3232,165.5,172.3232" style="stroke: #A80036; stroke-width: 1.0;"/><line style="stroke: #A80036; stroke-width: 1.5;" x1="505" x2="505" y1="267.499" y2="292.417"/><polygon fill="#A80036" points="501,282.417,505,292.417,509,282.417,505,286.417" style="stroke: #A80036; stroke-width: 1.0;"/><line style="stroke: #A80036; stroke-width: 1.5;" x1="657" x2="669" y1="255.499" y2="255.499"/><polygon fill="#A80036" points="665,299.9639,669,309.9639,673,299.9639,669,303.9639" style="stroke: #A80036; stroke-width: 1.5;"/><line style="stroke: #A80036; stroke-width: 1.5;" x1="669" x2="669" y1="255.499" y2="359.5107"/><line style="stroke: #A80036; stroke-width: 1.5;" x1="669" x2="517" y1="359.5107" y2="359.5107"/><polygon fill="#A80036" points="527,355.5107,517,359.5107,527,363.5107,523,359.5107" style="stroke: #A80036; stroke-width: 1.0;"/><line style="stroke: #A80036; stroke-width: 1.5;" x1="505" x2="505" y1="327.5107" y2="347.5107"/><polygon fill="#A80036" points="501,337.5107,505,347.5107,509,337.5107,505,341.5107" style="stroke: #A80036; stroke-width: 1.0;"/><line style="stroke: #A80036; stroke-width: 1.5;" x1="505" x2="505" y1="223.499" y2="243.499"/><polygon fill="#A80036" points="501,233.499,505,243.499,509,233.499,505,237.499" style="stroke: #A80036; stroke-width: 1.0;"/><line style="stroke: #A80036; stroke-width: 1.5;" x1="505" x2="505" y1="163.4873" y2="188.4053"/><polygon fill="#A80036" points="501,178.4053,505,188.4053,509,178.4053,505,182.4053" style="stroke: #A80036; stroke-width: 1.0;"/><line style="stroke: #A80036; stroke-width: 1.5;" x1="657" x2="679" y1="151.4873" y2="151.4873"/><polygon fill="#A80036" points="675,264.917,679,274.917,683,264.917,679,268.917" style="stroke: #A80036; stroke-width: 1.5;"/><line style="stroke: #A80036; stroke-width: 1.5;" x1="679" x2="679" y1="151.4873" y2="403.5107"/><line style="stroke: #A80036; stroke-width: 1.5;" x1="679" x2="517" y1="403.5107" y2="403.5107"/><polygon fill="#A80036" points="527,399.5107,517,403.5107,527,407.5107,523,403.5107" style="stroke: #A80036; stroke-width: 1.0;"/><line style="stroke: #A80036; stroke-width: 1.5;" x1="505" x2="505" y1="371.5107" y2="391.5107"/><polygon fill="#A80036" points="501,381.5107,505,391.5107,509,381.5107,505,385.5107" style="stroke: #A80036; stroke-width: 1.0;"/><line style="stroke: #A80036; stroke-width: 1.5;" x1="505" x2="505" y1="104.4873" y2="139.4873"/><polygon fill="#A80036" points="501,129.4873,505,139.4873,509,129.4873,505,133.4873" style="stroke: #A80036; stroke-width: 1.0;"/><line style="stroke: #A80036; stroke-width: 1.5;" x1="183.25" x2="165.5" y1="47.3936" y2="47.3936"/><line style="stroke: #A80036; stroke-width: 1.5;" x1="165.5" x2="165.5" y1="47.3936" y2="69.3936"/><polygon fill="#A80036" points="161.5,59.3936,165.5,69.3936,169.5,59.3936,165.5,63.3936" style="stroke: #A80036; stroke-width: 1.0;"/><line style="stroke: #A80036; stroke-width: 1.5;" x1="487.25" x2="505" y1="47.3936" y2="47.3936"/><line style="stroke: #A80036; stroke-width: 1.5;" x1="505" x2="505" y1="47.3936" y2="69.3936"/><polygon fill="#A80036" points="501,59.3936,505,69.3936,509,59.3936,505,63.3936" style="stroke: #A80036; stroke-width: 1.0;"/><line style="stroke: #A80036; stroke-width: 1.5;" x1="165.5" x2="165.5" y1="202.3232" y2="433.5107"/><line style="stroke: #A80036; stroke-width: 1.5;" x1="165.5" x2="323.25" y1="433.5107" y2="433.5107"/><polygon fill="#A80036" points="313.25,429.5107,323.25,433.5107,313.25,437.5107,317.25,433.5107" style="stroke: #A80036; stroke-width: 1.0;"/><line style="stroke: #A80036; stroke-width: 1.5;" x1="505" x2="505" y1="415.5107" y2="433.5107"/><line style="stroke: #A80036; stroke-width: 1.5;" x1="505" x2="347.25" y1="433.5107" y2="433.5107"/><polygon fill="#A80036" points="357.25,429.5107,347.25,433.5107,357.25,437.5107,353.25,433.5107" style="stroke: #A80036; stroke-width: 1.0;"/><line style="stroke: #A80036; stroke-width: 1.5;" x1="335.25" x2="335.25" y1="445.5107" y2="465.5107"/><polygon fill="#A80036" points="331.25,455.5107,335.25,465.5107,339.25,455.5107,335.25,459.5107" style="stroke: #A80036; stroke-width: 1.0;"/><!--
@startuml
title Check Batteries
if (Does light on transmitter flash when pushing ANY button?) then (Yes)
    if (Does light flash rapidly several times or slowly 3 times?) then (Rapidly)
    else (Slowly)
        :Replace Batteries;
    endif
else (No)
    :Replace batteries;
    if (Does light on transmitter flash when pushing ANY button?) then (Yes)
    else (No)
        :Verify battery orientation;
        if (Does light on transmitter flash when pushing ANY button?) then (Yes)
        else (No)
            :[[http://rfhero.com/request-rma.php RMA]];
        endif
    endif
endif
:Done;
@enduml

PlantUML version 1.2019.00(Sun Jan 13 10:46:42 EST 2019)
(GPL source distribution)
Java Runtime: Java(TM) SE Runtime Environment
JVM: Java HotSpot(TM) Client VM
Java Version: 1.8.0_191-b12
Operating System: Windows 10
OS Version: 10.0
Default Encoding: Cp1252
Language: en
Country: US
--></g></svg>