<?xml version="1.0" encoding="UTF-8" standalone="no"?><svg xmlns="http://www.w3.org/2000/svg" xmlns:xlink="http://www.w3.org/1999/xlink" contentScriptType="application/ecmascript" contentStyleType="text/css" height="259px" preserveAspectRatio="none" style="width:1091px;height:259px;" version="1.1" viewBox="0 0 1091 259" width="1091px" zoomAndPan="magnify"><defs><filter height="300%" id="fc6y7z7m3qu8j" width="300%" x="-1" y="-1"><feGaussianBlur result="blurOut" stdDeviation="2.0"/><feColorMatrix in="blurOut" result="blurOut2" type="matrix" values="0 0 0 0 0 0 0 0 0 0 0 0 0 0 0 0 0 0 .4 0"/><feOffset dx="4.0" dy="4.0" in="blurOut2" result="blurOut3"/><feBlend in="SourceGraphic" in2="blurOut3" mode="normal"/></filter></defs><g><text fill="#000000" font-family="sans-serif" font-size="18" lengthAdjust="spacingAndGlyphs" textLength="209" x="440.25" y="26.708">Button Troubleshooting</text><polygon fill="#FEFECE" filter="url(#fc6y7z7m3qu8j)" points="394,32.8521,698,32.8521,710,44.8521,698,56.8521,394,56.8521,382,44.8521,394,32.8521" style="stroke: #A80036; stroke-width: 1.5;"/><text fill="#000000" font-family="sans-serif" font-size="11" lengthAdjust="spacingAndGlyphs" textLength="304" x="394" y="48.6602">Does light on transmitter flash when pushing button?</text><text fill="#000000" font-family="sans-serif" font-size="11" lengthAdjust="spacingAndGlyphs" textLength="21" x="361" y="42.2578">Yes</text><text fill="#000000" font-family="sans-serif" font-size="11" lengthAdjust="spacingAndGlyphs" textLength="15" x="710" y="42.2578">No</text><polygon fill="#FEFECE" filter="url(#fc6y7z7m3qu8j)" points="105.5,66.8521,426.5,66.8521,438.5,78.8521,426.5,90.8521,105.5,90.8521,93.5,78.8521,105.5,66.8521" style="stroke: #A80036; stroke-width: 1.5;"/><text fill="#000000" font-family="sans-serif" font-size="11" lengthAdjust="spacingAndGlyphs" textLength="321" x="105.5" y="82.6602">Does light flash rapidly several times or slowly 3 times?</text><text fill="#000000" font-family="sans-serif" font-size="11" lengthAdjust="spacingAndGlyphs" textLength="40" x="53.5" y="76.2578">Rapidly</text><text fill="#000000" font-family="sans-serif" font-size="11" lengthAdjust="spacingAndGlyphs" textLength="36" x="438.5" y="76.2578">Slowly</text><rect fill="#FEFECE" filter="url(#fc6y7z7m3qu8j)" height="33.9688" rx="12.5" ry="12.5" style="stroke: #A80036; stroke-width: 1.5;" width="147" x="10" y="100.8521"/><a target="_top" xlink:actuate="onRequest" xlink:href="rxverification.html" xlink:show="new" xlink:title="rxverification.html" xlink:type="simple"><text fill="#0000FF" font-family="sans-serif" font-size="12" lengthAdjust="spacingAndGlyphs" text-decoration="underline" textLength="127" x="20" y="121.9907">Receiver Verification</text><line style="stroke: #0000FF; stroke-width: 1.0;" x1="20" x2="147" y1="123.9907" y2="123.9907"/></a><rect fill="#FEFECE" filter="url(#fc6y7z7m3qu8j)" height="33.9688" rx="12.5" ry="12.5" style="stroke: #A80036; stroke-width: 1.5;" width="131" x="383" y="100.8521"/><text fill="#000000" font-family="sans-serif" font-size="12" lengthAdjust="spacingAndGlyphs" textLength="111" x="393" y="121.9907">Replace Batteries</text><polygon fill="#FEFECE" filter="url(#fc6y7z7m3qu8j)" points="266,140.8208,278,152.8208,266,164.8208,254,152.8208,266,140.8208" style="stroke: #A80036; stroke-width: 1.5;"/><polygon fill="#FEFECE" filter="url(#fc6y7z7m3qu8j)" points="653,66.8521,999,66.8521,1011,78.8521,999,90.8521,653,90.8521,641,78.8521,653,66.8521" style="stroke: #A80036; stroke-width: 1.5;"/><text fill="#000000" font-family="sans-serif" font-size="11" lengthAdjust="spacingAndGlyphs" textLength="346" x="653" y="82.6602">Does light on transmitter flash when pushing OTHER button?</text><text fill="#000000" font-family="sans-serif" font-size="11" lengthAdjust="spacingAndGlyphs" textLength="21" x="620" y="76.2578">Yes</text><text fill="#000000" font-family="sans-serif" font-size="11" lengthAdjust="spacingAndGlyphs" textLength="15" x="1011" y="76.2578">No</text><rect fill="#FEFECE" filter="url(#fc6y7z7m3qu8j)" height="33.9688" rx="12.5" ry="12.5" style="stroke: #A80036; stroke-width: 1.5;" width="154" x="554" y="100.8521"/><a target="_top" xlink:actuate="onRequest" xlink:href="http://rfhero.com/request-rma.php" xlink:show="new" xlink:title="http://rfhero.com/request-rma.php" xlink:type="simple"><text fill="#0000FF" font-family="sans-serif" font-size="12" lengthAdjust="spacingAndGlyphs" text-decoration="underline" textLength="134" x="564" y="121.9907">Send for repair (RMA)</text><line style="stroke: #0000FF; stroke-width: 1.0;" x1="564" x2="698" y1="123.9907" y2="123.9907"/></a><rect fill="#FEFECE" filter="url(#fc6y7z7m3qu8j)" height="33.9688" rx="12.5" ry="12.5" style="stroke: #A80036; stroke-width: 1.5;" width="119" x="961.5" y="100.8521"/><a target="_top" xlink:actuate="onRequest" xlink:href="batteries.html" xlink:show="new" xlink:title="batteries.html" xlink:type="simple"><text fill="#0000FF" font-family="sans-serif" font-size="12" lengthAdjust="spacingAndGlyphs" text-decoration="underline" textLength="99" x="971.5" y="121.9907">Check Batteries</text><line style="stroke: #0000FF; stroke-width: 1.0;" x1="971.5" x2="1070.5" y1="123.9907" y2="123.9907"/></a><polygon fill="#FEFECE" filter="url(#fc6y7z7m3qu8j)" points="826,140.8208,838,152.8208,826,164.8208,814,152.8208,826,140.8208" style="stroke: #A80036; stroke-width: 1.5;"/><polygon fill="#FEFECE" filter="url(#fc6y7z7m3qu8j)" points="546,170.8208,558,182.8208,546,194.8208,534,182.8208,546,170.8208" style="stroke: #A80036; stroke-width: 1.5;"/><rect fill="#FEFECE" filter="url(#fc6y7z7m3qu8j)" height="33.9688" rx="12.5" ry="12.5" style="stroke: #A80036; stroke-width: 1.5;" width="53" x="519.5" y="214.8208"/><text fill="#000000" font-family="sans-serif" font-size="12" lengthAdjust="spacingAndGlyphs" textLength="33" x="529.5" y="235.9595">Done</text><line style="stroke: #A80036; stroke-width: 1.5;" x1="93.5" x2="83.5" y1="78.8521" y2="78.8521"/><line style="stroke: #A80036; stroke-width: 1.5;" x1="83.5" x2="83.5" y1="78.8521" y2="100.8521"/><polygon fill="#A80036" points="79.5,90.8521,83.5,100.8521,87.5,90.8521,83.5,94.8521" style="stroke: #A80036; stroke-width: 1.0;"/><line style="stroke: #A80036; stroke-width: 1.5;" x1="438.5" x2="448.5" y1="78.8521" y2="78.8521"/><line style="stroke: #A80036; stroke-width: 1.5;" x1="448.5" x2="448.5" y1="78.8521" y2="100.8521"/><polygon fill="#A80036" points="444.5,90.8521,448.5,100.8521,452.5,90.8521,448.5,94.8521" style="stroke: #A80036; stroke-width: 1.0;"/><line style="stroke: #A80036; stroke-width: 1.5;" x1="83.5" x2="83.5" y1="134.8208" y2="152.8208"/><line style="stroke: #A80036; stroke-width: 1.5;" x1="83.5" x2="254" y1="152.8208" y2="152.8208"/><polygon fill="#A80036" points="244,148.8208,254,152.8208,244,156.8208,248,152.8208" style="stroke: #A80036; stroke-width: 1.0;"/><line style="stroke: #A80036; stroke-width: 1.5;" x1="448.5" x2="448.5" y1="134.8208" y2="152.8208"/><line style="stroke: #A80036; stroke-width: 1.5;" x1="448.5" x2="278" y1="152.8208" y2="152.8208"/><polygon fill="#A80036" points="288,148.8208,278,152.8208,288,156.8208,284,152.8208" style="stroke: #A80036; stroke-width: 1.0;"/><line style="stroke: #A80036; stroke-width: 1.5;" x1="641" x2="631" y1="78.8521" y2="78.8521"/><line style="stroke: #A80036; stroke-width: 1.5;" x1="631" x2="631" y1="78.8521" y2="100.8521"/><polygon fill="#A80036" points="627,90.8521,631,100.8521,635,90.8521,631,94.8521" style="stroke: #A80036; stroke-width: 1.0;"/><line style="stroke: #A80036; stroke-width: 1.5;" x1="1011" x2="1021" y1="78.8521" y2="78.8521"/><line style="stroke: #A80036; stroke-width: 1.5;" x1="1021" x2="1021" y1="78.8521" y2="100.8521"/><polygon fill="#A80036" points="1017,90.8521,1021,100.8521,1025,90.8521,1021,94.8521" style="stroke: #A80036; stroke-width: 1.0;"/><line style="stroke: #A80036; stroke-width: 1.5;" x1="631" x2="631" y1="134.8208" y2="152.8208"/><line style="stroke: #A80036; stroke-width: 1.5;" x1="631" x2="814" y1="152.8208" y2="152.8208"/><polygon fill="#A80036" points="804,148.8208,814,152.8208,804,156.8208,808,152.8208" style="stroke: #A80036; stroke-width: 1.0;"/><line style="stroke: #A80036; stroke-width: 1.5;" x1="1021" x2="1021" y1="134.8208" y2="152.8208"/><line style="stroke: #A80036; stroke-width: 1.5;" x1="1021" x2="838" y1="152.8208" y2="152.8208"/><polygon fill="#A80036" points="848,148.8208,838,152.8208,848,156.8208,844,152.8208" style="stroke: #A80036; stroke-width: 1.0;"/><line style="stroke: #A80036; stroke-width: 1.5;" x1="382" x2="266" y1="44.8521" y2="44.8521"/><line style="stroke: #A80036; stroke-width: 1.5;" x1="266" x2="266" y1="44.8521" y2="66.8521"/><polygon fill="#A80036" points="262,56.8521,266,66.8521,270,56.8521,266,60.8521" style="stroke: #A80036; stroke-width: 1.0;"/><line style="stroke: #A80036; stroke-width: 1.5;" x1="710" x2="826" y1="44.8521" y2="44.8521"/><line style="stroke: #A80036; stroke-width: 1.5;" x1="826" x2="826" y1="44.8521" y2="66.8521"/><polygon fill="#A80036" points="822,56.8521,826,66.8521,830,56.8521,826,60.8521" style="stroke: #A80036; stroke-width: 1.0;"/><line style="stroke: #A80036; stroke-width: 1.5;" x1="266" x2="266" y1="164.8208" y2="182.8208"/><line style="stroke: #A80036; stroke-width: 1.5;" x1="266" x2="534" y1="182.8208" y2="182.8208"/><polygon fill="#A80036" points="524,178.8208,534,182.8208,524,186.8208,528,182.8208" style="stroke: #A80036; stroke-width: 1.0;"/><line style="stroke: #A80036; stroke-width: 1.5;" x1="826" x2="826" y1="164.8208" y2="182.8208"/><line style="stroke: #A80036; stroke-width: 1.5;" x1="826" x2="558" y1="182.8208" y2="182.8208"/><polygon fill="#A80036" points="568,178.8208,558,182.8208,568,186.8208,564,182.8208" style="stroke: #A80036; stroke-width: 1.0;"/><line style="stroke: #A80036; stroke-width: 1.5;" x1="546" x2="546" y1="194.8208" y2="214.8208"/><polygon fill="#A80036" points="542,204.8208,546,214.8208,550,204.8208,546,208.8208" style="stroke: #A80036; stroke-width: 1.0;"/><!--
@startuml
title Button Troubleshooting
if (Does light on transmitter flash when pushing button?) then (Yes)
    if (Does light flash rapidly several times or slowly 3 times?) then (Rapidly)
        :[[rxverification.html Receiver Verification]];
    else (Slowly)
        :Replace Batteries;
    endif
else (No)
    if (Does light on transmitter flash when pushing OTHER button?) then (Yes)
        :[[http://rfhero.com/request-rma.php Send for repair (RMA)]];
    else (No)
        :[[batteries.html Check Batteries]];
    endif
endif
:Done;
@enduml

PlantUML version 1.2019.00(Sun Jan 13 10:46:42 EST 2019)
(GPL source distribution)
Java Runtime: OpenJDK Runtime Environment
JVM: OpenJDK 64-Bit Server VM
Java Version: 10.0.2+13-Ubuntu-1ubuntu0.18.04.4
Operating System: Linux
OS Version: 4.15.0-46-generic
Default Encoding: UTF-8
Language: en
Country: US
--></g></svg>