<?xml version="1.0" encoding="UTF-8" standalone="no"?><svg xmlns="http://www.w3.org/2000/svg" xmlns:xlink="http://www.w3.org/1999/xlink" contentScriptType="application/ecmascript" contentStyleType="text/css" height="264px" preserveAspectRatio="none" style="width:956px;height:264px;" version="1.1" viewBox="0 0 956 264" width="956px" zoomAndPan="magnify"><defs><filter height="300%" id="f15xpu2g5djth9" width="300%" x="-1" y="-1"><feGaussianBlur result="blurOut" stdDeviation="2.0"/><feColorMatrix in="blurOut" result="blurOut2" type="matrix" values="0 0 0 0 0 0 0 0 0 0 0 0 0 0 0 0 0 0 .4 0"/><feOffset dx="4.0" dy="4.0" in="blurOut2" result="blurOut3"/><feBlend in="SourceGraphic" in2="blurOut3" mode="normal"/></filter></defs><g><text fill="#000000" font-family="sans-serif" font-size="18" lengthAdjust="spacingAndGlyphs" textLength="187" x="383.5" y="28.6855">Button Troubleshooting</text><polygon fill="#FEFECE" filter="url(#f15xpu2g5djth9)" points="374.75,35.3936,628.75,35.3936,640.75,47.3936,628.75,59.3936,374.75,59.3936,362.75,47.3936,374.75,35.3936" style="stroke: #A80036; stroke-width: 1.5;"/><text fill="#000000" font-family="sans-serif" font-size="11" lengthAdjust="spacingAndGlyphs" textLength="254" x="374.75" y="51.8945">Does light on transmitter flash when pushing button?</text><text fill="#000000" font-family="sans-serif" font-size="11" lengthAdjust="spacingAndGlyphs" textLength="20" x="342.75" y="44.9766">Yes</text><text fill="#000000" font-family="sans-serif" font-size="11" lengthAdjust="spacingAndGlyphs" textLength="13" x="640.75" y="44.9766">No</text><polygon fill="#FEFECE" filter="url(#f15xpu2g5djth9)" points="146,69.3936,413,69.3936,425,81.3936,413,93.3936,146,93.3936,134,81.3936,146,69.3936" style="stroke: #A80036; stroke-width: 1.5;"/><text fill="#000000" font-family="sans-serif" font-size="11" lengthAdjust="spacingAndGlyphs" textLength="267" x="146" y="85.8945">Does light flash rapidly several times or slowly 3 times?</text><text fill="#000000" font-family="sans-serif" font-size="11" lengthAdjust="spacingAndGlyphs" textLength="35" x="99" y="78.9766">Rapidly</text><text fill="#000000" font-family="sans-serif" font-size="11" lengthAdjust="spacingAndGlyphs" textLength="33" x="425" y="78.9766">Slowly</text><rect fill="#FEFECE" filter="url(#f15xpu2g5djth9)" height="35.0938" rx="12.5" ry="12.5" style="stroke: #A80036; stroke-width: 1.5;" width="228" x="10" y="103.3936"/><text fill="#000000" font-family="sans-serif" font-size="12" lengthAdjust="spacingAndGlyphs" textLength="208" x="20" y="125.8506">Troubleshoot Communications *TBD*</text><rect fill="#FEFECE" filter="url(#f15xpu2g5djth9)" height="35.0938" rx="12.5" ry="12.5" style="stroke: #A80036; stroke-width: 1.5;" width="118" x="376" y="103.3936"/><text fill="#000000" font-family="sans-serif" font-size="12" lengthAdjust="spacingAndGlyphs" textLength="98" x="386" y="125.8506">Replace Batteries</text><polygon fill="#FEFECE" filter="url(#f15xpu2g5djth9)" points="279.5,144.4873,291.5,156.4873,279.5,168.4873,267.5,156.4873,279.5,144.4873" style="stroke: #A80036; stroke-width: 1.5;"/><polygon fill="#FEFECE" filter="url(#f15xpu2g5djth9)" points="578.5,69.3936,869.5,69.3936,881.5,81.3936,869.5,93.3936,578.5,93.3936,566.5,81.3936,578.5,69.3936" style="stroke: #A80036; stroke-width: 1.5;"/><text fill="#000000" font-family="sans-serif" font-size="11" lengthAdjust="spacingAndGlyphs" textLength="291" x="578.5" y="85.8945">Does light on transmitter flash when pushing OTHER button?</text><text fill="#000000" font-family="sans-serif" font-size="11" lengthAdjust="spacingAndGlyphs" textLength="20" x="546.5" y="78.9766">Yes</text><text fill="#000000" font-family="sans-serif" font-size="11" lengthAdjust="spacingAndGlyphs" textLength="13" x="881.5" y="78.9766">No</text><rect fill="#FEFECE" filter="url(#f15xpu2g5djth9)" height="35.0938" rx="12.5" ry="12.5" style="stroke: #A80036; stroke-width: 1.5;" width="45" x="534" y="103.3936"/><a target="_top" xlink:actuate="onRequest" xlink:href="http://rfhero.com/request-rma.php" xlink:show="new" xlink:title="http://rfhero.com/request-rma.php" xlink:type="simple"><text fill="#0000FF" font-family="sans-serif" font-size="12" lengthAdjust="spacingAndGlyphs" text-decoration="underline" textLength="25" x="544" y="125.8506">RMA</text><line style="stroke: #0000FF; stroke-width: 1.0;" x1="544" x2="569" y1="127.8506" y2="127.8506"/></a><rect fill="#FEFECE" filter="url(#f15xpu2g5djth9)" height="35.0938" rx="12.5" ry="12.5" style="stroke: #A80036; stroke-width: 1.5;" width="107" x="838" y="103.3936"/><a target="_top" xlink:actuate="onRequest" xlink:href="batteries.html" xlink:show="new" xlink:title="batteries.html" xlink:type="simple"><text fill="#0000FF" font-family="sans-serif" font-size="12" lengthAdjust="spacingAndGlyphs" text-decoration="underline" textLength="87" x="848" y="125.8506">Check Batteries</text><line style="stroke: #0000FF; stroke-width: 1.0;" x1="848" x2="935" y1="127.8506" y2="127.8506"/></a><polygon fill="#FEFECE" filter="url(#f15xpu2g5djth9)" points="724,144.4873,736,156.4873,724,168.4873,712,156.4873,724,144.4873" style="stroke: #A80036; stroke-width: 1.5;"/><polygon fill="#FEFECE" filter="url(#f15xpu2g5djth9)" points="501.75,174.4873,513.75,186.4873,501.75,198.4873,489.75,186.4873,501.75,174.4873" style="stroke: #A80036; stroke-width: 1.5;"/><rect fill="#FEFECE" filter="url(#f15xpu2g5djth9)" height="35.0938" rx="12.5" ry="12.5" style="stroke: #A80036; stroke-width: 1.5;" width="50" x="476.75" y="218.4873"/><text fill="#000000" font-family="sans-serif" font-size="12" lengthAdjust="spacingAndGlyphs" textLength="30" x="486.75" y="240.9443">Done</text><line style="stroke: #A80036; stroke-width: 1.5;" x1="134" x2="124" y1="81.3936" y2="81.3936"/><line style="stroke: #A80036; stroke-width: 1.5;" x1="124" x2="124" y1="81.3936" y2="103.3936"/><polygon fill="#A80036" points="120,93.3936,124,103.3936,128,93.3936,124,97.3936" style="stroke: #A80036; stroke-width: 1.0;"/><line style="stroke: #A80036; stroke-width: 1.5;" x1="425" x2="435" y1="81.3936" y2="81.3936"/><line style="stroke: #A80036; stroke-width: 1.5;" x1="435" x2="435" y1="81.3936" y2="103.3936"/><polygon fill="#A80036" points="431,93.3936,435,103.3936,439,93.3936,435,97.3936" style="stroke: #A80036; stroke-width: 1.0;"/><line style="stroke: #A80036; stroke-width: 1.5;" x1="124" x2="124" y1="138.4873" y2="156.4873"/><line style="stroke: #A80036; stroke-width: 1.5;" x1="124" x2="267.5" y1="156.4873" y2="156.4873"/><polygon fill="#A80036" points="257.5,152.4873,267.5,156.4873,257.5,160.4873,261.5,156.4873" style="stroke: #A80036; stroke-width: 1.0;"/><line style="stroke: #A80036; stroke-width: 1.5;" x1="435" x2="435" y1="138.4873" y2="156.4873"/><line style="stroke: #A80036; stroke-width: 1.5;" x1="435" x2="291.5" y1="156.4873" y2="156.4873"/><polygon fill="#A80036" points="301.5,152.4873,291.5,156.4873,301.5,160.4873,297.5,156.4873" style="stroke: #A80036; stroke-width: 1.0;"/><line style="stroke: #A80036; stroke-width: 1.5;" x1="566.5" x2="556.5" y1="81.3936" y2="81.3936"/><line style="stroke: #A80036; stroke-width: 1.5;" x1="556.5" x2="556.5" y1="81.3936" y2="103.3936"/><polygon fill="#A80036" points="552.5,93.3936,556.5,103.3936,560.5,93.3936,556.5,97.3936" style="stroke: #A80036; stroke-width: 1.0;"/><line style="stroke: #A80036; stroke-width: 1.5;" x1="881.5" x2="891.5" y1="81.3936" y2="81.3936"/><line style="stroke: #A80036; stroke-width: 1.5;" x1="891.5" x2="891.5" y1="81.3936" y2="103.3936"/><polygon fill="#A80036" points="887.5,93.3936,891.5,103.3936,895.5,93.3936,891.5,97.3936" style="stroke: #A80036; stroke-width: 1.0;"/><line style="stroke: #A80036; stroke-width: 1.5;" x1="556.5" x2="556.5" y1="138.4873" y2="156.4873"/><line style="stroke: #A80036; stroke-width: 1.5;" x1="556.5" x2="712" y1="156.4873" y2="156.4873"/><polygon fill="#A80036" points="702,152.4873,712,156.4873,702,160.4873,706,156.4873" style="stroke: #A80036; stroke-width: 1.0;"/><line style="stroke: #A80036; stroke-width: 1.5;" x1="891.5" x2="891.5" y1="138.4873" y2="156.4873"/><line style="stroke: #A80036; stroke-width: 1.5;" x1="891.5" x2="736" y1="156.4873" y2="156.4873"/><polygon fill="#A80036" points="746,152.4873,736,156.4873,746,160.4873,742,156.4873" style="stroke: #A80036; stroke-width: 1.0;"/><line style="stroke: #A80036; stroke-width: 1.5;" x1="362.75" x2="279.5" y1="47.3936" y2="47.3936"/><line style="stroke: #A80036; stroke-width: 1.5;" x1="279.5" x2="279.5" y1="47.3936" y2="69.3936"/><polygon fill="#A80036" points="275.5,59.3936,279.5,69.3936,283.5,59.3936,279.5,63.3936" style="stroke: #A80036; stroke-width: 1.0;"/><line style="stroke: #A80036; stroke-width: 1.5;" x1="640.75" x2="724" y1="47.3936" y2="47.3936"/><line style="stroke: #A80036; stroke-width: 1.5;" x1="724" x2="724" y1="47.3936" y2="69.3936"/><polygon fill="#A80036" points="720,59.3936,724,69.3936,728,59.3936,724,63.3936" style="stroke: #A80036; stroke-width: 1.0;"/><line style="stroke: #A80036; stroke-width: 1.5;" x1="279.5" x2="279.5" y1="168.4873" y2="186.4873"/><line style="stroke: #A80036; stroke-width: 1.5;" x1="279.5" x2="489.75" y1="186.4873" y2="186.4873"/><polygon fill="#A80036" points="479.75,182.4873,489.75,186.4873,479.75,190.4873,483.75,186.4873" style="stroke: #A80036; stroke-width: 1.0;"/><line style="stroke: #A80036; stroke-width: 1.5;" x1="724" x2="724" y1="168.4873" y2="186.4873"/><line style="stroke: #A80036; stroke-width: 1.5;" x1="724" x2="513.75" y1="186.4873" y2="186.4873"/><polygon fill="#A80036" points="523.75,182.4873,513.75,186.4873,523.75,190.4873,519.75,186.4873" style="stroke: #A80036; stroke-width: 1.0;"/><line style="stroke: #A80036; stroke-width: 1.5;" x1="501.75" x2="501.75" y1="198.4873" y2="218.4873"/><polygon fill="#A80036" points="497.75,208.4873,501.75,218.4873,505.75,208.4873,501.75,212.4873" style="stroke: #A80036; stroke-width: 1.0;"/><!--
@startuml
title Button Troubleshooting
if (Does light on transmitter flash when pushing button?) then (Yes)
    if (Does light flash rapidly several times or slowly 3 times?) then (Rapidly)
        :Troubleshoot Communications *TBD*;
    else (Slowly)
        :Replace Batteries;
    endif
else (No)
    if (Does light on transmitter flash when pushing OTHER button?) then (Yes)
        :[[http://rfhero.com/request-rma.php RMA]];
    else (No)
        :[[batteries.html Check Batteries]];
    endif
endif
:Done;
@enduml

PlantUML version 1.2019.00(Sun Jan 13 10:46:42 EST 2019)
(GPL source distribution)
Java Runtime: Java(TM) SE Runtime Environment
JVM: Java HotSpot(TM) Client VM
Java Version: 1.8.0_191-b12
Operating System: Windows 10
OS Version: 10.0
Default Encoding: Cp1252
Language: en
Country: US
--></g></svg>