<?xml version="1.0" encoding="UTF-8" standalone="no"?><svg xmlns="http://www.w3.org/2000/svg" xmlns:xlink="http://www.w3.org/1999/xlink" contentScriptType="application/ecmascript" contentStyleType="text/css" height="259px" preserveAspectRatio="none" style="width:1143px;height:259px;" version="1.1" viewBox="0 0 1143 259" width="1143px" zoomAndPan="magnify"><defs><filter height="300%" id="fe5n9n0v5ah4y" width="300%" x="-1" y="-1"><feGaussianBlur result="blurOut" stdDeviation="2.0"/><feColorMatrix in="blurOut" result="blurOut2" type="matrix" values="0 0 0 0 0 0 0 0 0 0 0 0 0 0 0 0 0 0 .4 0"/><feOffset dx="4.0" dy="4.0" in="blurOut2" result="blurOut3"/><feBlend in="SourceGraphic" in2="blurOut3" mode="normal"/></filter></defs><g><text fill="#000000" font-family="sans-serif" font-size="18" lengthAdjust="spacingAndGlyphs" textLength="209" x="466" y="26.708">Button Troubleshooting</text><polygon fill="#FEFECE" filter="url(#fe5n9n0v5ah4y)" points="445.5,32.8521,749.5,32.8521,761.5,44.8521,749.5,56.8521,445.5,56.8521,433.5,44.8521,445.5,32.8521" style="stroke: #A80036; stroke-width: 1.5;"/><text fill="#000000" font-family="sans-serif" font-size="11" lengthAdjust="spacingAndGlyphs" textLength="304" x="445.5" y="48.6602">Does light on transmitter flash when pushing button?</text><text fill="#000000" font-family="sans-serif" font-size="11" lengthAdjust="spacingAndGlyphs" textLength="21" x="412.5" y="42.2578">Yes</text><text fill="#000000" font-family="sans-serif" font-size="11" lengthAdjust="spacingAndGlyphs" textLength="15" x="761.5" y="42.2578">No</text><polygon fill="#FEFECE" filter="url(#fe5n9n0v5ah4y)" points="157,66.8521,478,66.8521,490,78.8521,478,90.8521,157,90.8521,145,78.8521,157,66.8521" style="stroke: #A80036; stroke-width: 1.5;"/><text fill="#000000" font-family="sans-serif" font-size="11" lengthAdjust="spacingAndGlyphs" textLength="321" x="157" y="82.6602">Does light flash rapidly several times or slowly 3 times?</text><text fill="#000000" font-family="sans-serif" font-size="11" lengthAdjust="spacingAndGlyphs" textLength="40" x="105" y="76.2578">Rapidly</text><text fill="#000000" font-family="sans-serif" font-size="11" lengthAdjust="spacingAndGlyphs" textLength="36" x="490" y="76.2578">Slowly</text><rect fill="#FEFECE" filter="url(#fe5n9n0v5ah4y)" height="33.9688" rx="12.5" ry="12.5" style="stroke: #A80036; stroke-width: 1.5;" width="250" x="10" y="100.8521"/><text fill="#000000" font-family="sans-serif" font-size="12" lengthAdjust="spacingAndGlyphs" textLength="230" x="20" y="121.9907">Troubleshoot Communications *TBD*</text><rect fill="#FEFECE" filter="url(#fe5n9n0v5ah4y)" height="33.9688" rx="12.5" ry="12.5" style="stroke: #A80036; stroke-width: 1.5;" width="131" x="434.5" y="100.8521"/><text fill="#000000" font-family="sans-serif" font-size="12" lengthAdjust="spacingAndGlyphs" textLength="111" x="444.5" y="121.9907">Replace Batteries</text><polygon fill="#FEFECE" filter="url(#fe5n9n0v5ah4y)" points="317.5,140.8208,329.5,152.8208,317.5,164.8208,305.5,152.8208,317.5,140.8208" style="stroke: #A80036; stroke-width: 1.5;"/><polygon fill="#FEFECE" filter="url(#fe5n9n0v5ah4y)" points="704.5,66.8521,1050.5,66.8521,1062.5,78.8521,1050.5,90.8521,704.5,90.8521,692.5,78.8521,704.5,66.8521" style="stroke: #A80036; stroke-width: 1.5;"/><text fill="#000000" font-family="sans-serif" font-size="11" lengthAdjust="spacingAndGlyphs" textLength="346" x="704.5" y="82.6602">Does light on transmitter flash when pushing OTHER button?</text><text fill="#000000" font-family="sans-serif" font-size="11" lengthAdjust="spacingAndGlyphs" textLength="21" x="671.5" y="76.2578">Yes</text><text fill="#000000" font-family="sans-serif" font-size="11" lengthAdjust="spacingAndGlyphs" textLength="15" x="1062.5" y="76.2578">No</text><rect fill="#FEFECE" filter="url(#fe5n9n0v5ah4y)" height="33.9688" rx="12.5" ry="12.5" style="stroke: #A80036; stroke-width: 1.5;" width="154" x="605.5" y="100.8521"/><a target="_top" xlink:actuate="onRequest" xlink:href="http://rfhero.com/request-rma.php" xlink:show="new" xlink:title="http://rfhero.com/request-rma.php" xlink:type="simple"><text fill="#0000FF" font-family="sans-serif" font-size="12" lengthAdjust="spacingAndGlyphs" text-decoration="underline" textLength="134" x="615.5" y="121.9907">Send for repair (RMA)</text><line style="stroke: #0000FF; stroke-width: 1.0;" x1="615.5" x2="749.5" y1="123.9907" y2="123.9907"/></a><rect fill="#FEFECE" filter="url(#fe5n9n0v5ah4y)" height="33.9688" rx="12.5" ry="12.5" style="stroke: #A80036; stroke-width: 1.5;" width="119" x="1013" y="100.8521"/><a target="_top" xlink:actuate="onRequest" xlink:href="batteries.html" xlink:show="new" xlink:title="batteries.html" xlink:type="simple"><text fill="#0000FF" font-family="sans-serif" font-size="12" lengthAdjust="spacingAndGlyphs" text-decoration="underline" textLength="99" x="1023" y="121.9907">Check Batteries</text><line style="stroke: #0000FF; stroke-width: 1.0;" x1="1023" x2="1122" y1="123.9907" y2="123.9907"/></a><polygon fill="#FEFECE" filter="url(#fe5n9n0v5ah4y)" points="877.5,140.8208,889.5,152.8208,877.5,164.8208,865.5,152.8208,877.5,140.8208" style="stroke: #A80036; stroke-width: 1.5;"/><polygon fill="#FEFECE" filter="url(#fe5n9n0v5ah4y)" points="597.5,170.8208,609.5,182.8208,597.5,194.8208,585.5,182.8208,597.5,170.8208" style="stroke: #A80036; stroke-width: 1.5;"/><rect fill="#FEFECE" filter="url(#fe5n9n0v5ah4y)" height="33.9688" rx="12.5" ry="12.5" style="stroke: #A80036; stroke-width: 1.5;" width="53" x="571" y="214.8208"/><text fill="#000000" font-family="sans-serif" font-size="12" lengthAdjust="spacingAndGlyphs" textLength="33" x="581" y="235.9595">Done</text><line style="stroke: #A80036; stroke-width: 1.5;" x1="145" x2="135" y1="78.8521" y2="78.8521"/><line style="stroke: #A80036; stroke-width: 1.5;" x1="135" x2="135" y1="78.8521" y2="100.8521"/><polygon fill="#A80036" points="131,90.8521,135,100.8521,139,90.8521,135,94.8521" style="stroke: #A80036; stroke-width: 1.0;"/><line style="stroke: #A80036; stroke-width: 1.5;" x1="490" x2="500" y1="78.8521" y2="78.8521"/><line style="stroke: #A80036; stroke-width: 1.5;" x1="500" x2="500" y1="78.8521" y2="100.8521"/><polygon fill="#A80036" points="496,90.8521,500,100.8521,504,90.8521,500,94.8521" style="stroke: #A80036; stroke-width: 1.0;"/><line style="stroke: #A80036; stroke-width: 1.5;" x1="135" x2="135" y1="134.8208" y2="152.8208"/><line style="stroke: #A80036; stroke-width: 1.5;" x1="135" x2="305.5" y1="152.8208" y2="152.8208"/><polygon fill="#A80036" points="295.5,148.8208,305.5,152.8208,295.5,156.8208,299.5,152.8208" style="stroke: #A80036; stroke-width: 1.0;"/><line style="stroke: #A80036; stroke-width: 1.5;" x1="500" x2="500" y1="134.8208" y2="152.8208"/><line style="stroke: #A80036; stroke-width: 1.5;" x1="500" x2="329.5" y1="152.8208" y2="152.8208"/><polygon fill="#A80036" points="339.5,148.8208,329.5,152.8208,339.5,156.8208,335.5,152.8208" style="stroke: #A80036; stroke-width: 1.0;"/><line style="stroke: #A80036; stroke-width: 1.5;" x1="692.5" x2="682.5" y1="78.8521" y2="78.8521"/><line style="stroke: #A80036; stroke-width: 1.5;" x1="682.5" x2="682.5" y1="78.8521" y2="100.8521"/><polygon fill="#A80036" points="678.5,90.8521,682.5,100.8521,686.5,90.8521,682.5,94.8521" style="stroke: #A80036; stroke-width: 1.0;"/><line style="stroke: #A80036; stroke-width: 1.5;" x1="1062.5" x2="1072.5" y1="78.8521" y2="78.8521"/><line style="stroke: #A80036; stroke-width: 1.5;" x1="1072.5" x2="1072.5" y1="78.8521" y2="100.8521"/><polygon fill="#A80036" points="1068.5,90.8521,1072.5,100.8521,1076.5,90.8521,1072.5,94.8521" style="stroke: #A80036; stroke-width: 1.0;"/><line style="stroke: #A80036; stroke-width: 1.5;" x1="682.5" x2="682.5" y1="134.8208" y2="152.8208"/><line style="stroke: #A80036; stroke-width: 1.5;" x1="682.5" x2="865.5" y1="152.8208" y2="152.8208"/><polygon fill="#A80036" points="855.5,148.8208,865.5,152.8208,855.5,156.8208,859.5,152.8208" style="stroke: #A80036; stroke-width: 1.0;"/><line style="stroke: #A80036; stroke-width: 1.5;" x1="1072.5" x2="1072.5" y1="134.8208" y2="152.8208"/><line style="stroke: #A80036; stroke-width: 1.5;" x1="1072.5" x2="889.5" y1="152.8208" y2="152.8208"/><polygon fill="#A80036" points="899.5,148.8208,889.5,152.8208,899.5,156.8208,895.5,152.8208" style="stroke: #A80036; stroke-width: 1.0;"/><line style="stroke: #A80036; stroke-width: 1.5;" x1="433.5" x2="317.5" y1="44.8521" y2="44.8521"/><line style="stroke: #A80036; stroke-width: 1.5;" x1="317.5" x2="317.5" y1="44.8521" y2="66.8521"/><polygon fill="#A80036" points="313.5,56.8521,317.5,66.8521,321.5,56.8521,317.5,60.8521" style="stroke: #A80036; stroke-width: 1.0;"/><line style="stroke: #A80036; stroke-width: 1.5;" x1="761.5" x2="877.5" y1="44.8521" y2="44.8521"/><line style="stroke: #A80036; stroke-width: 1.5;" x1="877.5" x2="877.5" y1="44.8521" y2="66.8521"/><polygon fill="#A80036" points="873.5,56.8521,877.5,66.8521,881.5,56.8521,877.5,60.8521" style="stroke: #A80036; stroke-width: 1.0;"/><line style="stroke: #A80036; stroke-width: 1.5;" x1="317.5" x2="317.5" y1="164.8208" y2="182.8208"/><line style="stroke: #A80036; stroke-width: 1.5;" x1="317.5" x2="585.5" y1="182.8208" y2="182.8208"/><polygon fill="#A80036" points="575.5,178.8208,585.5,182.8208,575.5,186.8208,579.5,182.8208" style="stroke: #A80036; stroke-width: 1.0;"/><line style="stroke: #A80036; stroke-width: 1.5;" x1="877.5" x2="877.5" y1="164.8208" y2="182.8208"/><line style="stroke: #A80036; stroke-width: 1.5;" x1="877.5" x2="609.5" y1="182.8208" y2="182.8208"/><polygon fill="#A80036" points="619.5,178.8208,609.5,182.8208,619.5,186.8208,615.5,182.8208" style="stroke: #A80036; stroke-width: 1.0;"/><line style="stroke: #A80036; stroke-width: 1.5;" x1="597.5" x2="597.5" y1="194.8208" y2="214.8208"/><polygon fill="#A80036" points="593.5,204.8208,597.5,214.8208,601.5,204.8208,597.5,208.8208" style="stroke: #A80036; stroke-width: 1.0;"/><!--
@startuml
title Button Troubleshooting
if (Does light on transmitter flash when pushing button?) then (Yes)
    if (Does light flash rapidly several times or slowly 3 times?) then (Rapidly)
        :Troubleshoot Communications *TBD*;
    else (Slowly)
        :Replace Batteries;
    endif
else (No)
    if (Does light on transmitter flash when pushing OTHER button?) then (Yes)
        :[[http://rfhero.com/request-rma.php Send for repair (RMA)]];
    else (No)
        :[[batteries.html Check Batteries]];
    endif
endif
:Done;
@enduml

PlantUML version 1.2019.00(Sun Jan 13 10:46:42 EST 2019)
(GPL source distribution)
Java Runtime: OpenJDK Runtime Environment
JVM: OpenJDK 64-Bit Server VM
Java Version: 10.0.2+13-Ubuntu-1ubuntu0.18.04.4
Operating System: Linux
OS Version: 4.15.0-46-generic
Default Encoding: UTF-8
Language: en
Country: US
--></g></svg>