<?xml version="1.0" encoding="UTF-8" standalone="no"?><svg xmlns="http://www.w3.org/2000/svg" xmlns:xlink="http://www.w3.org/1999/xlink" contentScriptType="application/ecmascript" contentStyleType="text/css" height="433px" preserveAspectRatio="none" style="width:512px;height:433px;" version="1.1" viewBox="0 0 512 433" width="512px" zoomAndPan="magnify"><defs><filter height="300%" id="f1s6wqc5erzqn1" width="300%" x="-1" y="-1"><feGaussianBlur result="blurOut" stdDeviation="2.0"/><feColorMatrix in="blurOut" result="blurOut2" type="matrix" values="0 0 0 0 0 0 0 0 0 0 0 0 0 0 0 0 0 0 .4 0"/><feOffset dx="4.0" dy="4.0" in="blurOut2" result="blurOut3"/><feBlend in="SourceGraphic" in2="blurOut3" mode="normal"/></filter></defs><g><text fill="#000000" font-family="sans-serif" font-size="18" lengthAdjust="spacingAndGlyphs" textLength="81" x="214.5" y="28.6855">Fuse Test</text><rect fill="#FEFECE" filter="url(#f1s6wqc5erzqn1)" height="35.0938" rx="12.5" ry="12.5" style="stroke: #A80036; stroke-width: 1.5;" width="359" x="76" y="32.6406"/><text fill="#000000" font-family="sans-serif" font-size="12" lengthAdjust="spacingAndGlyphs" textLength="339" x="86" y="55.0977">Using a #1 Phillips screwdriver, remove the lid on the receiver.</text><rect fill="#FEFECE" filter="url(#f1s6wqc5erzqn1)" height="50.1875" rx="12.5" ry="12.5" style="stroke: #A80036; stroke-width: 1.5;" width="367" x="72" y="87.7344"/><text fill="#000000" font-family="sans-serif" font-size="12" lengthAdjust="spacingAndGlyphs" textLength="347" x="82" y="110.1914">Locate the fuses for the relays, spare fuse, and fuse tester LED.</text><a target="_top" xlink:actuate="onRequest" xlink:href="rx_components.jpg" xlink:show="new" xlink:title="rx_components.jpg" xlink:type="simple"><text fill="#0000FF" font-family="sans-serif" font-size="12" lengthAdjust="spacingAndGlyphs" text-decoration="underline" textLength="254" x="82" y="125.2852">Click here for help locating these components.</text><line style="stroke: #0000FF; stroke-width: 1.0;" x1="82" x2="336" y1="127.2852" y2="127.2852"/></a><rect fill="#FEFECE" filter="url(#f1s6wqc5erzqn1)" height="35.0938" rx="12.5" ry="12.5" style="stroke: #A80036; stroke-width: 1.5;" width="289" x="111" y="157.9219"/><text fill="#000000" font-family="sans-serif" font-size="12" lengthAdjust="spacingAndGlyphs" textLength="269" x="121" y="180.3789">Remove the fuse to be tested and the spare fuse.</text><rect fill="#FEFECE" filter="url(#f1s6wqc5erzqn1)" height="35.0938" rx="12.5" ry="12.5" style="stroke: #A80036; stroke-width: 1.5;" width="491" x="10" y="213.0156"/><text fill="#000000" font-family="sans-serif" font-size="12" lengthAdjust="spacingAndGlyphs" textLength="471" x="20" y="235.4727">Place the fuse to be tested into the spare fuse socket and observe the fuse tester LED.</text><polygon fill="#FEFECE" filter="url(#f1s6wqc5erzqn1)" points="209,268.1094,302,268.1094,314,280.1094,302,292.1094,209,292.1094,197,280.1094,209,268.1094" style="stroke: #A80036; stroke-width: 1.5;"/><text fill="#000000" font-family="sans-serif" font-size="11" lengthAdjust="spacingAndGlyphs" textLength="93" x="209" y="284.6104">Does the LED light?</text><text fill="#000000" font-family="sans-serif" font-size="11" lengthAdjust="spacingAndGlyphs" textLength="20" x="177" y="277.6924">Yes</text><text fill="#000000" font-family="sans-serif" font-size="11" lengthAdjust="spacingAndGlyphs" textLength="13" x="314" y="277.6924">No</text><rect fill="#FEFECE" filter="url(#f1s6wqc5erzqn1)" height="35.0938" rx="12.5" ry="12.5" style="stroke: #A80036; stroke-width: 1.5;" width="92" x="109.75" y="302.1094"/><text fill="#000000" font-family="sans-serif" font-size="12" lengthAdjust="spacingAndGlyphs" textLength="72" x="119.75" y="324.5664">Fuse is good</text><rect fill="#FEFECE" filter="url(#f1s6wqc5erzqn1)" height="35.0938" rx="12.5" ry="12.5" style="stroke: #A80036; stroke-width: 1.5;" width="267" x="221.75" y="302.1094"/><text fill="#000000" font-family="sans-serif" font-size="12" lengthAdjust="spacingAndGlyphs" textLength="136" x="231.75" y="324.5664">Replace fuse with spare.</text><a target="_top" xlink:actuate="onRequest" xlink:href="https://www.rfhero.net/accessories" xlink:show="new" xlink:title="https://www.rfhero.net/accessories" xlink:type="simple"><text fill="#0000FF" font-family="sans-serif" font-size="12" lengthAdjust="spacingAndGlyphs" text-decoration="underline" textLength="108" x="370.75" y="324.5664">(Order spare fuses)</text><line style="stroke: #0000FF; stroke-width: 1.0;" x1="370.75" x2="478.75" y1="326.5664" y2="326.5664"/></a><polygon fill="#FEFECE" filter="url(#f1s6wqc5erzqn1)" points="255.5,343.2031,267.5,355.2031,255.5,367.2031,243.5,355.2031,255.5,343.2031" style="stroke: #A80036; stroke-width: 1.5;"/><rect fill="#FEFECE" filter="url(#f1s6wqc5erzqn1)" height="35.0938" rx="12.5" ry="12.5" style="stroke: #A80036; stroke-width: 1.5;" width="50" x="230.5" y="387.2031"/><text fill="#000000" font-family="sans-serif" font-size="12" lengthAdjust="spacingAndGlyphs" textLength="30" x="240.5" y="409.6602">Done</text><line style="stroke: #A80036; stroke-width: 1.5;" x1="255.5" x2="255.5" y1="67.7344" y2="87.7344"/><polygon fill="#A80036" points="251.5,77.7344,255.5,87.7344,259.5,77.7344,255.5,81.7344" style="stroke: #A80036; stroke-width: 1.0;"/><line style="stroke: #A80036; stroke-width: 1.5;" x1="255.5" x2="255.5" y1="137.9219" y2="157.9219"/><polygon fill="#A80036" points="251.5,147.9219,255.5,157.9219,259.5,147.9219,255.5,151.9219" style="stroke: #A80036; stroke-width: 1.0;"/><line style="stroke: #A80036; stroke-width: 1.5;" x1="255.5" x2="255.5" y1="193.0156" y2="213.0156"/><polygon fill="#A80036" points="251.5,203.0156,255.5,213.0156,259.5,203.0156,255.5,207.0156" style="stroke: #A80036; stroke-width: 1.0;"/><line style="stroke: #A80036; stroke-width: 1.5;" x1="197" x2="155.75" y1="280.1094" y2="280.1094"/><line style="stroke: #A80036; stroke-width: 1.5;" x1="155.75" x2="155.75" y1="280.1094" y2="302.1094"/><polygon fill="#A80036" points="151.75,292.1094,155.75,302.1094,159.75,292.1094,155.75,296.1094" style="stroke: #A80036; stroke-width: 1.0;"/><line style="stroke: #A80036; stroke-width: 1.5;" x1="314" x2="355.25" y1="280.1094" y2="280.1094"/><line style="stroke: #A80036; stroke-width: 1.5;" x1="355.25" x2="355.25" y1="280.1094" y2="302.1094"/><polygon fill="#A80036" points="351.25,292.1094,355.25,302.1094,359.25,292.1094,355.25,296.1094" style="stroke: #A80036; stroke-width: 1.0;"/><line style="stroke: #A80036; stroke-width: 1.5;" x1="155.75" x2="155.75" y1="337.2031" y2="355.2031"/><line style="stroke: #A80036; stroke-width: 1.5;" x1="155.75" x2="243.5" y1="355.2031" y2="355.2031"/><polygon fill="#A80036" points="233.5,351.2031,243.5,355.2031,233.5,359.2031,237.5,355.2031" style="stroke: #A80036; stroke-width: 1.0;"/><line style="stroke: #A80036; stroke-width: 1.5;" x1="355.25" x2="355.25" y1="337.2031" y2="355.2031"/><line style="stroke: #A80036; stroke-width: 1.5;" x1="355.25" x2="267.5" y1="355.2031" y2="355.2031"/><polygon fill="#A80036" points="277.5,351.2031,267.5,355.2031,277.5,359.2031,273.5,355.2031" style="stroke: #A80036; stroke-width: 1.0;"/><line style="stroke: #A80036; stroke-width: 1.5;" x1="255.5" x2="255.5" y1="248.1094" y2="268.1094"/><polygon fill="#A80036" points="251.5,258.1094,255.5,268.1094,259.5,258.1094,255.5,262.1094" style="stroke: #A80036; stroke-width: 1.0;"/><line style="stroke: #A80036; stroke-width: 1.5;" x1="255.5" x2="255.5" y1="367.2031" y2="387.2031"/><polygon fill="#A80036" points="251.5,377.2031,255.5,387.2031,259.5,377.2031,255.5,381.2031" style="stroke: #A80036; stroke-width: 1.0;"/><!--
@startuml
title Fuse Test
:Using a #1 Phillips screwdriver, remove the lid on the receiver.;
:Locate the fuses for the relays, spare fuse, and fuse tester LED.\n[[rx_components.jpg Click here for help locating these components.]];
:Remove the fuse to be tested and the spare fuse.;
:Place the fuse to be tested into the spare fuse socket and observe the fuse tester LED.;
if (Does the LED light?) then (Yes)
    :Fuse is good;
else (No)
    :Replace fuse with spare. [[https://www.rfhero.net/accessories (Order spare fuses)]];
endif
:Done;
@enduml

PlantUML version 1.2019.00(Sun Jan 13 10:46:42 EST 2019)
(GPL source distribution)
Java Runtime: Java(TM) SE Runtime Environment
JVM: Java HotSpot(TM) Client VM
Java Version: 1.8.0_191-b12
Operating System: Windows 10
OS Version: 10.0
Default Encoding: Cp1252
Language: en
Country: US
--></g></svg>