<?xml version="1.0" encoding="UTF-8" standalone="no"?><svg xmlns="http://www.w3.org/2000/svg" xmlns:xlink="http://www.w3.org/1999/xlink" contentScriptType="application/ecmascript" contentStyleType="text/css" height="423px" preserveAspectRatio="none" style="width:594px;height:423px;" version="1.1" viewBox="0 0 594 423" width="594px" zoomAndPan="magnify"><defs><filter height="300%" id="f1s6wqc5erzqn1" width="300%" x="-1" y="-1"><feGaussianBlur result="blurOut" stdDeviation="2.0"/><feColorMatrix in="blurOut" result="blurOut2" type="matrix" values="0 0 0 0 0 0 0 0 0 0 0 0 0 0 0 0 0 0 .4 0"/><feOffset dx="4.0" dy="4.0" in="blurOut2" result="blurOut3"/><feBlend in="SourceGraphic" in2="blurOut3" mode="normal"/></filter></defs><g><text fill="#000000" font-family="sans-serif" font-size="18" lengthAdjust="spacingAndGlyphs" textLength="84" x="254" y="26.708">Fuse Test</text><rect fill="#FEFECE" filter="url(#f1s6wqc5erzqn1)" height="33.9688" rx="12.5" ry="12.5" style="stroke: #A80036; stroke-width: 1.5;" width="411" x="91" y="30.9531"/><text fill="#000000" font-family="sans-serif" font-size="12" lengthAdjust="spacingAndGlyphs" textLength="391" x="101" y="52.0918">Using a #1 Phillips screwdriver, remove the lid on the receiver.</text><rect fill="#FEFECE" filter="url(#f1s6wqc5erzqn1)" height="47.9375" rx="12.5" ry="12.5" style="stroke: #A80036; stroke-width: 1.5;" width="423" x="85" y="84.9219"/><text fill="#000000" font-family="sans-serif" font-size="12" lengthAdjust="spacingAndGlyphs" textLength="403" x="95" y="106.0605">Locate the fuses for the relays, spare fuse, and fuse tester LED.</text><a target="_top" xlink:actuate="onRequest" xlink:href="rx_components.jpg" xlink:show="new" xlink:title="rx_components.jpg" xlink:type="simple"><text fill="#0000FF" font-family="sans-serif" font-size="12" lengthAdjust="spacingAndGlyphs" text-decoration="underline" textLength="293" x="95" y="120.0293">Click here for help locating these components.</text><line style="stroke: #0000FF; stroke-width: 1.0;" x1="95" x2="388" y1="122.0293" y2="122.0293"/></a><rect fill="#FEFECE" filter="url(#f1s6wqc5erzqn1)" height="33.9688" rx="12.5" ry="12.5" style="stroke: #A80036; stroke-width: 1.5;" width="335" x="129" y="152.8594"/><text fill="#000000" font-family="sans-serif" font-size="12" lengthAdjust="spacingAndGlyphs" textLength="315" x="139" y="173.998">Remove the fuse to be tested and the spare fuse.</text><rect fill="#FEFECE" filter="url(#f1s6wqc5erzqn1)" height="33.9688" rx="12.5" ry="12.5" style="stroke: #A80036; stroke-width: 1.5;" width="573" x="10" y="206.8281"/><text fill="#000000" font-family="sans-serif" font-size="12" lengthAdjust="spacingAndGlyphs" textLength="553" x="20" y="227.9668">Place the fuse to be tested into the spare fuse socket and observe the fuse tester LED.</text><polygon fill="#FEFECE" filter="url(#f1s6wqc5erzqn1)" points="241.5,260.7969,351.5,260.7969,363.5,272.7969,351.5,284.7969,241.5,284.7969,229.5,272.7969,241.5,260.7969" style="stroke: #A80036; stroke-width: 1.5;"/><text fill="#000000" font-family="sans-serif" font-size="11" lengthAdjust="spacingAndGlyphs" textLength="110" x="241.5" y="276.605">Does the LED light?</text><text fill="#000000" font-family="sans-serif" font-size="11" lengthAdjust="spacingAndGlyphs" textLength="21" x="208.5" y="270.2026">Yes</text><text fill="#000000" font-family="sans-serif" font-size="11" lengthAdjust="spacingAndGlyphs" textLength="15" x="363.5" y="270.2026">No</text><rect fill="#FEFECE" filter="url(#f1s6wqc5erzqn1)" height="33.9688" rx="12.5" ry="12.5" style="stroke: #A80036; stroke-width: 1.5;" width="100" x="136.25" y="294.7969"/><text fill="#000000" font-family="sans-serif" font-size="12" lengthAdjust="spacingAndGlyphs" textLength="80" x="146.25" y="315.9355">Fuse is good</text><rect fill="#FEFECE" filter="url(#f1s6wqc5erzqn1)" height="33.9688" rx="12.5" ry="12.5" style="stroke: #A80036; stroke-width: 1.5;" width="301" x="256.25" y="294.7969"/><text fill="#000000" font-family="sans-serif" font-size="12" lengthAdjust="spacingAndGlyphs" textLength="154" x="266.25" y="315.9355">Replace fuse with spare.</text><a target="_top" xlink:actuate="onRequest" xlink:href="https://www.rfhero.net/accessories" xlink:show="new" xlink:title="https://www.rfhero.net/accessories" xlink:type="simple"><text fill="#0000FF" font-family="sans-serif" font-size="12" lengthAdjust="spacingAndGlyphs" text-decoration="underline" textLength="123" x="424.25" y="315.9355">(Order spare fuses)</text><line style="stroke: #0000FF; stroke-width: 1.0;" x1="424.25" x2="547.25" y1="317.9355" y2="317.9355"/></a><polygon fill="#FEFECE" filter="url(#f1s6wqc5erzqn1)" points="296.5,334.7656,308.5,346.7656,296.5,358.7656,284.5,346.7656,296.5,334.7656" style="stroke: #A80036; stroke-width: 1.5;"/><rect fill="#FEFECE" filter="url(#f1s6wqc5erzqn1)" height="33.9688" rx="12.5" ry="12.5" style="stroke: #A80036; stroke-width: 1.5;" width="53" x="270" y="378.7656"/><text fill="#000000" font-family="sans-serif" font-size="12" lengthAdjust="spacingAndGlyphs" textLength="33" x="280" y="399.9043">Done</text><line style="stroke: #A80036; stroke-width: 1.5;" x1="296.5" x2="296.5" y1="64.9219" y2="84.9219"/><polygon fill="#A80036" points="292.5,74.9219,296.5,84.9219,300.5,74.9219,296.5,78.9219" style="stroke: #A80036; stroke-width: 1.0;"/><line style="stroke: #A80036; stroke-width: 1.5;" x1="296.5" x2="296.5" y1="132.8594" y2="152.8594"/><polygon fill="#A80036" points="292.5,142.8594,296.5,152.8594,300.5,142.8594,296.5,146.8594" style="stroke: #A80036; stroke-width: 1.0;"/><line style="stroke: #A80036; stroke-width: 1.5;" x1="296.5" x2="296.5" y1="186.8281" y2="206.8281"/><polygon fill="#A80036" points="292.5,196.8281,296.5,206.8281,300.5,196.8281,296.5,200.8281" style="stroke: #A80036; stroke-width: 1.0;"/><line style="stroke: #A80036; stroke-width: 1.5;" x1="229.5" x2="186.25" y1="272.7969" y2="272.7969"/><line style="stroke: #A80036; stroke-width: 1.5;" x1="186.25" x2="186.25" y1="272.7969" y2="294.7969"/><polygon fill="#A80036" points="182.25,284.7969,186.25,294.7969,190.25,284.7969,186.25,288.7969" style="stroke: #A80036; stroke-width: 1.0;"/><line style="stroke: #A80036; stroke-width: 1.5;" x1="363.5" x2="406.75" y1="272.7969" y2="272.7969"/><line style="stroke: #A80036; stroke-width: 1.5;" x1="406.75" x2="406.75" y1="272.7969" y2="294.7969"/><polygon fill="#A80036" points="402.75,284.7969,406.75,294.7969,410.75,284.7969,406.75,288.7969" style="stroke: #A80036; stroke-width: 1.0;"/><line style="stroke: #A80036; stroke-width: 1.5;" x1="186.25" x2="186.25" y1="328.7656" y2="346.7656"/><line style="stroke: #A80036; stroke-width: 1.5;" x1="186.25" x2="284.5" y1="346.7656" y2="346.7656"/><polygon fill="#A80036" points="274.5,342.7656,284.5,346.7656,274.5,350.7656,278.5,346.7656" style="stroke: #A80036; stroke-width: 1.0;"/><line style="stroke: #A80036; stroke-width: 1.5;" x1="406.75" x2="406.75" y1="328.7656" y2="346.7656"/><line style="stroke: #A80036; stroke-width: 1.5;" x1="406.75" x2="308.5" y1="346.7656" y2="346.7656"/><polygon fill="#A80036" points="318.5,342.7656,308.5,346.7656,318.5,350.7656,314.5,346.7656" style="stroke: #A80036; stroke-width: 1.0;"/><line style="stroke: #A80036; stroke-width: 1.5;" x1="296.5" x2="296.5" y1="240.7969" y2="260.7969"/><polygon fill="#A80036" points="292.5,250.7969,296.5,260.7969,300.5,250.7969,296.5,254.7969" style="stroke: #A80036; stroke-width: 1.0;"/><line style="stroke: #A80036; stroke-width: 1.5;" x1="296.5" x2="296.5" y1="358.7656" y2="378.7656"/><polygon fill="#A80036" points="292.5,368.7656,296.5,378.7656,300.5,368.7656,296.5,372.7656" style="stroke: #A80036; stroke-width: 1.0;"/><!--
@startuml
title Fuse Test
:Using a #1 Phillips screwdriver, remove the lid on the receiver.;
:Locate the fuses for the relays, spare fuse, and fuse tester LED.\n[[rx_components.jpg Click here for help locating these components.]];
:Remove the fuse to be tested and the spare fuse.;
:Place the fuse to be tested into the spare fuse socket and observe the fuse tester LED.;
if (Does the LED light?) then (Yes)
    :Fuse is good;
else (No)
    :Replace fuse with spare. [[https://www.rfhero.net/accessories (Order spare fuses)]];
endif
:Done;
@enduml

PlantUML version 1.2019.00(Sun Jan 13 10:46:42 EST 2019)
(GPL source distribution)
Java Runtime: OpenJDK Runtime Environment
JVM: OpenJDK 64-Bit Server VM
Java Version: 10.0.2+13-Ubuntu-1ubuntu0.18.04.4
Operating System: Linux
OS Version: 4.15.0-46-generic
Default Encoding: UTF-8
Language: en
Country: US
--></g></svg>