<?xml version="1.0" encoding="UTF-8" standalone="no"?><svg xmlns="http://www.w3.org/2000/svg" xmlns:xlink="http://www.w3.org/1999/xlink" contentScriptType="application/ecmascript" contentStyleType="text/css" height="632px" preserveAspectRatio="none" style="width:670px;height:632px;" version="1.1" viewBox="0 0 670 632" width="670px" zoomAndPan="magnify"><defs><filter height="300%" id="frvrur17gs8nx" width="300%" x="-1" y="-1"><feGaussianBlur result="blurOut" stdDeviation="2.0"/><feColorMatrix in="blurOut" result="blurOut2" type="matrix" values="0 0 0 0 0 0 0 0 0 0 0 0 0 0 0 0 0 0 .4 0"/><feOffset dx="4.0" dy="4.0" in="blurOut2" result="blurOut3"/><feBlend in="SourceGraphic" in2="blurOut3" mode="normal"/></filter></defs><g><text fill="#000000" font-family="sans-serif" font-size="18" lengthAdjust="spacingAndGlyphs" textLength="165" x="251.5" y="28.6855">Set Mode Procedure</text><rect fill="#FEFECE" filter="url(#frvrur17gs8nx)" height="65.2813" rx="12.5" ry="12.5" style="stroke: #A80036; stroke-width: 1.5;" width="543" x="62.5" y="32.6406"/><text fill="#000000" font-family="sans-serif" font-size="12" lengthAdjust="spacingAndGlyphs" textLength="355" x="72.5" y="55.0977">Determine if your receiver has an external or internal learn button.</text><text fill="#000000" font-family="sans-serif" font-size="12" lengthAdjust="spacingAndGlyphs" textLength="520" x="72.5" y="70.1914">If there is no external learn button, remove the lid on the receiver using a #1 phillips screwdriver.</text><text fill="#000000" font-family="sans-serif" font-size="12" lengthAdjust="spacingAndGlyphs" textLength="0" x="75.5" y="85.2852"/><a target="_top" xlink:actuate="onRequest" xlink:href="rx_components.jpg" xlink:show="new" xlink:title="rx_components.jpg" xlink:type="simple"><text fill="#0000FF" font-family="sans-serif" font-size="12" lengthAdjust="spacingAndGlyphs" text-decoration="underline" textLength="248" x="75.5" y="85.2852">Click here for help identifying the learn button.</text><line style="stroke: #0000FF; stroke-width: 1.0;" x1="75.5" x2="323.5" y1="87.2852" y2="87.2852"/></a><rect fill="#FEFECE" filter="url(#frvrur17gs8nx)" height="35.0938" rx="12.5" ry="12.5" style="stroke: #A80036; stroke-width: 1.5;" width="325" x="171.5" y="117.9219"/><text fill="#000000" font-family="sans-serif" font-size="12" lengthAdjust="spacingAndGlyphs" textLength="305" x="181.5" y="140.3789">Power off the receiver by disconnecting the power cable.</text><rect fill="#FEFECE" filter="url(#frvrur17gs8nx)" height="35.0938" rx="12.5" ry="12.5" style="stroke: #A80036; stroke-width: 1.5;" width="339" x="164.5" y="173.0156"/><text fill="#000000" font-family="sans-serif" font-size="12" lengthAdjust="spacingAndGlyphs" textLength="319" x="174.5" y="195.4727">Power the receiver back on by plugging in the power cable.</text><rect fill="#FEFECE" filter="url(#frvrur17gs8nx)" height="35.0938" rx="12.5" ry="12.5" style="stroke: #A80036; stroke-width: 1.5;" width="325" x="171.5" y="288.7002"/><text fill="#000000" font-family="sans-serif" font-size="12" lengthAdjust="spacingAndGlyphs" textLength="305" x="181.5" y="311.1572">Power off the receiver by disconnecting the power cable.</text><rect fill="#FEFECE" filter="url(#frvrur17gs8nx)" height="35.0938" rx="12.5" ry="12.5" style="stroke: #A80036; stroke-width: 1.5;" width="228" x="220" y="343.7939"/><text fill="#000000" font-family="sans-serif" font-size="12" lengthAdjust="spacingAndGlyphs" textLength="208" x="230" y="366.251">Press and hold the learn button down.</text><rect fill="#FEFECE" filter="url(#frvrur17gs8nx)" height="35.0938" rx="12.5" ry="12.5" style="stroke: #A80036; stroke-width: 1.5;" width="596" x="36" y="398.8877"/><text fill="#000000" font-family="sans-serif" font-size="12" lengthAdjust="spacingAndGlyphs" textLength="576" x="46" y="421.3447">While continuing to hold the learn button down, power the receiver back on by plugging in the power cable.</text><polygon fill="#FEFECE" filter="url(#frvrur17gs8nx)" points="127.5,228.1094,540.5,228.1094,552.5,241.9453,540.5,255.7813,127.5,255.7813,115.5,241.9453,127.5,228.1094" style="stroke: #A80036; stroke-width: 1.5;"/><text fill="#000000" font-family="sans-serif" font-size="11" lengthAdjust="spacingAndGlyphs" textLength="13" x="338" y="267.2002">No</text><text fill="#000000" font-family="sans-serif" font-size="11" lengthAdjust="spacingAndGlyphs" textLength="410" x="127.5" y="239.5283">Does the light on the receiver flash exactly 3 times a few seconds after powering up</text><text fill="#000000" font-family="sans-serif" font-size="11" lengthAdjust="spacingAndGlyphs" textLength="216" x="130.5" y="253.3643">(or immediately if learn button is held down)?</text><text fill="#000000" font-family="sans-serif" font-size="11" lengthAdjust="spacingAndGlyphs" textLength="20" x="95.5" y="239.5283">Yes</text><rect fill="#FEFECE" filter="url(#frvrur17gs8nx)" height="35.0938" rx="12.5" ry="12.5" style="stroke: #A80036; stroke-width: 1.5;" width="368" x="150" y="475.9814"/><text fill="#000000" font-family="sans-serif" font-size="12" lengthAdjust="spacingAndGlyphs" textLength="348" x="160" y="498.4385">Release the learn button if pressed and verify system operation.</text><rect fill="#FEFECE" filter="url(#frvrur17gs8nx)" height="35.0938" rx="12.5" ry="12.5" style="stroke: #A80036; stroke-width: 1.5;" width="391" x="138.5" y="531.0752"/><text fill="#000000" font-family="sans-serif" font-size="12" lengthAdjust="spacingAndGlyphs" textLength="371" x="148.5" y="553.5322">If removed for access to internal learn button, replace lid on receiver.</text><rect fill="#FEFECE" filter="url(#frvrur17gs8nx)" height="35.0938" rx="12.5" ry="12.5" style="stroke: #A80036; stroke-width: 1.5;" width="50" x="309" y="586.1689"/><text fill="#000000" font-family="sans-serif" font-size="12" lengthAdjust="spacingAndGlyphs" textLength="30" x="319" y="608.626">Done</text><line style="stroke: #A80036; stroke-width: 1.5;" x1="334" x2="334" y1="97.9219" y2="117.9219"/><polygon fill="#A80036" points="330,107.9219,334,117.9219,338,107.9219,334,111.9219" style="stroke: #A80036; stroke-width: 1.0;"/><line style="stroke: #A80036; stroke-width: 1.5;" x1="334" x2="334" y1="153.0156" y2="173.0156"/><polygon fill="#A80036" points="330,163.0156,334,173.0156,338,163.0156,334,167.0156" style="stroke: #A80036; stroke-width: 1.0;"/><line style="stroke: #A80036; stroke-width: 1.5;" x1="334" x2="334" y1="323.7939" y2="343.7939"/><polygon fill="#A80036" points="330,333.7939,334,343.7939,338,333.7939,334,337.7939" style="stroke: #A80036; stroke-width: 1.0;"/><line style="stroke: #A80036; stroke-width: 1.5;" x1="334" x2="334" y1="378.8877" y2="398.8877"/><polygon fill="#A80036" points="330,388.8877,334,398.8877,338,388.8877,334,392.8877" style="stroke: #A80036; stroke-width: 1.0;"/><line style="stroke: #A80036; stroke-width: 1.5;" x1="334" x2="334" y1="255.7813" y2="288.7002"/><polygon fill="#A80036" points="330,278.7002,334,288.7002,338,278.7002,334,282.7002" style="stroke: #A80036; stroke-width: 1.0;"/><line style="stroke: #A80036; stroke-width: 1.5;" x1="334" x2="334" y1="433.9814" y2="443.9814"/><line style="stroke: #A80036; stroke-width: 1.5;" x1="334" x2="644" y1="443.9814" y2="443.9814"/><polygon fill="#A80036" points="640,351.5049,644,341.5049,648,351.5049,644,347.5049" style="stroke: #A80036; stroke-width: 1.5;"/><line style="stroke: #A80036; stroke-width: 1.5;" x1="644" x2="644" y1="241.9453" y2="443.9814"/><line style="stroke: #A80036; stroke-width: 1.5;" x1="644" x2="552.5" y1="241.9453" y2="241.9453"/><polygon fill="#A80036" points="562.5,237.9453,552.5,241.9453,562.5,245.9453,558.5,241.9453" style="stroke: #A80036; stroke-width: 1.0;"/><line style="stroke: #A80036; stroke-width: 1.5;" x1="115.5" x2="24" y1="241.9453" y2="241.9453"/><polygon fill="#A80036" points="20,337.5049,24,347.5049,28,337.5049,24,341.5049" style="stroke: #A80036; stroke-width: 1.5;"/><line style="stroke: #A80036; stroke-width: 1.5;" x1="24" x2="24" y1="241.9453" y2="455.9814"/><line style="stroke: #A80036; stroke-width: 1.5;" x1="24" x2="334" y1="455.9814" y2="455.9814"/><line style="stroke: #A80036; stroke-width: 1.5;" x1="334" x2="334" y1="455.9814" y2="475.9814"/><polygon fill="#A80036" points="330,465.9814,334,475.9814,338,465.9814,334,469.9814" style="stroke: #A80036; stroke-width: 1.0;"/><line style="stroke: #A80036; stroke-width: 1.5;" x1="334" x2="334" y1="208.1094" y2="228.1094"/><polygon fill="#A80036" points="330,218.1094,334,228.1094,338,218.1094,334,222.1094" style="stroke: #A80036; stroke-width: 1.0;"/><line style="stroke: #A80036; stroke-width: 1.5;" x1="334" x2="334" y1="511.0752" y2="531.0752"/><polygon fill="#A80036" points="330,521.0752,334,531.0752,338,521.0752,334,525.0752" style="stroke: #A80036; stroke-width: 1.0;"/><line style="stroke: #A80036; stroke-width: 1.5;" x1="334" x2="334" y1="566.1689" y2="586.1689"/><polygon fill="#A80036" points="330,576.1689,334,586.1689,338,576.1689,334,580.1689" style="stroke: #A80036; stroke-width: 1.0;"/><!--
@startuml
title Set Mode Procedure
:Determine if your receiver has an external or internal learn button.\nIf there is no external learn button, remove the lid on the receiver using a #1 phillips screwdriver. \n [[rx_components.jpg Click here for help identifying the learn button.]];
:Power off the receiver by disconnecting the power cable.;
:Power the receiver back on by plugging in the power cable.;
while (Does the light on the receiver flash exactly 3 times a few seconds after powering up \n (or immediately if learn button is held down)?) is (No)
    :Power off the receiver by disconnecting the power cable.;
    :Press and hold the learn button down.;
    :While continuing to hold the learn button down, power the receiver back on by plugging in the power cable.;
endwhile (Yes)
:Release the learn button if pressed and verify system operation.;
:If removed for access to internal learn button, replace lid on receiver.;
:Done;
@enduml

PlantUML version 1.2019.00(Sun Jan 13 10:46:42 EST 2019)
(GPL source distribution)
Java Runtime: Java(TM) SE Runtime Environment
JVM: Java HotSpot(TM) Client VM
Java Version: 1.8.0_191-b12
Operating System: Windows 10
OS Version: 10.0
Default Encoding: Cp1252
Language: en
Country: US
--></g></svg>