<?xml version="1.0" encoding="UTF-8" standalone="no"?><svg xmlns="http://www.w3.org/2000/svg" xmlns:xlink="http://www.w3.org/1999/xlink" contentScriptType="application/ecmascript" contentStyleType="text/css" height="614px" preserveAspectRatio="none" style="width:768px;height:614px;" version="1.1" viewBox="0 0 768 614" width="768px" zoomAndPan="magnify"><defs><filter height="300%" id="frvrur17gs8nx" width="300%" x="-1" y="-1"><feGaussianBlur result="blurOut" stdDeviation="2.0"/><feColorMatrix in="blurOut" result="blurOut2" type="matrix" values="0 0 0 0 0 0 0 0 0 0 0 0 0 0 0 0 0 0 .4 0"/><feOffset dx="4.0" dy="4.0" in="blurOut2" result="blurOut3"/><feBlend in="SourceGraphic" in2="blurOut3" mode="normal"/></filter></defs><g><text fill="#000000" font-family="sans-serif" font-size="18" lengthAdjust="spacingAndGlyphs" textLength="181" x="292.5" y="26.708">Set Mode Procedure</text><rect fill="#FEFECE" filter="url(#frvrur17gs8nx)" height="61.9063" rx="12.5" ry="12.5" style="stroke: #A80036; stroke-width: 1.5;" width="634" x="66" y="30.9531"/><text fill="#000000" font-family="sans-serif" font-size="12" lengthAdjust="spacingAndGlyphs" textLength="418" x="76" y="52.0918">Determine if your receiver has an external or internal learn button.</text><text fill="#000000" font-family="sans-serif" font-size="12" lengthAdjust="spacingAndGlyphs" textLength="610" x="76" y="66.0605">If there is no external learn button, remove the lid on the receiver using a #1 phillips screwdriver.</text><text fill="#000000" font-family="sans-serif" font-size="12" lengthAdjust="spacingAndGlyphs" textLength="0" x="80" y="80.0293"/><a target="_top" xlink:actuate="onRequest" xlink:href="rx_components.jpg" xlink:show="new" xlink:title="rx_components.jpg" xlink:type="simple"><text fill="#0000FF" font-family="sans-serif" font-size="12" lengthAdjust="spacingAndGlyphs" text-decoration="underline" textLength="292" x="80" y="80.0293">Click here for help identifying the learn button.</text><line style="stroke: #0000FF; stroke-width: 1.0;" x1="80" x2="372" y1="82.0293" y2="82.0293"/></a><rect fill="#FEFECE" filter="url(#frvrur17gs8nx)" height="33.9688" rx="12.5" ry="12.5" style="stroke: #A80036; stroke-width: 1.5;" width="376" x="195" y="112.8594"/><text fill="#000000" font-family="sans-serif" font-size="12" lengthAdjust="spacingAndGlyphs" textLength="356" x="205" y="133.998">Power off the receiver by disconnecting the power cable.</text><rect fill="#FEFECE" filter="url(#frvrur17gs8nx)" height="33.9688" rx="12.5" ry="12.5" style="stroke: #A80036; stroke-width: 1.5;" width="391" x="187.5" y="166.8281"/><text fill="#000000" font-family="sans-serif" font-size="12" lengthAdjust="spacingAndGlyphs" textLength="371" x="197.5" y="187.9668">Power the receiver back on by plugging in the power cable.</text><rect fill="#FEFECE" filter="url(#frvrur17gs8nx)" height="33.9688" rx="12.5" ry="12.5" style="stroke: #A80036; stroke-width: 1.5;" width="376" x="195" y="278.1167"/><text fill="#000000" font-family="sans-serif" font-size="12" lengthAdjust="spacingAndGlyphs" textLength="356" x="205" y="299.2554">Power off the receiver by disconnecting the power cable.</text><rect fill="#FEFECE" filter="url(#frvrur17gs8nx)" height="33.9688" rx="12.5" ry="12.5" style="stroke: #A80036; stroke-width: 1.5;" width="262" x="252" y="332.0854"/><text fill="#000000" font-family="sans-serif" font-size="12" lengthAdjust="spacingAndGlyphs" textLength="242" x="262" y="353.2241">Press and hold the learn button down.</text><rect fill="#FEFECE" filter="url(#frvrur17gs8nx)" height="33.9688" rx="12.5" ry="12.5" style="stroke: #A80036; stroke-width: 1.5;" width="694" x="36" y="386.0542"/><text fill="#000000" font-family="sans-serif" font-size="12" lengthAdjust="spacingAndGlyphs" textLength="674" x="46" y="407.1929">While continuing to hold the learn button down, power the receiver back on by plugging in the power cable.</text><polygon fill="#FEFECE" filter="url(#frvrur17gs8nx)" points="139.5,220.7969,626.5,220.7969,638.5,233.6016,626.5,246.4063,139.5,246.4063,127.5,233.6016,139.5,220.7969" style="stroke: #A80036; stroke-width: 1.5;"/><text fill="#000000" font-family="sans-serif" font-size="11" lengthAdjust="spacingAndGlyphs" textLength="15" x="387" y="256.6167">No</text><text fill="#000000" font-family="sans-serif" font-size="11" lengthAdjust="spacingAndGlyphs" textLength="483" x="139.5" y="231.0073">Does the light on the receiver flash exactly 3 times a few seconds after powering up</text><text fill="#000000" font-family="sans-serif" font-size="11" lengthAdjust="spacingAndGlyphs" textLength="259" x="143.5" y="243.812">(or immediately if learn button is held down)?</text><text fill="#000000" font-family="sans-serif" font-size="11" lengthAdjust="spacingAndGlyphs" textLength="21" x="106.5" y="231.0073">Yes</text><rect fill="#FEFECE" filter="url(#frvrur17gs8nx)" height="33.9688" rx="12.5" ry="12.5" style="stroke: #A80036; stroke-width: 1.5;" width="424" x="171" y="462.0229"/><text fill="#000000" font-family="sans-serif" font-size="12" lengthAdjust="spacingAndGlyphs" textLength="404" x="181" y="483.1616">Release the learn button if pressed and verify system operation.</text><rect fill="#FEFECE" filter="url(#frvrur17gs8nx)" height="33.9688" rx="12.5" ry="12.5" style="stroke: #A80036; stroke-width: 1.5;" width="456" x="155" y="515.9917"/><text fill="#000000" font-family="sans-serif" font-size="12" lengthAdjust="spacingAndGlyphs" textLength="436" x="165" y="537.1304">If removed for access to internal learn button, replace lid on receiver.</text><rect fill="#FEFECE" filter="url(#frvrur17gs8nx)" height="33.9688" rx="12.5" ry="12.5" style="stroke: #A80036; stroke-width: 1.5;" width="53" x="356.5" y="569.9604"/><text fill="#000000" font-family="sans-serif" font-size="12" lengthAdjust="spacingAndGlyphs" textLength="33" x="366.5" y="591.0991">Done</text><line style="stroke: #A80036; stroke-width: 1.5;" x1="383" x2="383" y1="92.8594" y2="112.8594"/><polygon fill="#A80036" points="379,102.8594,383,112.8594,387,102.8594,383,106.8594" style="stroke: #A80036; stroke-width: 1.0;"/><line style="stroke: #A80036; stroke-width: 1.5;" x1="383" x2="383" y1="146.8281" y2="166.8281"/><polygon fill="#A80036" points="379,156.8281,383,166.8281,387,156.8281,383,160.8281" style="stroke: #A80036; stroke-width: 1.0;"/><line style="stroke: #A80036; stroke-width: 1.5;" x1="383" x2="383" y1="312.0854" y2="332.0854"/><polygon fill="#A80036" points="379,322.0854,383,332.0854,387,322.0854,383,326.0854" style="stroke: #A80036; stroke-width: 1.0;"/><line style="stroke: #A80036; stroke-width: 1.5;" x1="383" x2="383" y1="366.0542" y2="386.0542"/><polygon fill="#A80036" points="379,376.0542,383,386.0542,387,376.0542,383,380.0542" style="stroke: #A80036; stroke-width: 1.0;"/><line style="stroke: #A80036; stroke-width: 1.5;" x1="383" x2="383" y1="246.4063" y2="278.1167"/><polygon fill="#A80036" points="379,268.1167,383,278.1167,387,268.1167,383,272.1167" style="stroke: #A80036; stroke-width: 1.0;"/><line style="stroke: #A80036; stroke-width: 1.5;" x1="383" x2="383" y1="420.0229" y2="430.0229"/><line style="stroke: #A80036; stroke-width: 1.5;" x1="383" x2="742" y1="430.0229" y2="430.0229"/><polygon fill="#A80036" points="738,340.2651,742,330.2651,746,340.2651,742,336.2651" style="stroke: #A80036; stroke-width: 1.5;"/><line style="stroke: #A80036; stroke-width: 1.5;" x1="742" x2="742" y1="233.6016" y2="430.0229"/><line style="stroke: #A80036; stroke-width: 1.5;" x1="742" x2="638.5" y1="233.6016" y2="233.6016"/><polygon fill="#A80036" points="648.5,229.6016,638.5,233.6016,648.5,237.6016,644.5,233.6016" style="stroke: #A80036; stroke-width: 1.0;"/><line style="stroke: #A80036; stroke-width: 1.5;" x1="127.5" x2="24" y1="233.6016" y2="233.6016"/><polygon fill="#A80036" points="20,326.2651,24,336.2651,28,326.2651,24,330.2651" style="stroke: #A80036; stroke-width: 1.5;"/><line style="stroke: #A80036; stroke-width: 1.5;" x1="24" x2="24" y1="233.6016" y2="442.0229"/><line style="stroke: #A80036; stroke-width: 1.5;" x1="24" x2="383" y1="442.0229" y2="442.0229"/><line style="stroke: #A80036; stroke-width: 1.5;" x1="383" x2="383" y1="442.0229" y2="462.0229"/><polygon fill="#A80036" points="379,452.0229,383,462.0229,387,452.0229,383,456.0229" style="stroke: #A80036; stroke-width: 1.0;"/><line style="stroke: #A80036; stroke-width: 1.5;" x1="383" x2="383" y1="200.7969" y2="220.7969"/><polygon fill="#A80036" points="379,210.7969,383,220.7969,387,210.7969,383,214.7969" style="stroke: #A80036; stroke-width: 1.0;"/><line style="stroke: #A80036; stroke-width: 1.5;" x1="383" x2="383" y1="495.9917" y2="515.9917"/><polygon fill="#A80036" points="379,505.9917,383,515.9917,387,505.9917,383,509.9917" style="stroke: #A80036; stroke-width: 1.0;"/><line style="stroke: #A80036; stroke-width: 1.5;" x1="383" x2="383" y1="549.9604" y2="569.9604"/><polygon fill="#A80036" points="379,559.9604,383,569.9604,387,559.9604,383,563.9604" style="stroke: #A80036; stroke-width: 1.0;"/><!--
@startuml
title Set Mode Procedure
:Determine if your receiver has an external or internal learn button.\nIf there is no external learn button, remove the lid on the receiver using a #1 phillips screwdriver. \n [[rx_components.jpg Click here for help identifying the learn button.]];
:Power off the receiver by disconnecting the power cable.;
:Power the receiver back on by plugging in the power cable.;
while (Does the light on the receiver flash exactly 3 times a few seconds after powering up \n (or immediately if learn button is held down)?) is (No)
    :Power off the receiver by disconnecting the power cable.;
    :Press and hold the learn button down.;
    :While continuing to hold the learn button down, power the receiver back on by plugging in the power cable.;
endwhile (Yes)
:Release the learn button if pressed and verify system operation.;
:If removed for access to internal learn button, replace lid on receiver.;
:Done;
@enduml

PlantUML version 1.2019.00(Sun Jan 13 10:46:42 EST 2019)
(GPL source distribution)
Java Runtime: OpenJDK Runtime Environment
JVM: OpenJDK 64-Bit Server VM
Java Version: 10.0.2+13-Ubuntu-1ubuntu0.18.04.4
Operating System: Linux
OS Version: 4.15.0-46-generic
Default Encoding: UTF-8
Language: en
Country: US
--></g></svg>