<?xml version="1.0" encoding="UTF-8" standalone="no"?><svg xmlns="http://www.w3.org/2000/svg" xmlns:xlink="http://www.w3.org/1999/xlink" contentScriptType="application/ecmascript" contentStyleType="text/css" height="424px" preserveAspectRatio="none" style="width:815px;height:424px;" version="1.1" viewBox="0 0 815 424" width="815px" zoomAndPan="magnify"><defs><filter height="300%" id="fqvjkcoo9h75w" width="300%" x="-1" y="-1"><feGaussianBlur result="blurOut" stdDeviation="2.0"/><feColorMatrix in="blurOut" result="blurOut2" type="matrix" values="0 0 0 0 0 0 0 0 0 0 0 0 0 0 0 0 0 0 .4 0"/><feOffset dx="4.0" dy="4.0" in="blurOut2" result="blurOut3"/><feBlend in="SourceGraphic" in2="blurOut3" mode="normal"/></filter></defs><g><text fill="#000000" font-family="sans-serif" font-size="18" lengthAdjust="spacingAndGlyphs" textLength="194" x="309.5" y="26.708">Testing Power Supply</text><rect fill="#FEFECE" filter="url(#fqvjkcoo9h75w)" height="61.9063" rx="12.5" ry="12.5" style="stroke: #A80036; stroke-width: 1.5;" width="769" x="10" y="81.2544"/><text fill="#000000" font-family="sans-serif" font-size="12" lengthAdjust="spacingAndGlyphs" textLength="408" x="20" y="102.3931">Unplug the barrel connector of the AC adaptor from the receiver.</text><text fill="#000000" font-family="sans-serif" font-size="12" lengthAdjust="spacingAndGlyphs" textLength="283" x="20" y="116.3618">Plug the AC adaptor into a working AC outlet.</text><text fill="#000000" font-family="sans-serif" font-size="12" lengthAdjust="spacingAndGlyphs" textLength="749" x="20" y="130.3306">Using a voltage meter, measure the DC voltage between the center contact and outer contact of the barrel connector.</text><rect fill="#FEFECE" filter="url(#fqvjkcoo9h75w)" height="33.9688" rx="12.5" ry="12.5" style="stroke: #A80036; stroke-width: 1.5;" width="279" x="255" y="211.563"/><a target="_top" xlink:actuate="onRequest" xlink:href="http://rfhero.com/request-rma.php" xlink:show="new" xlink:title="Click here to go to the Send for repair (RMA) page." xlink:type="simple"><text fill="#0000FF" font-family="sans-serif" font-size="12" lengthAdjust="spacingAndGlyphs" text-decoration="underline" textLength="259" x="265" y="232.7017">Please Send for repair (RMA) the receiver</text><line style="stroke: #0000FF; stroke-width: 1.0;" x1="265" x2="524" y1="234.7017" y2="234.7017"/></a><ellipse cx="394.5" cy="283.0474" fill="none" filter="url(#fqvjkcoo9h75w)" rx="10" ry="10" style="stroke: #000000; stroke-width: 1.0;"/><ellipse cx="395" cy="283.5474" fill="#000000" filter="url(#fqvjkcoo9h75w)" rx="6" ry="6" style="stroke: none; stroke-width: 1.0;"/><polygon fill="#FEFECE" filter="url(#fqvjkcoo9h75w)" points="302,163.1606,487,163.1606,499,175.1606,487,187.1606,302,187.1606,290,175.1606,302,163.1606" style="stroke: #A80036; stroke-width: 1.5;"/><text fill="#000000" font-family="sans-serif" font-size="11" lengthAdjust="spacingAndGlyphs" textLength="21" x="398.5" y="197.3711">Yes</text><text fill="#000000" font-family="sans-serif" font-size="11" lengthAdjust="spacingAndGlyphs" textLength="185" x="302" y="178.9688">Is the voltage read at least 12V?</text><text fill="#000000" font-family="sans-serif" font-size="11" lengthAdjust="spacingAndGlyphs" textLength="15" x="499" y="172.5664">No</text><polygon fill="#FEFECE" filter="url(#fqvjkcoo9h75w)" points="174.5,32.8521,614.5,32.8521,626.5,44.8521,614.5,56.8521,174.5,56.8521,162.5,44.8521,174.5,32.8521" style="stroke: #A80036; stroke-width: 1.5;"/><text fill="#000000" font-family="sans-serif" font-size="11" lengthAdjust="spacingAndGlyphs" textLength="15" x="398.5" y="67.0625">No</text><text fill="#000000" font-family="sans-serif" font-size="11" lengthAdjust="spacingAndGlyphs" textLength="440" x="174.5" y="48.6602">Visually inspect the power supply and cables.  Is there any obvious damage?</text><text fill="#000000" font-family="sans-serif" font-size="11" lengthAdjust="spacingAndGlyphs" textLength="21" x="626.5" y="42.2578">Yes</text><polygon fill="#FEFECE" filter="url(#fqvjkcoo9h75w)" points="394.5,335.0474,406.5,347.0474,394.5,359.0474,382.5,347.0474,394.5,335.0474" style="stroke: #A80036; stroke-width: 1.5;"/><rect fill="#FEFECE" filter="url(#fqvjkcoo9h75w)" height="33.9688" rx="12.5" ry="12.5" style="stroke: #A80036; stroke-width: 1.5;" width="144" x="322.5" y="379.0474"/><a target="_top" xlink:actuate="onRequest" xlink:href="https://www.rfhero.net/accessories" xlink:show="new" xlink:title="https://www.rfhero.net/accessories" xlink:type="simple"><text fill="#0000FF" font-family="sans-serif" font-size="12" lengthAdjust="spacingAndGlyphs" text-decoration="underline" textLength="124" x="332.5" y="400.186">Replace AC Adaptor</text><line style="stroke: #0000FF; stroke-width: 1.0;" x1="332.5" x2="456.5" y1="402.186" y2="402.186"/></a><line style="stroke: #A80036; stroke-width: 1.5;" x1="394.5" x2="394.5" y1="245.5317" y2="273.0474"/><polygon fill="#A80036" points="390.5,263.0474,394.5,273.0474,398.5,263.0474,394.5,267.0474" style="stroke: #A80036; stroke-width: 1.0;"/><line style="stroke: #A80036; stroke-width: 1.5;" x1="394.5" x2="394.5" y1="187.1606" y2="211.563"/><polygon fill="#A80036" points="390.5,201.563,394.5,211.563,398.5,201.563,394.5,205.563" style="stroke: #A80036; stroke-width: 1.0;"/><line style="stroke: #A80036; stroke-width: 1.5;" x1="499" x2="544" y1="175.1606" y2="175.1606"/><polygon fill="#A80036" points="540,243.0474,544,253.0474,548,243.0474,544,247.0474" style="stroke: #A80036; stroke-width: 1.5;"/><line style="stroke: #A80036; stroke-width: 1.5;" x1="544" x2="544" y1="175.1606" y2="315.0474"/><line style="stroke: #A80036; stroke-width: 1.5;" x1="544" x2="394.5" y1="315.0474" y2="315.0474"/><line style="stroke: #A80036; stroke-width: 1.5;" x1="394.5" x2="394.5" y1="315.0474" y2="335.0474"/><polygon fill="#A80036" points="390.5,325.0474,394.5,335.0474,398.5,325.0474,394.5,329.0474" style="stroke: #A80036; stroke-width: 1.0;"/><line style="stroke: #A80036; stroke-width: 1.5;" x1="394.5" x2="394.5" y1="143.1606" y2="163.1606"/><polygon fill="#A80036" points="390.5,153.1606,394.5,163.1606,398.5,153.1606,394.5,157.1606" style="stroke: #A80036; stroke-width: 1.0;"/><line style="stroke: #A80036; stroke-width: 1.5;" x1="394.5" x2="394.5" y1="56.8521" y2="81.2544"/><polygon fill="#A80036" points="390.5,71.2544,394.5,81.2544,398.5,71.2544,394.5,75.2544" style="stroke: #A80036; stroke-width: 1.0;"/><line style="stroke: #A80036; stroke-width: 1.5;" x1="626.5" x2="789" y1="44.8521" y2="44.8521"/><polygon fill="#A80036" points="785,188.5942,789,198.5942,793,188.5942,789,192.5942" style="stroke: #A80036; stroke-width: 1.5;"/><line style="stroke: #A80036; stroke-width: 1.5;" x1="789" x2="789" y1="44.8521" y2="347.0474"/><line style="stroke: #A80036; stroke-width: 1.5;" x1="789" x2="406.5" y1="347.0474" y2="347.0474"/><polygon fill="#A80036" points="416.5,343.0474,406.5,347.0474,416.5,351.0474,412.5,347.0474" style="stroke: #A80036; stroke-width: 1.0;"/><line style="stroke: #A80036; stroke-width: 1.5;" x1="394.5" x2="394.5" y1="359.0474" y2="379.0474"/><polygon fill="#A80036" points="390.5,369.0474,394.5,379.0474,398.5,369.0474,394.5,373.0474" style="stroke: #A80036; stroke-width: 1.0;"/><!--
@startuml
title Testing Power Supply
if (Visually inspect the power supply and cables.  Is there any obvious damage?) then (Yes)
else (No)
    :Unplug the barrel connector of the AC adaptor from the receiver.\nPlug the AC adaptor into a working AC outlet.\nUsing a voltage meter, measure the DC voltage between the center contact and outer contact of the barrel connector.;
    if (Is the voltage read at least 12V?) then (Yes)
        :[[http://rfhero.com/request-rma.php{Click here to go to the Send for repair (RMA) page.}Please Send for repair (RMA) the receiver]];
        stop
    else (No)
    endif
endif
:[[https://www.rfhero.net/accessories Replace AC Adaptor]];
@enduml

PlantUML version 1.2019.00(Sun Jan 13 10:46:42 EST 2019)
(GPL source distribution)
Java Runtime: OpenJDK Runtime Environment
JVM: OpenJDK 64-Bit Server VM
Java Version: 10.0.2+13-Ubuntu-1ubuntu0.18.04.4
Operating System: Linux
OS Version: 4.15.0-46-generic
Default Encoding: UTF-8
Language: en
Country: US
--></g></svg>