<?xml version="1.0" encoding="UTF-8" standalone="no"?><svg xmlns="http://www.w3.org/2000/svg" xmlns:xlink="http://www.w3.org/1999/xlink" contentScriptType="application/ecmascript" contentStyleType="text/css" height="1241px" preserveAspectRatio="none" style="width:815px;height:1241px;" version="1.1" viewBox="0 0 815 1241" width="815px" zoomAndPan="magnify"><defs><filter height="300%" id="f48okpe0kiqfd" width="300%" x="-1" y="-1"><feGaussianBlur result="blurOut" stdDeviation="2.0"/><feColorMatrix in="blurOut" result="blurOut2" type="matrix" values="0 0 0 0 0 0 0 0 0 0 0 0 0 0 0 0 0 0 .4 0"/><feOffset dx="4.0" dy="4.0" in="blurOut2" result="blurOut3"/><feBlend in="SourceGraphic" in2="blurOut3" mode="normal"/></filter></defs><g><text fill="#000000" font-family="sans-serif" font-size="18" lengthAdjust="spacingAndGlyphs" textLength="282" x="265.625" y="26.708">Receiver Verification Procedure</text><rect fill="#FEFECE" filter="url(#f48okpe0kiqfd)" height="33.9688" rx="12.5" ry="12.5" style="stroke: #A80036; stroke-width: 1.5;" width="376" x="84.125" y="30.9531"/><text fill="#000000" font-family="sans-serif" font-size="12" lengthAdjust="spacingAndGlyphs" textLength="356" x="94.125" y="52.0918">Power off the receiver by disconnecting the power cable.</text><rect fill="#FEFECE" filter="url(#f48okpe0kiqfd)" height="33.9688" rx="12.5" ry="12.5" style="stroke: #A80036; stroke-width: 1.5;" width="391" x="76.625" y="84.9219"/><text fill="#000000" font-family="sans-serif" font-size="12" lengthAdjust="spacingAndGlyphs" textLength="371" x="86.625" y="106.0605">Power the receiver back on by plugging in the power cable.</text><rect fill="#FEFECE" filter="url(#f48okpe0kiqfd)" height="33.9688" rx="12.5" ry="12.5" style="stroke: #A80036; stroke-width: 1.5;" width="144" x="200.125" y="187.293"/><a target="_top" xlink:actuate="onRequest" xlink:href="powersupply.html" xlink:show="new" xlink:title="powersupply.html" xlink:type="simple"><text fill="#0000FF" font-family="sans-serif" font-size="12" lengthAdjust="spacingAndGlyphs" text-decoration="underline" textLength="124" x="210.125" y="208.4316">Check power supply</text><line style="stroke: #0000FF; stroke-width: 1.0;" x1="210.125" x2="334.125" y1="210.4316" y2="210.4316"/></a><polygon fill="#FEFECE" filter="url(#f48okpe0kiqfd)" points="214.125,241.2617,330.125,241.2617,342.125,253.2617,330.125,265.2617,214.125,265.2617,202.125,253.2617,214.125,241.2617" style="stroke: #A80036; stroke-width: 1.5;"/><text fill="#000000" font-family="sans-serif" font-size="11" lengthAdjust="spacingAndGlyphs" textLength="116" x="214.125" y="257.0698">Is power supply OK?</text><text fill="#000000" font-family="sans-serif" font-size="11" lengthAdjust="spacingAndGlyphs" textLength="21" x="181.125" y="250.6675">Yes</text><rect fill="#FEFECE" filter="url(#f48okpe0kiqfd)" height="33.9688" rx="12.5" ry="12.5" style="stroke: #A80036; stroke-width: 1.5;" width="154" x="110.625" y="275.2617"/><a target="_top" xlink:actuate="onRequest" xlink:href="http://rfhero.com/request-rma.php" xlink:show="new" xlink:title="http://rfhero.com/request-rma.php" xlink:type="simple"><text fill="#0000FF" font-family="sans-serif" font-size="12" lengthAdjust="spacingAndGlyphs" text-decoration="underline" textLength="134" x="120.625" y="296.4004">Send for repair (RMA)</text><line style="stroke: #0000FF; stroke-width: 1.0;" x1="120.625" x2="254.625" y1="298.4004" y2="298.4004"/></a><rect fill="#FEFECE" filter="url(#f48okpe0kiqfd)" height="33.9688" rx="12.5" ry="12.5" style="stroke: #A80036; stroke-width: 1.5;" width="53" x="161.125" y="329.2305"/><text fill="#000000" font-family="sans-serif" font-size="12" lengthAdjust="spacingAndGlyphs" textLength="33" x="171.125" y="350.3691">Done</text><ellipse cx="187.625" cy="393.1992" fill="none" filter="url(#f48okpe0kiqfd)" rx="10" ry="10" style="stroke: #000000; stroke-width: 1.0;"/><ellipse cx="188.125" cy="393.6992" fill="#000000" filter="url(#f48okpe0kiqfd)" rx="6" ry="6" style="stroke: none; stroke-width: 1.0;"/><rect fill="#FEFECE" filter="url(#f48okpe0kiqfd)" height="33.9688" rx="12.5" ry="12.5" style="stroke: #A80036; stroke-width: 1.5;" width="144" x="284.625" y="275.2617"/><a target="_top" xlink:actuate="onRequest" xlink:href="https://www.rfhero.net/accessories" xlink:show="new" xlink:title="https://www.rfhero.net/accessories" xlink:type="simple"><text fill="#0000FF" font-family="sans-serif" font-size="12" lengthAdjust="spacingAndGlyphs" text-decoration="underline" textLength="124" x="294.625" y="296.4004">Replace AC Adaptor</text><line style="stroke: #0000FF; stroke-width: 1.0;" x1="294.625" x2="418.625" y1="298.4004" y2="298.4004"/></a><polygon fill="#FEFECE" filter="url(#f48okpe0kiqfd)" points="142.625,138.8906,401.625,138.8906,413.625,150.8906,401.625,162.8906,142.625,162.8906,130.625,150.8906,142.625,138.8906" style="stroke: #A80036; stroke-width: 1.5;"/><text fill="#000000" font-family="sans-serif" font-size="11" lengthAdjust="spacingAndGlyphs" textLength="15" x="276.125" y="173.1011">No</text><text fill="#000000" font-family="sans-serif" font-size="11" lengthAdjust="spacingAndGlyphs" textLength="259" x="142.625" y="154.6987">Does the power light on the receiver turn on?</text><text fill="#000000" font-family="sans-serif" font-size="11" lengthAdjust="spacingAndGlyphs" textLength="21" x="413.625" y="148.2964">Yes</text><polygon fill="#FEFECE" filter="url(#f48okpe0kiqfd)" points="272.125,423.1992,284.125,435.1992,272.125,447.1992,260.125,435.1992,272.125,423.1992" style="stroke: #A80036; stroke-width: 1.5;"/><polygon fill="#FEFECE" filter="url(#f48okpe0kiqfd)" points="173.125,524.519,371.125,524.519,383.125,537.3237,371.125,550.1284,173.125,550.1284,161.125,537.3237,173.125,524.519" style="stroke: #A80036; stroke-width: 1.5;"/><text fill="#000000" font-family="sans-serif" font-size="11" lengthAdjust="spacingAndGlyphs" textLength="183" x="173.125" y="534.7295">Does the status light flash at all</text><text fill="#000000" font-family="sans-serif" font-size="11" lengthAdjust="spacingAndGlyphs" textLength="194" x="177.125" y="547.5342">a few seconds after powering up?</text><text fill="#000000" font-family="sans-serif" font-size="11" lengthAdjust="spacingAndGlyphs" textLength="21" x="140.125" y="534.7295">Yes</text><text fill="#000000" font-family="sans-serif" font-size="11" lengthAdjust="spacingAndGlyphs" textLength="15" x="383.125" y="534.7295">No</text><rect fill="#FEFECE" filter="url(#f48okpe0kiqfd)" height="33.9688" rx="12.5" ry="12.5" style="stroke: #A80036; stroke-width: 1.5;" width="190" x="56.125" y="560.1284"/><a target="_top" xlink:actuate="onRequest" xlink:href="mode.html" xlink:show="new" xlink:title="mode.html" xlink:type="simple"><text fill="#0000FF" font-family="sans-serif" font-size="12" lengthAdjust="spacingAndGlyphs" text-decoration="underline" textLength="170" x="66.125" y="581.2671">Follow Set Mode Procedure</text><line style="stroke: #0000FF; stroke-width: 1.0;" x1="66.125" x2="236.125" y1="583.2671" y2="583.2671"/></a><rect fill="#FEFECE" filter="url(#f48okpe0kiqfd)" height="33.9688" rx="12.5" ry="12.5" style="stroke: #A80036; stroke-width: 1.5;" width="154" x="316.125" y="560.1284"/><a target="_top" xlink:actuate="onRequest" xlink:href="http://rfhero.com/request-rma.php" xlink:show="new" xlink:title="http://rfhero.com/request-rma.php" xlink:type="simple"><text fill="#0000FF" font-family="sans-serif" font-size="12" lengthAdjust="spacingAndGlyphs" text-decoration="underline" textLength="134" x="326.125" y="581.2671">Send for repair (RMA)</text><line style="stroke: #0000FF; stroke-width: 1.0;" x1="326.125" x2="460.125" y1="583.2671" y2="583.2671"/></a><rect fill="#FEFECE" filter="url(#f48okpe0kiqfd)" height="33.9688" rx="12.5" ry="12.5" style="stroke: #A80036; stroke-width: 1.5;" width="53" x="366.625" y="629.0972"/><text fill="#000000" font-family="sans-serif" font-size="12" lengthAdjust="spacingAndGlyphs" textLength="33" x="376.625" y="650.2358">Done</text><ellipse cx="393.125" cy="693.0659" fill="none" filter="url(#f48okpe0kiqfd)" rx="10" ry="10" style="stroke: #000000; stroke-width: 1.0;"/><ellipse cx="393.625" cy="693.5659" fill="#000000" filter="url(#f48okpe0kiqfd)" rx="6" ry="6" style="stroke: none; stroke-width: 1.0;"/><polygon fill="#FEFECE" filter="url(#f48okpe0kiqfd)" points="106.625,467.1992,437.625,467.1992,449.625,480.0039,437.625,492.8086,106.625,492.8086,94.625,480.0039,106.625,467.1992" style="stroke: #A80036; stroke-width: 1.5;"/><text fill="#000000" font-family="sans-serif" font-size="11" lengthAdjust="spacingAndGlyphs" textLength="15" x="276.125" y="503.019">No</text><text fill="#000000" font-family="sans-serif" font-size="11" lengthAdjust="spacingAndGlyphs" textLength="331" x="106.625" y="477.4097">Does the status light on the receiver flash exactly 3 times</text><text fill="#000000" font-family="sans-serif" font-size="11" lengthAdjust="spacingAndGlyphs" textLength="194" x="110.625" y="490.2144">a few seconds after powering up?</text><text fill="#000000" font-family="sans-serif" font-size="11" lengthAdjust="spacingAndGlyphs" textLength="21" x="73.625" y="477.4097">Yes</text><rect fill="#FEFECE" filter="url(#f48okpe0kiqfd)" height="33.9688" rx="12.5" ry="12.5" style="stroke: #A80036; stroke-width: 1.5;" width="226" x="159.125" y="745.0659"/><text fill="#000000" font-family="sans-serif" font-size="12" lengthAdjust="spacingAndGlyphs" textLength="206" x="169.125" y="766.2046">Press OFF button on transmitter.</text><rect fill="#FEFECE" filter="url(#f48okpe0kiqfd)" height="33.9688" rx="12.5" ry="12.5" style="stroke: #A80036; stroke-width: 1.5;" width="174" x="185.125" y="847.437"/><a target="_top" xlink:actuate="onRequest" xlink:href="learn.html" xlink:show="new" xlink:title="learn.html" xlink:type="simple"><text fill="#0000FF" font-family="sans-serif" font-size="12" lengthAdjust="spacingAndGlyphs" text-decoration="underline" textLength="154" x="195.125" y="868.5757">Follow Pairing Procedure</text><line style="stroke: #0000FF; stroke-width: 1.0;" x1="195.125" x2="349.125" y1="870.5757" y2="870.5757"/></a><polygon fill="#FEFECE" filter="url(#f48okpe0kiqfd)" points="150.625,799.0347,393.625,799.0347,405.625,811.0347,393.625,823.0347,150.625,823.0347,138.625,811.0347,150.625,799.0347" style="stroke: #A80036; stroke-width: 1.5;"/><text fill="#000000" font-family="sans-serif" font-size="11" lengthAdjust="spacingAndGlyphs" textLength="15" x="276.125" y="833.2451">No</text><text fill="#000000" font-family="sans-serif" font-size="11" lengthAdjust="spacingAndGlyphs" textLength="195" x="150.625" y="814.8428">Does status light on receiver blink</text><text fill="#008000" font-family="sans-serif" font-size="11" lengthAdjust="spacingAndGlyphs" textLength="38" x="349.625" y="814.8428">GREEN</text><text fill="#000000" font-family="sans-serif" font-size="11" lengthAdjust="spacingAndGlyphs" textLength="6" x="387.625" y="814.8428">?</text><text fill="#000000" font-family="sans-serif" font-size="11" lengthAdjust="spacingAndGlyphs" textLength="21" x="405.625" y="808.4404">Yes</text><polygon fill="#FEFECE" filter="url(#f48okpe0kiqfd)" points="272.125,901.4058,284.125,913.4058,272.125,925.4058,260.125,913.4058,272.125,901.4058" style="stroke: #A80036; stroke-width: 1.5;"/><polygon fill="#FEFECE" filter="url(#f48okpe0kiqfd)" points="84.625,945.4058,459.625,945.4058,471.625,957.4058,459.625,969.4058,84.625,969.4058,72.625,957.4058,84.625,945.4058" style="stroke: #A80036; stroke-width: 1.5;"/><text fill="#000000" font-family="sans-serif" font-size="11" lengthAdjust="spacingAndGlyphs" textLength="375" x="84.625" y="961.2139">Does system respond properly to button presses on transmitter?</text><text fill="#000000" font-family="sans-serif" font-size="11" lengthAdjust="spacingAndGlyphs" textLength="21" x="51.625" y="954.8115">Yes</text><text fill="#000000" font-family="sans-serif" font-size="11" lengthAdjust="spacingAndGlyphs" textLength="15" x="471.625" y="954.8115">No</text><rect fill="#FEFECE" filter="url(#f48okpe0kiqfd)" height="33.9688" rx="12.5" ry="12.5" style="stroke: #A80036; stroke-width: 1.5;" width="53" x="10" y="979.4058"/><text fill="#000000" font-family="sans-serif" font-size="12" lengthAdjust="spacingAndGlyphs" textLength="33" x="20" y="1000.5444">Done</text><ellipse cx="36.5" cy="1043.3745" fill="none" filter="url(#f48okpe0kiqfd)" rx="10" ry="10" style="stroke: #000000; stroke-width: 1.0;"/><ellipse cx="37" cy="1043.8745" fill="#000000" filter="url(#f48okpe0kiqfd)" rx="6" ry="6" style="stroke: none; stroke-width: 1.0;"/><rect fill="#FEFECE" filter="url(#f48okpe0kiqfd)" height="33.9688" rx="12.5" ry="12.5" style="stroke: #A80036; stroke-width: 1.5;" width="411" x="302.25" y="979.4058"/><text fill="#000000" font-family="sans-serif" font-size="12" lengthAdjust="spacingAndGlyphs" textLength="391" x="312.25" y="1000.5444">Using a #1 Phillips screwdriver, remove the lid on the receiver.</text><polygon fill="#FEFECE" filter="url(#f48okpe0kiqfd)" points="310.25,1033.3745,705.25,1033.3745,717.25,1046.1792,705.25,1058.9839,310.25,1058.9839,298.25,1046.1792,310.25,1033.3745" style="stroke: #A80036; stroke-width: 1.5;"/><text fill="#000000" font-family="sans-serif" font-size="11" lengthAdjust="spacingAndGlyphs" textLength="395" x="310.25" y="1043.585">Do the LED's for both relays light when pressing the material button?</text><a target="_top" xlink:actuate="onRequest" xlink:href="rx_components.jpg" xlink:show="new" xlink:title="rx_components.jpg" xlink:type="simple"><text fill="#0000FF" font-family="sans-serif" font-size="11" lengthAdjust="spacingAndGlyphs" text-decoration="underline" textLength="210" x="310.25" y="1056.3896">Click here for help locating the LEDs.</text><line style="stroke: #0000FF; stroke-width: 1.0;" x1="310.25" x2="520.25" y1="1058.3896" y2="1058.3896"/></a><text fill="#000000" font-family="sans-serif" font-size="11" lengthAdjust="spacingAndGlyphs" textLength="21" x="277.25" y="1043.585">Yes</text><text fill="#000000" font-family="sans-serif" font-size="11" lengthAdjust="spacingAndGlyphs" textLength="15" x="717.25" y="1043.585">No</text><rect fill="#FEFECE" filter="url(#f48okpe0kiqfd)" height="33.9688" rx="12.5" ry="12.5" style="stroke: #A80036; stroke-width: 1.5;" width="113" x="231.75" y="1068.9839"/><a target="_top" xlink:actuate="onRequest" xlink:href="fusetest.html" xlink:show="new" xlink:title="fusetest.html" xlink:type="simple"><text fill="#0000FF" font-family="sans-serif" font-size="12" lengthAdjust="spacingAndGlyphs" text-decoration="underline" textLength="93" x="241.75" y="1090.1226">Test the Fuses</text><line style="stroke: #0000FF; stroke-width: 1.0;" x1="241.75" x2="334.75" y1="1092.1226" y2="1092.1226"/></a><polygon fill="#FEFECE" filter="url(#f48okpe0kiqfd)" points="236.75,1122.9526,339.75,1122.9526,351.75,1134.9526,339.75,1146.9526,236.75,1146.9526,224.75,1134.9526,236.75,1122.9526" style="stroke: #A80036; stroke-width: 1.5;"/><text fill="#000000" font-family="sans-serif" font-size="11" lengthAdjust="spacingAndGlyphs" textLength="103" x="236.75" y="1138.7607">Are the fuses OK?</text><text fill="#000000" font-family="sans-serif" font-size="11" lengthAdjust="spacingAndGlyphs" textLength="21" x="203.75" y="1132.3584">Yes</text><text fill="#000000" font-family="sans-serif" font-size="11" lengthAdjust="spacingAndGlyphs" textLength="15" x="351.75" y="1132.3584">No</text><rect fill="#FEFECE" filter="url(#f48okpe0kiqfd)" height="33.9688" rx="12.5" ry="12.5" style="stroke: #A80036; stroke-width: 1.5;" width="154" x="103" y="1156.9526"/><a target="_top" xlink:actuate="onRequest" xlink:href="http://rfhero.com/request-rma.php" xlink:show="new" xlink:title="http://rfhero.com/request-rma.php" xlink:type="simple"><text fill="#0000FF" font-family="sans-serif" font-size="12" lengthAdjust="spacingAndGlyphs" text-decoration="underline" textLength="134" x="113" y="1178.0913">Send for repair (RMA)</text><line style="stroke: #0000FF; stroke-width: 1.0;" x1="113" x2="247" y1="1180.0913" y2="1180.0913"/></a><ellipse cx="180" cy="1220.9214" fill="none" filter="url(#f48okpe0kiqfd)" rx="10" ry="10" style="stroke: #000000; stroke-width: 1.0;"/><ellipse cx="180.5" cy="1221.4214" fill="#000000" filter="url(#f48okpe0kiqfd)" rx="6" ry="6" style="stroke: none; stroke-width: 1.0;"/><rect fill="#FEFECE" filter="url(#f48okpe0kiqfd)" height="33.9688" rx="12.5" ry="12.5" style="stroke: #A80036; stroke-width: 1.5;" width="239" x="277" y="1156.9526"/><text fill="#000000" font-family="sans-serif" font-size="12" lengthAdjust="spacingAndGlyphs" textLength="92" x="287" y="1178.0913">Replace fuses.</text><a target="_top" xlink:actuate="onRequest" xlink:href="https://www.rfhero.net/accessories" xlink:show="new" xlink:title="https://www.rfhero.net/accessories" xlink:type="simple"><text fill="#0000FF" font-family="sans-serif" font-size="12" lengthAdjust="spacingAndGlyphs" text-decoration="underline" textLength="123" x="383" y="1178.0913">(Order spare fuses)</text><line style="stroke: #0000FF; stroke-width: 1.0;" x1="383" x2="506" y1="1180.0913" y2="1180.0913"/></a><ellipse cx="396.5" cy="1220.9214" fill="none" filter="url(#f48okpe0kiqfd)" rx="10" ry="10" style="stroke: #000000; stroke-width: 1.0;"/><ellipse cx="397" cy="1221.4214" fill="#000000" filter="url(#f48okpe0kiqfd)" rx="6" ry="6" style="stroke: none; stroke-width: 1.0;"/><rect fill="#FEFECE" filter="url(#f48okpe0kiqfd)" height="33.9688" rx="12.5" ry="12.5" style="stroke: #A80036; stroke-width: 1.5;" width="154" x="650.25" y="1068.9839"/><a target="_top" xlink:actuate="onRequest" xlink:href="http://rfhero.com/request-rma.php" xlink:show="new" xlink:title="http://rfhero.com/request-rma.php" xlink:type="simple"><text fill="#0000FF" font-family="sans-serif" font-size="12" lengthAdjust="spacingAndGlyphs" text-decoration="underline" textLength="134" x="660.25" y="1090.1226">Send for repair (RMA)</text><line style="stroke: #0000FF; stroke-width: 1.0;" x1="660.25" x2="794.25" y1="1092.1226" y2="1092.1226"/></a><ellipse cx="727.25" cy="1132.9526" fill="none" filter="url(#f48okpe0kiqfd)" rx="10" ry="10" style="stroke: #000000; stroke-width: 1.0;"/><ellipse cx="727.75" cy="1133.4526" fill="#000000" filter="url(#f48okpe0kiqfd)" rx="6" ry="6" style="stroke: none; stroke-width: 1.0;"/><line style="stroke: #A80036; stroke-width: 1.5;" x1="272.125" x2="272.125" y1="64.9219" y2="84.9219"/><polygon fill="#A80036" points="268.125,74.9219,272.125,84.9219,276.125,74.9219,272.125,78.9219" style="stroke: #A80036; stroke-width: 1.0;"/><line style="stroke: #A80036; stroke-width: 1.5;" x1="187.625" x2="187.625" y1="309.2305" y2="329.2305"/><polygon fill="#A80036" points="183.625,319.2305,187.625,329.2305,191.625,319.2305,187.625,323.2305" style="stroke: #A80036; stroke-width: 1.0;"/><line style="stroke: #A80036; stroke-width: 1.5;" x1="187.625" x2="187.625" y1="363.1992" y2="383.1992"/><polygon fill="#A80036" points="183.625,373.1992,187.625,383.1992,191.625,373.1992,187.625,377.1992" style="stroke: #A80036; stroke-width: 1.0;"/><line style="stroke: #A80036; stroke-width: 1.5;" x1="202.125" x2="187.625" y1="253.2617" y2="253.2617"/><line style="stroke: #A80036; stroke-width: 1.5;" x1="187.625" x2="187.625" y1="253.2617" y2="275.2617"/><polygon fill="#A80036" points="183.625,265.2617,187.625,275.2617,191.625,265.2617,187.625,269.2617" style="stroke: #A80036; stroke-width: 1.0;"/><line style="stroke: #A80036; stroke-width: 1.5;" x1="342.125" x2="356.625" y1="253.2617" y2="253.2617"/><line style="stroke: #A80036; stroke-width: 1.5;" x1="356.625" x2="356.625" y1="253.2617" y2="275.2617"/><polygon fill="#A80036" points="352.625,265.2617,356.625,275.2617,360.625,265.2617,356.625,269.2617" style="stroke: #A80036; stroke-width: 1.0;"/><line style="stroke: #A80036; stroke-width: 1.5;" x1="356.625" x2="356.625" y1="309.2305" y2="408.1992"/><line style="stroke: #A80036; stroke-width: 1.5;" x1="356.625" x2="272.125" y1="408.1992" y2="408.1992"/><line style="stroke: #A80036; stroke-width: 1.5;" x1="272.125" x2="272.125" y1="408.1992" y2="423.1992"/><polygon fill="#A80036" points="268.125,413.1992,272.125,423.1992,276.125,413.1992,272.125,417.1992" style="stroke: #A80036; stroke-width: 1.0;"/><line style="stroke: #A80036; stroke-width: 1.5;" x1="272.125" x2="272.125" y1="221.2617" y2="241.2617"/><polygon fill="#A80036" points="268.125,231.2617,272.125,241.2617,276.125,231.2617,272.125,235.2617" style="stroke: #A80036; stroke-width: 1.0;"/><line style="stroke: #A80036; stroke-width: 1.5;" x1="272.125" x2="272.125" y1="162.8906" y2="187.293"/><polygon fill="#A80036" points="268.125,177.293,272.125,187.293,276.125,177.293,272.125,181.293" style="stroke: #A80036; stroke-width: 1.0;"/><line style="stroke: #A80036; stroke-width: 1.5;" x1="413.625" x2="448.625" y1="150.8906" y2="150.8906"/><polygon fill="#A80036" points="444.625,295.7461,448.625,305.7461,452.625,295.7461,448.625,299.7461" style="stroke: #A80036; stroke-width: 1.5;"/><line style="stroke: #A80036; stroke-width: 1.5;" x1="448.625" x2="448.625" y1="150.8906" y2="435.1992"/><line style="stroke: #A80036; stroke-width: 1.5;" x1="448.625" x2="284.125" y1="435.1992" y2="435.1992"/><polygon fill="#A80036" points="294.125,431.1992,284.125,435.1992,294.125,439.1992,290.125,435.1992" style="stroke: #A80036; stroke-width: 1.0;"/><line style="stroke: #A80036; stroke-width: 1.5;" x1="272.125" x2="272.125" y1="118.8906" y2="138.8906"/><polygon fill="#A80036" points="268.125,128.8906,272.125,138.8906,276.125,128.8906,272.125,132.8906" style="stroke: #A80036; stroke-width: 1.0;"/><line style="stroke: #A80036; stroke-width: 1.5;" x1="393.125" x2="393.125" y1="594.0972" y2="629.0972"/><polygon fill="#A80036" points="389.125,619.0972,393.125,629.0972,397.125,619.0972,393.125,623.0972" style="stroke: #A80036; stroke-width: 1.0;"/><line style="stroke: #A80036; stroke-width: 1.5;" x1="393.125" x2="393.125" y1="663.0659" y2="683.0659"/><polygon fill="#A80036" points="389.125,673.0659,393.125,683.0659,397.125,673.0659,393.125,677.0659" style="stroke: #A80036; stroke-width: 1.0;"/><line style="stroke: #A80036; stroke-width: 1.5;" x1="161.125" x2="151.125" y1="537.3237" y2="537.3237"/><line style="stroke: #A80036; stroke-width: 1.5;" x1="151.125" x2="151.125" y1="537.3237" y2="560.1284"/><polygon fill="#A80036" points="147.125,550.1284,151.125,560.1284,155.125,550.1284,151.125,554.1284" style="stroke: #A80036; stroke-width: 1.0;"/><line style="stroke: #A80036; stroke-width: 1.5;" x1="383.125" x2="393.125" y1="537.3237" y2="537.3237"/><line style="stroke: #A80036; stroke-width: 1.5;" x1="393.125" x2="393.125" y1="537.3237" y2="560.1284"/><polygon fill="#A80036" points="389.125,550.1284,393.125,560.1284,397.125,550.1284,393.125,554.1284" style="stroke: #A80036; stroke-width: 1.0;"/><line style="stroke: #A80036; stroke-width: 1.5;" x1="151.125" x2="151.125" y1="594.0972" y2="708.0659"/><line style="stroke: #A80036; stroke-width: 1.5;" x1="151.125" x2="492.125" y1="708.0659" y2="708.0659"/><polygon fill="#A80036" points="488.125,609.4878,492.125,599.4878,496.125,609.4878,492.125,605.4878" style="stroke: #A80036; stroke-width: 1.5;"/><line style="stroke: #A80036; stroke-width: 1.5;" x1="492.125" x2="492.125" y1="480.0039" y2="708.0659"/><line style="stroke: #A80036; stroke-width: 1.5;" x1="492.125" x2="449.625" y1="480.0039" y2="480.0039"/><polygon fill="#A80036" points="459.625,476.0039,449.625,480.0039,459.625,484.0039,455.625,480.0039" style="stroke: #A80036; stroke-width: 1.0;"/><line style="stroke: #A80036; stroke-width: 1.5;" x1="272.125" x2="272.125" y1="492.8086" y2="524.519"/><polygon fill="#A80036" points="268.125,514.519,272.125,524.519,276.125,514.519,272.125,518.519" style="stroke: #A80036; stroke-width: 1.0;"/><line style="stroke: #A80036; stroke-width: 1.5;" x1="94.625" x2="34.125" y1="480.0039" y2="480.0039"/><polygon fill="#A80036" points="30.125,601.4878,34.125,611.4878,38.125,601.4878,34.125,605.4878" style="stroke: #A80036; stroke-width: 1.5;"/><line style="stroke: #A80036; stroke-width: 1.5;" x1="34.125" x2="34.125" y1="480.0039" y2="725.0659"/><line style="stroke: #A80036; stroke-width: 1.5;" x1="34.125" x2="272.125" y1="725.0659" y2="725.0659"/><line style="stroke: #A80036; stroke-width: 1.5;" x1="272.125" x2="272.125" y1="725.0659" y2="745.0659"/><polygon fill="#A80036" points="268.125,735.0659,272.125,745.0659,276.125,735.0659,272.125,739.0659" style="stroke: #A80036; stroke-width: 1.0;"/><line style="stroke: #A80036; stroke-width: 1.5;" x1="272.125" x2="272.125" y1="447.1992" y2="467.1992"/><polygon fill="#A80036" points="268.125,457.1992,272.125,467.1992,276.125,457.1992,272.125,461.1992" style="stroke: #A80036; stroke-width: 1.0;"/><line style="stroke: #A80036; stroke-width: 1.5;" x1="272.125" x2="272.125" y1="823.0347" y2="847.437"/><polygon fill="#A80036" points="268.125,837.437,272.125,847.437,276.125,837.437,272.125,841.437" style="stroke: #A80036; stroke-width: 1.0;"/><line style="stroke: #A80036; stroke-width: 1.5;" x1="405.625" x2="417.625" y1="811.0347" y2="811.0347"/><polygon fill="#A80036" points="413.625,854.4214,417.625,864.4214,421.625,854.4214,417.625,858.4214" style="stroke: #A80036; stroke-width: 1.5;"/><line style="stroke: #A80036; stroke-width: 1.5;" x1="417.625" x2="417.625" y1="811.0347" y2="913.4058"/><line style="stroke: #A80036; stroke-width: 1.5;" x1="417.625" x2="284.125" y1="913.4058" y2="913.4058"/><polygon fill="#A80036" points="294.125,909.4058,284.125,913.4058,294.125,917.4058,290.125,913.4058" style="stroke: #A80036; stroke-width: 1.0;"/><line style="stroke: #A80036; stroke-width: 1.5;" x1="272.125" x2="272.125" y1="881.4058" y2="901.4058"/><polygon fill="#A80036" points="268.125,891.4058,272.125,901.4058,276.125,891.4058,272.125,895.4058" style="stroke: #A80036; stroke-width: 1.0;"/><line style="stroke: #A80036; stroke-width: 1.5;" x1="272.125" x2="272.125" y1="779.0347" y2="799.0347"/><polygon fill="#A80036" points="268.125,789.0347,272.125,799.0347,276.125,789.0347,272.125,793.0347" style="stroke: #A80036; stroke-width: 1.0;"/><line style="stroke: #A80036; stroke-width: 1.5;" x1="36.5" x2="36.5" y1="1013.3745" y2="1033.3745"/><polygon fill="#A80036" points="32.5,1023.3745,36.5,1033.3745,40.5,1023.3745,36.5,1027.3745" style="stroke: #A80036; stroke-width: 1.0;"/><line style="stroke: #A80036; stroke-width: 1.5;" x1="180" x2="180" y1="1190.9214" y2="1210.9214"/><polygon fill="#A80036" points="176,1200.9214,180,1210.9214,184,1200.9214,180,1204.9214" style="stroke: #A80036; stroke-width: 1.0;"/><line style="stroke: #A80036; stroke-width: 1.5;" x1="396.5" x2="396.5" y1="1190.9214" y2="1210.9214"/><polygon fill="#A80036" points="392.5,1200.9214,396.5,1210.9214,400.5,1200.9214,396.5,1204.9214" style="stroke: #A80036; stroke-width: 1.0;"/><line style="stroke: #A80036; stroke-width: 1.5;" x1="224.75" x2="180" y1="1134.9526" y2="1134.9526"/><line style="stroke: #A80036; stroke-width: 1.5;" x1="180" x2="180" y1="1134.9526" y2="1156.9526"/><polygon fill="#A80036" points="176,1146.9526,180,1156.9526,184,1146.9526,180,1150.9526" style="stroke: #A80036; stroke-width: 1.0;"/><line style="stroke: #A80036; stroke-width: 1.5;" x1="351.75" x2="396.5" y1="1134.9526" y2="1134.9526"/><line style="stroke: #A80036; stroke-width: 1.5;" x1="396.5" x2="396.5" y1="1134.9526" y2="1156.9526"/><polygon fill="#A80036" points="392.5,1146.9526,396.5,1156.9526,400.5,1146.9526,396.5,1150.9526" style="stroke: #A80036; stroke-width: 1.0;"/><line style="stroke: #A80036; stroke-width: 1.5;" x1="288.25" x2="288.25" y1="1102.9526" y2="1122.9526"/><polygon fill="#A80036" points="284.25,1112.9526,288.25,1122.9526,292.25,1112.9526,288.25,1116.9526" style="stroke: #A80036; stroke-width: 1.0;"/><line style="stroke: #A80036; stroke-width: 1.5;" x1="727.25" x2="727.25" y1="1102.9526" y2="1122.9526"/><polygon fill="#A80036" points="723.25,1112.9526,727.25,1122.9526,731.25,1112.9526,727.25,1116.9526" style="stroke: #A80036; stroke-width: 1.0;"/><line style="stroke: #A80036; stroke-width: 1.5;" x1="298.25" x2="288.25" y1="1046.1792" y2="1046.1792"/><line style="stroke: #A80036; stroke-width: 1.5;" x1="288.25" x2="288.25" y1="1046.1792" y2="1068.9839"/><polygon fill="#A80036" points="284.25,1058.9839,288.25,1068.9839,292.25,1058.9839,288.25,1062.9839" style="stroke: #A80036; stroke-width: 1.0;"/><line style="stroke: #A80036; stroke-width: 1.5;" x1="717.25" x2="727.25" y1="1046.1792" y2="1046.1792"/><line style="stroke: #A80036; stroke-width: 1.5;" x1="727.25" x2="727.25" y1="1046.1792" y2="1068.9839"/><polygon fill="#A80036" points="723.25,1058.9839,727.25,1068.9839,731.25,1058.9839,727.25,1062.9839" style="stroke: #A80036; stroke-width: 1.0;"/><line style="stroke: #A80036; stroke-width: 1.5;" x1="507.75" x2="507.75" y1="1013.3745" y2="1033.3745"/><polygon fill="#A80036" points="503.75,1023.3745,507.75,1033.3745,511.75,1023.3745,507.75,1027.3745" style="stroke: #A80036; stroke-width: 1.0;"/><line style="stroke: #A80036; stroke-width: 1.5;" x1="72.625" x2="36.5" y1="957.4058" y2="957.4058"/><line style="stroke: #A80036; stroke-width: 1.5;" x1="36.5" x2="36.5" y1="957.4058" y2="979.4058"/><polygon fill="#A80036" points="32.5,969.4058,36.5,979.4058,40.5,969.4058,36.5,973.4058" style="stroke: #A80036; stroke-width: 1.0;"/><line style="stroke: #A80036; stroke-width: 1.5;" x1="471.625" x2="507.75" y1="957.4058" y2="957.4058"/><line style="stroke: #A80036; stroke-width: 1.5;" x1="507.75" x2="507.75" y1="957.4058" y2="979.4058"/><polygon fill="#A80036" points="503.75,969.4058,507.75,979.4058,511.75,969.4058,507.75,973.4058" style="stroke: #A80036; stroke-width: 1.0;"/><line style="stroke: #A80036; stroke-width: 1.5;" x1="272.125" x2="272.125" y1="925.4058" y2="945.4058"/><polygon fill="#A80036" points="268.125,935.4058,272.125,945.4058,276.125,935.4058,272.125,939.4058" style="stroke: #A80036; stroke-width: 1.0;"/><!--
@startuml
title Receiver Verification Procedure
:Power off the receiver by disconnecting the power cable.;
:Power the receiver back on by plugging in the power cable.;
if (Does the power light on the receiver turn on?) then (Yes)
else (No)
    :[[powersupply.html Check power supply]];
    if (Is power supply OK?) then (Yes)
        :[[http://rfhero.com/request-rma.php Send for repair (RMA)]];
        :Done;
        stop
    else
        :[[https://www.rfhero.net/accessories Replace AC Adaptor]];
    endif

endif
while (Does the status light on the receiver flash exactly 3 times\n a few seconds after powering up?) is (No)
    if (Does the status light flash at all\n a few seconds after powering up?) then (Yes)
        :[[mode.html Follow Set Mode Procedure]];
    else (No)
        :[[http://rfhero.com/request-rma.php Send for repair (RMA)]];
        :Done;
        stop
    endif
endwhile (Yes)
:Press OFF button on transmitter.;
if (Does status light on receiver blink <color:green>GREEN</color>?) then (Yes)
else (No)
    :[[learn.html Follow Pairing Procedure]];
endif
if (Does system respond properly to button presses on transmitter?) then (Yes)
    :Done;
    stop
else (No)
    :Using a #1 Phillips screwdriver, remove the lid on the receiver.;
    if (Do the LED's for both relays light when pressing the material button?\n[[rx_components.jpg Click here for help locating the LEDs.]]) then (Yes)
        :[[fusetest.html Test the Fuses]];
        if (Are the fuses OK?) then (Yes)
            :[[http://rfhero.com/request-rma.php Send for repair (RMA)]];
            stop
        else (No)
            :Replace fuses. [[https://www.rfhero.net/accessories (Order spare fuses)]];
            stop
        endif
    else (No)
        :[[http://rfhero.com/request-rma.php Send for repair (RMA)]];
        stop
    endif
endif

@enduml

PlantUML version 1.2019.00(Sun Jan 13 10:46:42 EST 2019)
(GPL source distribution)
Java Runtime: OpenJDK Runtime Environment
JVM: OpenJDK 64-Bit Server VM
Java Version: 10.0.2+13-Ubuntu-1ubuntu0.18.04.4
Operating System: Linux
OS Version: 4.15.0-46-generic
Default Encoding: UTF-8
Language: en
Country: US
--></g></svg>